font.ufo
<glyph name="exclam" format="1">
  <advance width="312"/>
  <unicode hex="0021"/>
  <outline>
    <contour>
      <point x="65" y="71" type="curve" smooth="yes"/>
      <point x="65" y="20"/>
      <point x="107" y="-21"/>
      <point x="157" y="-21" type="curve" smooth="yes"/>
      <point x="209" y="-21"/>
      <point x="250" y="20"/>
      <point x="250" y="71" type="curve" smooth="yes"/>
      <point x="250" y="123"/>
      <point x="209" y="164"/>
      <point x="157" y="164" type="curve" smooth="yes"/>
      <point x="107" y="164"/>
      <point x="65" y="123"/>
    </contour>
    <contour>
      <point x="164" y="207" type="line"/>
      <point x="185" y="336"/>
      <point x="267" y="382"/>
      <point x="267" y="459" type="curve" smooth="yes"/>
      <point x="267" y="514"/>
      <point x="237" y="569"/>
      <point x="157" y="569" type="curve" smooth="yes"/>
      <point x="74" y="569"/>
      <point x="45" y="514"/>
      <point x="45" y="458" type="curve" smooth="yes"/>
      <point x="45" y="379"/>
      <point x="130" y="336"/>
      <point x="148" y="207" type="curve"/>
    </contour>
  </outline>
</glyph>
<glyph name="quotedbl" format="1">
  <advance width="262"/>
  <unicode hex="0022"/>
  <outline>
    <contour>
      <point x="71" y="451" type="line"/>
      <point x="90" y="531"/>
      <point x="117" y="614"/>
      <point x="117" y="650" type="curve" smooth="yes"/>
      <point x="117" y="684"/>
      <point x="98" y="712"/>
      <point x="67" y="712" type="curve" smooth="yes"/>
      <point x="34" y="712"/>
      <point x="15" y="684"/>
      <point x="15" y="649" type="curve" smooth="yes"/>
      <point x="15" y="612"/>
      <point x="44" y="531"/>
      <point x="61" y="451" type="curve"/>
    </contour>
    <contour>
      <point x="205" y="451" type="line"/>
      <point x="224" y="531"/>
      <point x="251" y="614"/>
      <point x="251" y="650" type="curve" smooth="yes"/>
      <point x="251" y="684"/>
      <point x="232" y="712"/>
      <point x="201" y="712" type="curve" smooth="yes"/>
      <point x="168" y="712"/>
      <point x="149" y="684"/>
      <point x="149" y="649" type="curve" smooth="yes"/>
      <point x="149" y="612"/>
      <point x="178" y="531"/>
      <point x="195" y="451" type="curve"/>
    </contour>
  </outline>
</glyph>
<glyph name="numbersign" format="1">
  <advance width="501"/>
  <unicode hex="0023"/>
  <outline>
    <contour>
      <point x="65" y="9" type="line"/>
      <point x="86" y="9" type="line"/>
      <point x="259" y="568" type="line"/>
      <point x="238" y="568" type="line"/>
    </contour>
    <contour>
      <point x="255" y="7" type="line"/>
      <point x="276" y="7" type="line"/>
      <point x="449" y="566" type="line"/>
      <point x="428" y="566" type="line"/>
    </contour>
    <contour>
      <point x="448" y="197" type="line"/>
      <point x="20" y="197" type="line"/>
      <point x="20" y="177" type="line"/>
      <point x="448" y="177" type="line"/>
    </contour>
    <contour>
      <point x="494" y="393" type="line"/>
      <point x="61" y="393" type="line"/>
      <point x="61" y="373" type="line"/>
      <point x="494" y="373" type="line"/>
    </contour>
  </outline>
</glyph>
<glyph name="dollar" format="1">
  <advance width="548"/>
  <unicode hex="0024"/>
  <outline>
    <contour>
      <point x="70" y="0" type="line"/>
      <point x="70" y="28"/>
      <point x="85" y="40"/>
      <point x="107" y="40" type="curve" smooth="yes"/>
      <point x="143" y="40"/>
      <point x="195" y="-15"/>
      <point x="306" y="-15" type="curve" smooth="yes"/>
      <point x="424" y="-15"/>
      <point x="497" y="42"/>
      <point x="508" y="151" type="curve"/>
      <point x="518" y="283"/>
      <point x="408" y="318"/>
      <point x="318" y="360" type="curve" smooth="yes"/>
      <point x="245" y="394"/>
      <point x="172" y="410"/>
      <point x="172" y="473" type="curve" smooth="yes"/>
      <point x="172" y="517"/>
      <point x="201" y="550"/>
      <point x="251" y="550" type="curve" smooth="yes"/>
      <point x="361" y="550"/>
      <point x="440" y="483"/>
      <point x="440" y="387" type="curve"/>
      <point x="460" y="387" type="line"/>
      <point x="460" y="570" type="line"/>
      <point x="440" y="570" type="line"/>
      <point x="440" y="556"/>
      <point x="436" y="535"/>
      <point x="420" y="535" type="curve" smooth="yes"/>
      <point x="390" y="535"/>
      <point x="348" y="570"/>
      <point x="250" y="570" type="curve" smooth="yes"/>
      <point x="156" y="570"/>
      <point x="76" y="511"/>
      <point x="66" y="407" type="curve" smooth="yes"/>
      <point x="55" y="291"/>
      <point x="142" y="257"/>
      <point x="251" y="208" type="curve" smooth="yes"/>
      <point x="331" y="172"/>
      <point x="391" y="146"/>
      <point x="391" y="93" type="curve" smooth="yes"/>
      <point x="391" y="40"/>
      <point x="354" y="7"/>
      <point x="302" y="7" type="curve" smooth="yes"/>
      <point x="173" y="7"/>
      <point x="70" y="108"/>
      <point x="70" y="233" type="curve"/>
      <point x="50" y="233" type="line"/>
      <point x="50" y="0" type="line"/>
    </contour>
    <contour>
      <point x="274" y="-51" type="line"/>
      <point x="294" y="-51" type="line"/>
      <point x="294" y="633" type="line"/>
      <point x="274" y="633" type="line"/>
    </contour>
  </outline>
</glyph>
<glyph name="percent" format="1">
  <advance width="630"/>
  <unicode hex="0025"/>
  <outline>
    <contour>
      <point x="319" y="445" type="curve" smooth="yes"/>
      <point x="319" y="520"/>
      <point x="267" y="570"/>
      <point x="180" y="570" type="curve" smooth="yes"/>
      <point x="91" y="570"/>
      <point x="40" y="514"/>
      <point x="40" y="441" type="curve" smooth="yes"/>
      <point x="40" y="365"/>
      <point x="81" y="310"/>
      <point x="177" y="310" type="curve" smooth="yes"/>
      <point x="275" y="310"/>
      <point x="319" y="369"/>
    </contour>
    <contour>
      <point x="180" y="550" type="curve" smooth="yes"/>
      <point x="214" y="550"/>
      <point x="227" y="518"/>
      <point x="227" y="446" type="curve" smooth="yes"/>
      <point x="227" y="374"/>
      <point x="215" y="329"/>
      <point x="181" y="329" type="curve" smooth="yes"/>
      <point x="143" y="329"/>
      <point x="131" y="373"/>
      <point x="131" y="446" type="curve" smooth="yes"/>
      <point x="131" y="519"/>
      <point x="148" y="550"/>
    </contour>
    <contour>
      <point x="156" y="2" type="line"/>
      <point x="173" y="-7" type="line"/>
      <point x="466" y="558" type="line"/>
      <point x="448" y="567" type="line"/>
    </contour>
    <contour>
      <point x="590" y="128" type="curve" smooth="yes"/>
      <point x="590" y="203"/>
      <point x="538" y="253"/>
      <point x="451" y="253" type="curve" smooth="yes"/>
      <point x="362" y="253"/>
      <point x="311" y="197"/>
      <point x="311" y="124" type="curve" smooth="yes"/>
      <point x="311" y="48"/>
      <point x="352" y="-7"/>
      <point x="448" y="-7" type="curve" smooth="yes"/>
      <point x="546" y="-7"/>
      <point x="590" y="52"/>
    </contour>
    <contour>
      <point x="451" y="233" type="curve" smooth="yes"/>
      <point x="485" y="233"/>
      <point x="498" y="201"/>
      <point x="498" y="129" type="curve" smooth="yes"/>
      <point x="498" y="57"/>
      <point x="486" y="12"/>
      <point x="452" y="12" type="curve" smooth="yes"/>
      <point x="414" y="12"/>
      <point x="402" y="56"/>
      <point x="402" y="129" type="curve" smooth="yes"/>
      <point x="402" y="202"/>
      <point x="419" y="233"/>
    </contour>
  </outline>
</glyph>
<glyph name="ampersand" format="1">
  <advance width="856"/>
  <unicode hex="0026"/>
  <outline>
    <contour>
      <point x="730" y="334" type="curve" smooth="yes"/>
      <point x="623" y="370"/>
      <point x="503" y="312"/>
      <point x="467" y="106" type="curve"/>
      <point x="486" y="104" type="line"/>
      <point x="520" y="238"/>
      <point x="579" y="313"/>
      <point x="626" y="294" type="curve" smooth="yes"/>
      <point x="661" y="280"/>
      <point x="619" y="208"/>
      <point x="689" y="179" type="curve" smooth="yes"/>
      <point x="729" y="163"/>
      <point x="771" y="180"/>
      <point x="788" y="220" type="curve" smooth="yes"/>
      <point x="810" y="274"/>
      <point x="773" y="319"/>
    </contour>
    <contour>
      <point x="234" y="369" type="line"/>
      <point x="197" y="368"/>
      <point x="154" y="358"/>
      <point x="120" y="339" type="curve" smooth="yes"/>
      <point x="-34" y="254"/>
      <point x="8" y="-9"/>
      <point x="254" y="-9" type="curve"/>
      <point x="337" y="-9"/>
      <point x="404" y="3"/>
      <point x="450" y="69" type="curve" smooth="yes"/>
      <point x="428" y="83" type="line"/>
      <point x="364" y="-12"/>
      <point x="228" y="77"/>
      <point x="191" y="161" type="curve" smooth="yes"/>
      <point x="152" y="249"/>
      <point x="186" y="333"/>
      <point x="244" y="356" type="curve"/>
    </contour>
    <contour>
      <point x="357" y="486" type="curve" smooth="yes"/>
      <point x="357" y="549"/>
      <point x="388" y="586"/>
      <point x="433" y="586" type="curve"/>
      <point x="492" y="586"/>
      <point x="511" y="542"/>
      <point x="511" y="470" type="curve" smooth="yes"/>
      <point x="511" y="421"/>
      <point x="491" y="358"/>
      <point x="456" y="345" type="curve"/>
      <point x="461" y="329" type="line"/>
      <point x="561" y="329"/>
      <point x="624" y="386"/>
      <point x="624" y="468" type="curve"/>
      <point x="624" y="525"/>
      <point x="578" y="606"/>
      <point x="433" y="606" type="curve"/>
      <point x="309" y="606"/>
      <point x="222" y="527"/>
      <point x="222" y="418" type="curve"/>
      <point x="222" y="324"/>
      <point x="275" y="230"/>
      <point x="343" y="154" type="curve" smooth="yes"/>
      <point x="419" y="68"/>
      <point x="513" y="-10"/>
      <point x="648" y="-10" type="curve"/>
      <point x="855" y="-10"/>
      <point x="846" y="216"/>
      <point x="846" y="216" type="curve"/>
      <point x="826" y="216" type="line"/>
      <point x="826" y="216"/>
      <point x="817" y="105"/>
      <point x="692" y="105" type="curve"/>
      <point x="599" y="105"/>
      <point x="530" y="169"/>
      <point x="462" y="246" type="curve" smooth="yes"/>
      <point x="391" y="326"/>
      <point x="357" y="436"/>
    </contour>
  </outline>
</glyph>
<glyph name="quotesingle" format="1">
  <advance width="181"/>
  <unicode hex="0027"/>
  <outline>
    <contour>
      <point x="100" y="451" type="line"/>
      <point x="119" y="531"/>
      <point x="146" y="614"/>
      <point x="146" y="650" type="curve" smooth="yes"/>
      <point x="146" y="684"/>
      <point x="127" y="712"/>
      <point x="96" y="712" type="curve" smooth="yes"/>
      <point x="63" y="712"/>
      <point x="44" y="684"/>
      <point x="44" y="649" type="curve" smooth="yes"/>
      <point x="44" y="612"/>
      <point x="73" y="531"/>
      <point x="90" y="451" type="curve"/>
    </contour>
  </outline>
</glyph>
<glyph name="parenleft" format="1">
  <advance width="319"/>
  <unicode hex="0028"/>
  <outline>
    <contour>
      <point x="40" y="285" type="curve" smooth="yes"/>
      <point x="40" y="73"/>
      <point x="186" y="-65"/>
      <point x="309" y="-82" type="curve"/>
      <point x="309" y="-62" type="line"/>
      <point x="228" y="-24"/>
      <point x="180" y="102"/>
      <point x="180" y="285" type="curve" smooth="yes"/>
      <point x="180" y="468"/>
      <point x="228" y="594"/>
      <point x="309" y="632" type="curve"/>
      <point x="309" y="652" type="line"/>
      <point x="186" y="635"/>
      <point x="40" y="497"/>
    </contour>
  </outline>
</glyph>
<glyph name="parenright" format="1">
  <advance width="319"/>
  <unicode hex="0029"/>
  <outline>
    <contour>
      <point x="279" y="285" type="curve" smooth="yes"/>
      <point x="279" y="497"/>
      <point x="133" y="635"/>
      <point x="10" y="652" type="curve"/>
      <point x="10" y="632" type="line"/>
      <point x="91" y="594"/>
      <point x="139" y="468"/>
      <point x="139" y="285" type="curve" smooth="yes"/>
      <point x="139" y="102"/>
      <point x="91" y="-24"/>
      <point x="10" y="-62" type="curve"/>
      <point x="10" y="-82" type="line"/>
      <point x="133" y="-65"/>
      <point x="279" y="73"/>
    </contour>
  </outline>
</glyph>
<glyph name="asterisk" format="1">
  <advance width="328"/>
  <unicode hex="002A"/>
  <outline>
    <contour>
      <point x="169" y="439" type="curve"/>
      <point x="158" y="439" type="line"/>
      <point x="158" y="389"/>
      <point x="119" y="380"/>
      <point x="119" y="342" type="curve"/>
      <point x="119" y="320"/>
      <point x="127" y="291"/>
      <point x="163" y="291" type="curve" smooth="yes"/>
      <point x="200" y="291"/>
      <point x="208" y="320"/>
      <point x="208" y="342" type="curve"/>
      <point x="208" y="381"/>
      <point x="169" y="389"/>
    </contour>
    <contour>
      <point x="158" y="439" type="curve"/>
      <point x="151" y="448" type="line"/>
      <point x="109" y="423"/>
      <point x="81" y="453"/>
      <point x="48" y="433" type="curve"/>
      <point x="30" y="423"/>
      <point x="9" y="401"/>
      <point x="26" y="370" type="curve" smooth="yes"/>
      <point x="45" y="338"/>
      <point x="75" y="346"/>
      <point x="93" y="356" type="curve"/>
      <point x="127" y="376"/>
      <point x="115" y="414"/>
    </contour>
    <contour>
      <point x="169" y="439" type="line"/>
      <point x="212" y="414"/>
      <point x="200" y="376"/>
      <point x="235" y="356" type="curve"/>
      <point x="253" y="346"/>
      <point x="283" y="338"/>
      <point x="302" y="370" type="curve" smooth="yes"/>
      <point x="319" y="401"/>
      <point x="298" y="423"/>
      <point x="279" y="433" type="curve"/>
      <point x="247" y="453"/>
      <point x="219" y="423"/>
      <point x="176" y="448" type="curve"/>
    </contour>
    <contour>
      <point x="169" y="457" type="curve"/>
      <point x="176" y="448" type="line"/>
      <point x="219" y="473"/>
      <point x="247" y="443"/>
      <point x="279" y="463" type="curve"/>
      <point x="298" y="473"/>
      <point x="319" y="495"/>
      <point x="302" y="526" type="curve" smooth="yes"/>
      <point x="283" y="558"/>
      <point x="253" y="550"/>
      <point x="235" y="540" type="curve"/>
      <point x="200" y="520"/>
      <point x="212" y="482"/>
    </contour>
    <contour>
      <point x="158" y="457" type="line"/>
      <point x="115" y="482"/>
      <point x="127" y="520"/>
      <point x="93" y="540" type="curve"/>
      <point x="75" y="550"/>
      <point x="45" y="558"/>
      <point x="26" y="526" type="curve" smooth="yes"/>
      <point x="9" y="495"/>
      <point x="30" y="473"/>
      <point x="48" y="463" type="curve"/>
      <point x="81" y="443"/>
      <point x="109" y="473"/>
      <point x="151" y="448" type="curve"/>
    </contour>
    <contour>
      <point x="169" y="457" type="line"/>
      <point x="169" y="507"/>
      <point x="208" y="515"/>
      <point x="208" y="554" type="curve"/>
      <point x="208" y="576"/>
      <point x="200" y="605"/>
      <point x="163" y="605" type="curve" smooth="yes"/>
      <point x="127" y="605"/>
      <point x="119" y="576"/>
      <point x="119" y="554" type="curve"/>
      <point x="119" y="516"/>
      <point x="158" y="507"/>
      <point x="158" y="457" type="curve"/>
    </contour>
    <contour>
      <point x="151" y="439" type="line"/>
      <point x="176" y="439" type="line"/>
      <point x="176" y="457" type="line"/>
      <point x="151" y="457" type="line"/>
    </contour>
  </outline>
</glyph>
<glyph name="plus" format="1">
  <advance width="485"/>
  <unicode hex="002B"/>
  <outline>
    <contour>
      <point x="252" y="242" type="line"/>
      <point x="252" y="454" type="line"/>
      <point x="232" y="454" type="line"/>
      <point x="232" y="242" type="line"/>
      <point x="20" y="242" type="line"/>
      <point x="20" y="222" type="line"/>
      <point x="232" y="222" type="line"/>
      <point x="232" y="9" type="line"/>
      <point x="252" y="9" type="line"/>
      <point x="252" y="222" type="line"/>
      <point x="465" y="222" type="line"/>
      <point x="465" y="242" type="line"/>
    </contour>
  </outline>
</glyph>
<glyph name="comma" format="1">
  <advance width="290"/>
  <unicode hex="002C"/>
  <outline>
    <contour>
      <point x="74" y="-148" type="line"/>
      <point x="175" y="-102"/>
      <point x="231" y="-30"/>
      <point x="231" y="53" type="curve" smooth="yes"/>
      <point x="231" y="106"/>
      <point x="195" y="164"/>
      <point x="126" y="164" type="curve" smooth="yes"/>
      <point x="72" y="164"/>
      <point x="37" y="125"/>
      <point x="37" y="76" type="curve" smooth="yes"/>
      <point x="37" y="23"/>
      <point x="78" y="-1"/>
      <point x="112" y="-1" type="curve" smooth="yes"/>
      <point x="132" y="-1"/>
      <point x="136" y="5"/>
      <point x="153" y="5" type="curve" smooth="yes"/>
      <point x="162" y="5"/>
      <point x="171" y="-1"/>
      <point x="171" y="-12" type="curve" smooth="yes"/>
      <point x="171" y="-56"/>
      <point x="127" y="-95"/>
      <point x="67" y="-130" type="curve"/>
    </contour>
  </outline>
</glyph>
<glyph name="hyphen" format="1">
  <advance width="251"/>
  <unicode hex="002D"/>
  <outline>
    <contour>
      <point x="40" y="198" type="line"/>
      <point x="211" y="198" type="line"/>
      <point x="211" y="274" type="line"/>
      <point x="40" y="274" type="line"/>
    </contour>
  </outline>
</glyph>
<glyph name="period" format="1">
  <advance width="255"/>
  <unicode hex="002E"/>
  <outline>
    <contour>
      <point x="36" y="71" type="curve" smooth="yes"/>
      <point x="36" y="20"/>
      <point x="78" y="-21"/>
      <point x="128" y="-21" type="curve" smooth="yes"/>
      <point x="180" y="-21"/>
      <point x="221" y="20"/>
      <point x="221" y="71" type="curve" smooth="yes"/>
      <point x="221" y="123"/>
      <point x="180" y="164"/>
      <point x="128" y="164" type="curve" smooth="yes"/>
      <point x="78" y="164"/>
      <point x="36" y="123"/>
    </contour>
  </outline>
</glyph>
<glyph name="slash" format="1">
  <advance width="264"/>
  <unicode hex="002F"/>
  <outline>
    <contour>
      <point x="40" y="1" type="line"/>
      <point x="59" y="-5" type="line"/>
      <point x="224" y="559" type="line"/>
      <point x="206" y="564" type="line"/>
    </contour>
  </outline>
</glyph>
<glyph name="zero" format="1">
  <advance width="572"/>
  <unicode hex="0030"/>
  <outline>
    <contour>
      <point x="286" y="567" type="curve" smooth="yes"/>
      <point x="363" y="567"/>
      <point x="383" y="448"/>
      <point x="383" y="298" type="curve" smooth="yes"/>
      <point x="383" y="122"/>
      <point x="367" y="8"/>
      <point x="286" y="8" type="curve" smooth="yes"/>
      <point x="208" y="8"/>
      <point x="189" y="122"/>
      <point x="189" y="298" type="curve" smooth="yes"/>
      <point x="189" y="448"/>
      <point x="211" y="567"/>
    </contour>
    <contour>
      <point x="286" y="-12" type="curve" smooth="yes"/>
      <point x="433" y="-12"/>
      <point x="532" y="99"/>
      <point x="532" y="298" type="curve" smooth="yes"/>
      <point x="532" y="453"/>
      <point x="451" y="587"/>
      <point x="286" y="587" type="curve" smooth="yes"/>
      <point x="127" y="587"/>
      <point x="40" y="453"/>
      <point x="40" y="298" type="curve" smooth="yes"/>
      <point x="40" y="99"/>
      <point x="134" y="-12"/>
    </contour>
  </outline>
</glyph>
<glyph name="one" format="1">
  <advance width="377"/>
  <unicode hex="0031"/>
  <outline>
    <contour>
      <point x="277" y="0" type="line"/>
      <point x="277" y="582" type="line"/>
      <point x="241" y="582" type="line"/>
      <point x="40" y="489" type="line"/>
      <point x="46" y="470" type="line"/>
      <point x="127" y="501" type="line"/>
      <point x="127" y="0" type="line"/>
    </contour>
    <contour>
      <point x="347" y="20" type="line"/>
      <point x="47" y="20" type="line"/>
      <point x="47" y="0" type="line"/>
      <point x="347" y="0" type="line"/>
    </contour>
  </outline>
</glyph>
<glyph name="two" format="1">
  <advance width="528"/>
  <unicode hex="0032"/>
  <outline>
    <contour>
      <point x="460" y="205" type="line"/>
      <point x="453" y="150"/>
      <point x="410" y="145"/>
      <point x="358" y="145" type="curve" smooth="yes"/>
      <point x="305" y="145"/>
      <point x="266" y="171"/>
      <point x="204" y="171" type="curve" smooth="yes"/>
      <point x="180" y="171"/>
      <point x="154" y="166"/>
      <point x="136" y="151" type="curve"/>
      <point x="205" y="254"/>
      <point x="468" y="221"/>
      <point x="468" y="433" type="curve" smooth="yes"/>
      <point x="468" y="531"/>
      <point x="367" y="587"/>
      <point x="232" y="587" type="curve" smooth="yes"/>
      <point x="116" y="587"/>
      <point x="42" y="524"/>
      <point x="42" y="444" type="curve" smooth="yes"/>
      <point x="42" y="393"/>
      <point x="74" y="355"/>
      <point x="122" y="355" type="curve" smooth="yes"/>
      <point x="167" y="355"/>
      <point x="193" y="386"/>
      <point x="193" y="420" type="curve" smooth="yes"/>
      <point x="193" y="499"/>
      <point x="108" y="478"/>
      <point x="108" y="517" type="curve" smooth="yes"/>
      <point x="108" y="545"/>
      <point x="156" y="563"/>
      <point x="198" y="563" type="curve" smooth="yes"/>
      <point x="271" y="563"/>
      <point x="305" y="511"/>
      <point x="305" y="444" type="curve" smooth="yes"/>
      <point x="305" y="331"/>
      <point x="175" y="261"/>
      <point x="86" y="143" type="curve" smooth="yes"/>
      <point x="59" y="107"/>
      <point x="34" y="52"/>
      <point x="30" y="0" type="curve"/>
      <point x="50" y="0" type="line"/>
      <point x="59" y="42"/>
      <point x="84" y="65"/>
      <point x="123" y="65" type="curve" smooth="yes"/>
      <point x="195" y="65"/>
      <point x="260" y="-10"/>
      <point x="358" y="-10" type="curve" smooth="yes"/>
      <point x="445" y="-10"/>
      <point x="478" y="67"/>
      <point x="478" y="142" type="curve" smooth="yes"/>
      <point x="478" y="164"/>
      <point x="475" y="185"/>
      <point x="470" y="205" type="curve"/>
    </contour>
  </outline>
</glyph>
<glyph name="three" format="1">
  <advance width="526"/>
  <unicode hex="0033"/>
  <outline>
    <contour>
      <point x="222" y="587" type="curve" smooth="yes"/>
      <point x="116" y="587"/>
      <point x="54" y="527"/>
      <point x="54" y="456" type="curve" smooth="yes"/>
      <point x="54" y="405"/>
      <point x="83" y="374"/>
      <point x="127" y="374" type="curve" smooth="yes"/>
      <point x="167" y="374"/>
      <point x="190" y="402"/>
      <point x="190" y="432" type="curve" smooth="yes"/>
      <point x="190" y="503"/>
      <point x="109" y="481"/>
      <point x="109" y="516" type="curve" smooth="yes"/>
      <point x="109" y="541"/>
      <point x="140" y="564"/>
      <point x="189" y="564" type="curve" smooth="yes"/>
      <point x="257" y="564"/>
      <point x="295" y="513"/>
      <point x="295" y="447" type="curve" smooth="yes"/>
      <point x="295" y="399"/>
      <point x="271" y="323"/>
      <point x="175" y="323" type="curve" smooth="yes"/>
      <point x="159" y="323" type="line"/>
      <point x="159" y="303" type="line"/>
      <point x="175" y="303" type="line" smooth="yes"/>
      <point x="290" y="303"/>
      <point x="321" y="254"/>
      <point x="321" y="163" type="curve" smooth="yes"/>
      <point x="321" y="68"/>
      <point x="268" y="8"/>
      <point x="191" y="8" type="curve" smooth="yes"/>
      <point x="145" y="8"/>
      <point x="97" y="25"/>
      <point x="97" y="55" type="curve" smooth="yes"/>
      <point x="97" y="94"/>
      <point x="192" y="67"/>
      <point x="192" y="150" type="curve" smooth="yes"/>
      <point x="192" y="184"/>
      <point x="166" y="215"/>
      <point x="121" y="215" type="curve" smooth="yes"/>
      <point x="70" y="215"/>
      <point x="40" y="177"/>
      <point x="40" y="125" type="curve" smooth="yes"/>
      <point x="40" y="42"/>
      <point x="105" y="-16"/>
      <point x="224" y="-16" type="curve" smooth="yes"/>
      <point x="391" y="-16"/>
      <point x="486" y="51"/>
      <point x="486" y="164" type="curve" smooth="yes"/>
      <point x="486" y="257"/>
      <point x="401" y="313"/>
      <point x="282" y="314" type="curve"/>
      <point x="394" y="320"/>
      <point x="450" y="380"/>
      <point x="450" y="449" type="curve" smooth="yes"/>
      <point x="450" y="539"/>
      <point x="379" y="587"/>
    </contour>
  </outline>
</glyph>
<glyph name="five" format="1">
  <advance width="515"/>
  <unicode hex="0035"/>
  <outline>
    <contour>
      <point x="75" y="272" type="line"/>
      <point x="92" y="268" type="line"/>
      <point x="113" y="294"/>
      <point x="151" y="318"/>
      <point x="199" y="318" type="curve" smooth="yes"/>
      <point x="296" y="318"/>
      <point x="310" y="253"/>
      <point x="310" y="177" type="curve" smooth="yes"/>
      <point x="310" y="82"/>
      <point x="278" y="14"/>
      <point x="181" y="14" type="curve" smooth="yes"/>
      <point x="135" y="14"/>
      <point x="87" y="31"/>
      <point x="87" y="61" type="curve" smooth="yes"/>
      <point x="87" y="100"/>
      <point x="182" y="73"/>
      <point x="182" y="156" type="curve" smooth="yes"/>
      <point x="182" y="190"/>
      <point x="156" y="221"/>
      <point x="111" y="221" type="curve" smooth="yes"/>
      <point x="60" y="221"/>
      <point x="30" y="183"/>
      <point x="30" y="131" type="curve" smooth="yes"/>
      <point x="30" y="48"/>
      <point x="95" y="-10"/>
      <point x="214" y="-10" type="curve" smooth="yes"/>
      <point x="390" y="-10"/>
      <point x="475" y="67"/>
      <point x="475" y="180" type="curve" smooth="yes"/>
      <point x="475" y="280"/>
      <point x="402" y="347"/>
      <point x="235" y="347" type="curve" smooth="yes"/>
      <point x="169" y="347"/>
      <point x="121" y="326"/>
      <point x="101" y="307" type="curve"/>
      <point x="122" y="496" type="line"/>
      <point x="171" y="444"/>
      <point x="241" y="402"/>
      <point x="321" y="402" type="curve" smooth="yes"/>
      <point x="405" y="402"/>
      <point x="443" y="467"/>
      <point x="443" y="549" type="curve" smooth="yes"/>
      <point x="443" y="580"/>
      <point x="441" y="594"/>
      <point x="435" y="617" type="curve"/>
      <point x="425" y="617" type="line"/>
      <point x="397" y="553"/>
      <point x="360" y="554"/>
      <point x="286" y="554" type="curve" smooth="yes"/>
      <point x="227" y="554"/>
      <point x="146" y="562"/>
      <point x="109" y="577" type="curve"/>
    </contour>
  </outline>
</glyph>
<glyph name="six" format="1">
  <advance width="551"/>
  <unicode hex="0036"/>
  <outline>
    <contour>
      <point x="166" y="240" type="line"/>
      <point x="194" y="273"/>
      <point x="226" y="301"/>
      <point x="274" y="301" type="curve" smooth="yes"/>
      <point x="340" y="301"/>
      <point x="371" y="244"/>
      <point x="371" y="164" type="curve" smooth="yes"/>
      <point x="371" y="73"/>
      <point x="350" y="8"/>
      <point x="289" y="8" type="curve" smooth="yes"/>
      <point x="220" y="8"/>
      <point x="189" y="91"/>
      <point x="189" y="284" type="curve" smooth="yes"/>
      <point x="189" y="442"/>
      <point x="180" y="564"/>
      <point x="315" y="564" type="curve" smooth="yes"/>
      <point x="345" y="564"/>
      <point x="394" y="553"/>
      <point x="401" y="528" type="curve" smooth="yes"/>
      <point x="411" y="491"/>
      <point x="323" y="473"/>
      <point x="357" y="401" type="curve" smooth="yes"/>
      <point x="372" y="369"/>
      <point x="410" y="356"/>
      <point x="449" y="372" type="curve" smooth="yes"/>
      <point x="493" y="390"/>
      <point x="500" y="438"/>
      <point x="484" y="487" type="curve" smooth="yes"/>
      <point x="460" y="561"/>
      <point x="370" y="588"/>
      <point x="314" y="588" type="curve" smooth="yes"/>
      <point x="126" y="588"/>
      <point x="30" y="471"/>
      <point x="30" y="284" type="curve" smooth="yes"/>
      <point x="30" y="93"/>
      <point x="111" y="-12"/>
      <point x="288" y="-12" type="curve" smooth="yes"/>
      <point x="431" y="-12"/>
      <point x="511" y="60"/>
      <point x="511" y="175" type="curve" smooth="yes"/>
      <point x="511" y="277"/>
      <point x="427" y="333"/>
      <point x="311" y="333" type="curve" smooth="yes"/>
      <point x="237" y="333"/>
      <point x="189" y="302"/>
      <point x="164" y="265" type="curve"/>
    </contour>
  </outline>
</glyph>
<glyph name="eight" format="1">
  <advance width="530"/>
  <unicode hex="0038"/>
  <outline>
    <contour>
      <point x="278" y="-12" type="curve" smooth="yes"/>
      <point x="388" y="-12"/>
      <point x="500" y="52"/>
      <point x="500" y="153" type="curve" smooth="yes"/>
      <point x="500" y="334"/>
      <point x="169" y="400"/>
      <point x="169" y="496" type="curve" smooth="yes"/>
      <point x="169" y="539"/>
      <point x="200" y="566"/>
      <point x="255" y="566" type="curve" smooth="yes"/>
      <point x="314" y="566"/>
      <point x="363" y="522"/>
      <point x="363" y="460" type="curve" smooth="yes"/>
      <point x="363" y="411"/>
      <point x="352" y="347"/>
      <point x="327" y="334" type="curve"/>
      <point x="333" y="329" type="line"/>
      <point x="417" y="347"/>
      <point x="476" y="386"/>
      <point x="476" y="458" type="curve" smooth="yes"/>
      <point x="476" y="525"/>
      <point x="400" y="586"/>
      <point x="255" y="586" type="curve" smooth="yes"/>
      <point x="141" y="586"/>
      <point x="74" y="517"/>
      <point x="74" y="438" type="curve" smooth="yes"/>
      <point x="74" y="249"/>
      <point x="382" y="197"/>
      <point x="382" y="100" type="curve" smooth="yes"/>
      <point x="382" y="44"/>
      <point x="341" y="8"/>
      <point x="278" y="8" type="curve" smooth="yes"/>
      <point x="225" y="8"/>
      <point x="153" y="56"/>
      <point x="153" y="133" type="curve" smooth="yes"/>
      <point x="153" y="194"/>
      <point x="170" y="235"/>
      <point x="192" y="284" type="curve"/>
      <point x="185" y="289" type="line"/>
      <point x="91" y="272"/>
      <point x="30" y="214"/>
      <point x="30" y="141" type="curve" smooth="yes"/>
      <point x="30" y="22"/>
      <point x="152" y="-12"/>
    </contour>
  </outline>
</glyph>
<glyph name="nine" format="1">
  <advance width="551"/>
  <unicode hex="0039"/>
  <outline>
    <contour>
      <point x="385" y="336" type="line"/>
      <point x="357" y="303"/>
      <point x="325" y="275"/>
      <point x="277" y="275" type="curve" smooth="yes"/>
      <point x="211" y="275"/>
      <point x="180" y="332"/>
      <point x="180" y="412" type="curve" smooth="yes"/>
      <point x="180" y="503"/>
      <point x="201" y="568"/>
      <point x="262" y="568" type="curve" smooth="yes"/>
      <point x="331" y="568"/>
      <point x="362" y="485"/>
      <point x="362" y="292" type="curve" smooth="yes"/>
      <point x="362" y="134"/>
      <point x="371" y="12"/>
      <point x="236" y="12" type="curve" smooth="yes"/>
      <point x="206" y="12"/>
      <point x="157" y="23"/>
      <point x="150" y="48" type="curve" smooth="yes"/>
      <point x="140" y="85"/>
      <point x="228" y="103"/>
      <point x="194" y="175" type="curve" smooth="yes"/>
      <point x="179" y="207"/>
      <point x="141" y="220"/>
      <point x="102" y="204" type="curve" smooth="yes"/>
      <point x="58" y="186"/>
      <point x="51" y="138"/>
      <point x="67" y="89" type="curve" smooth="yes"/>
      <point x="91" y="15"/>
      <point x="181" y="-12"/>
      <point x="237" y="-12" type="curve" smooth="yes"/>
      <point x="425" y="-12"/>
      <point x="521" y="105"/>
      <point x="521" y="292" type="curve" smooth="yes"/>
      <point x="521" y="483"/>
      <point x="440" y="588"/>
      <point x="263" y="588" type="curve" smooth="yes"/>
      <point x="120" y="588"/>
      <point x="40" y="516"/>
      <point x="40" y="401" type="curve" smooth="yes"/>
      <point x="40" y="299"/>
      <point x="124" y="243"/>
      <point x="240" y="243" type="curve" smooth="yes"/>
      <point x="314" y="243"/>
      <point x="362" y="274"/>
      <point x="387" y="311" type="curve"/>
    </contour>
  </outline>
</glyph>
<glyph name="colon" format="1">
  <advance width="264"/>
  <unicode hex="003A"/>
  <outline>
    <contour>
      <point x="36" y="374" type="curve" smooth="yes"/>
      <point x="36" y="323"/>
      <point x="78" y="282"/>
      <point x="128" y="282" type="curve" smooth="yes"/>
      <point x="180" y="282"/>
      <point x="221" y="323"/>
      <point x="221" y="374" type="curve" smooth="yes"/>
      <point x="221" y="426"/>
      <point x="180" y="467"/>
      <point x="128" y="467" type="curve" smooth="yes"/>
      <point x="78" y="467"/>
      <point x="36" y="426"/>
    </contour>
    <contour>
      <point x="36" y="71" type="curve" smooth="yes"/>
      <point x="36" y="20"/>
      <point x="78" y="-21"/>
      <point x="128" y="-21" type="curve" smooth="yes"/>
      <point x="180" y="-21"/>
      <point x="221" y="20"/>
      <point x="221" y="71" type="curve" smooth="yes"/>
      <point x="221" y="123"/>
      <point x="180" y="164"/>
      <point x="128" y="164" type="curve" smooth="yes"/>
      <point x="78" y="164"/>
      <point x="36" y="123"/>
    </contour>
  </outline>
</glyph>
<glyph name="semicolon" format="1">
  <advance width="264"/>
  <unicode hex="003B"/>
  <outline>
    <contour>
      <point x="74" y="-148" type="line"/>
      <point x="175" y="-102"/>
      <point x="231" y="-30"/>
      <point x="231" y="53" type="curve" smooth="yes"/>
      <point x="231" y="106"/>
      <point x="195" y="164"/>
      <point x="126" y="164" type="curve" smooth="yes"/>
      <point x="72" y="164"/>
      <point x="37" y="125"/>
      <point x="37" y="76" type="curve" smooth="yes"/>
      <point x="37" y="23"/>
      <point x="78" y="-1"/>
      <point x="112" y="-1" type="curve" smooth="yes"/>
      <point x="132" y="-1"/>
      <point x="136" y="5"/>
      <point x="153" y="5" type="curve" smooth="yes"/>
      <point x="162" y="5"/>
      <point x="171" y="-1"/>
      <point x="171" y="-12" type="curve" smooth="yes"/>
      <point x="171" y="-56"/>
      <point x="127" y="-95"/>
      <point x="67" y="-130" type="curve"/>
    </contour>
    <contour>
      <point x="36" y="374" type="curve" smooth="yes"/>
      <point x="36" y="323"/>
      <point x="78" y="282"/>
      <point x="128" y="282" type="curve" smooth="yes"/>
      <point x="180" y="282"/>
      <point x="221" y="323"/>
      <point x="221" y="374" type="curve" smooth="yes"/>
      <point x="221" y="426"/>
      <point x="180" y="467"/>
      <point x="128" y="467" type="curve" smooth="yes"/>
      <point x="78" y="467"/>
      <point x="36" y="426"/>
    </contour>
  </outline>
</glyph>
<glyph name="less" format="1">
  <advance width="483"/>
  <unicode hex="003C"/>
  <outline>
    <contour>
      <point x="453" y="45" type="line"/>
      <point x="61" y="242" type="line"/>
      <point x="453" y="439" type="line"/>
      <point x="453" y="461" type="line"/>
      <point x="30" y="249" type="line"/>
      <point x="30" y="236" type="line"/>
      <point x="453" y="22" type="line"/>
    </contour>
  </outline>
</glyph>
<glyph name="equal" format="1">
  <advance width="465"/>
  <unicode hex="003D"/>
  <outline>
    <contour>
      <point x="435" y="321" type="line"/>
      <point x="30" y="321" type="line"/>
      <point x="30" y="301" type="line"/>
      <point x="435" y="301" type="line"/>
    </contour>
    <contour>
      <point x="435" y="166" type="line"/>
      <point x="30" y="166" type="line"/>
      <point x="30" y="145" type="line"/>
      <point x="435" y="145" type="line"/>
    </contour>
  </outline>
</glyph>
<glyph name="greater" format="1">
  <advance width="483"/>
  <unicode hex="003E"/>
  <outline>
    <contour>
      <point x="30" y="22" type="line"/>
      <point x="453" y="236" type="line"/>
      <point x="453" y="249" type="line"/>
      <point x="30" y="461" type="line"/>
      <point x="30" y="439" type="line"/>
      <point x="422" y="242" type="line"/>
      <point x="30" y="45" type="line"/>
    </contour>
  </outline>
</glyph>
<glyph name="question" format="1">
  <advance width="451"/>
  <unicode hex="003F"/>
  <outline>
    <contour>
      <point x="110" y="71" type="curve" smooth="yes"/>
      <point x="110" y="20"/>
      <point x="152" y="-21"/>
      <point x="202" y="-21" type="curve" smooth="yes"/>
      <point x="254" y="-21"/>
      <point x="295" y="20"/>
      <point x="295" y="71" type="curve" smooth="yes"/>
      <point x="295" y="123"/>
      <point x="254" y="164"/>
      <point x="202" y="164" type="curve" smooth="yes"/>
      <point x="152" y="164"/>
      <point x="110" y="123"/>
    </contour>
    <contour>
      <point x="203" y="570" type="curve" smooth="yes"/>
      <point x="85" y="570"/>
      <point x="10" y="507"/>
      <point x="10" y="434" type="curve" smooth="yes"/>
      <point x="10" y="389"/>
      <point x="41" y="354"/>
      <point x="88" y="354" type="curve" smooth="yes"/>
      <point x="115" y="354"/>
      <point x="147" y="381"/>
      <point x="147" y="413" type="curve" smooth="yes"/>
      <point x="147" y="477"/>
      <point x="83" y="466"/>
      <point x="83" y="502" type="curve" smooth="yes"/>
      <point x="83" y="520"/>
      <point x="140" y="543"/>
      <point x="183" y="543" type="curve" smooth="yes"/>
      <point x="229" y="543"/>
      <point x="285" y="519"/>
      <point x="267" y="442" type="curve" smooth="yes"/>
      <point x="252" y="377"/>
      <point x="144" y="363"/>
      <point x="134" y="288" type="curve" smooth="yes"/>
      <point x="129" y="247"/>
      <point x="151" y="217"/>
      <point x="190" y="195" type="curve"/>
      <point x="207" y="195" type="line"/>
      <point x="177" y="321"/>
      <point x="408" y="267"/>
      <point x="421" y="425" type="curve" smooth="yes"/>
      <point x="430" y="532"/>
      <point x="310" y="570"/>
    </contour>
  </outline>
</glyph>
<glyph name="at" format="1">
  <advance width="1000"/>
  <unicode hex="0040"/>
  <outline>
    <contour>
      <point x="533" y="145" type="line"/>
      <point x="533" y="105"/>
      <point x="503" y="90"/>
      <point x="477" y="90" type="curve" smooth="yes"/>
      <point x="429" y="90"/>
      <point x="391" y="123"/>
      <point x="391" y="239" type="curve"/>
      <point x="391" y="343"/>
      <point x="433" y="397"/>
      <point x="479" y="397" type="curve" smooth="yes"/>
      <point x="497" y="397"/>
      <point x="518" y="384"/>
      <point x="533" y="353" type="curve"/>
    </contour>
    <contour>
      <point x="654" y="117" type="curve"/>
      <point x="654" y="418" type="line"/>
      <point x="694" y="418" type="line"/>
      <point x="694" y="434" type="line"/>
      <point x="534" y="434" type="line"/>
      <point x="533" y="387" type="line"/>
      <point x="514" y="426"/>
      <point x="469" y="442"/>
      <point x="429" y="442" type="curve" smooth="yes"/>
      <point x="346" y="442"/>
      <point x="268" y="365"/>
      <point x="268" y="239" type="curve"/>
      <point x="268" y="94"/>
      <point x="347" y="38"/>
      <point x="429" y="38" type="curve" smooth="yes"/>
      <point x="490" y="38"/>
      <point x="518" y="61"/>
      <point x="533" y="85" type="curve"/>
      <point x="533" y="85"/>
      <point x="555" y="28"/>
      <point x="649" y="28" type="curve"/>
      <point x="795" y="28"/>
      <point x="818" y="178"/>
      <point x="818" y="248" type="curve"/>
      <point x="818" y="439"/>
      <point x="703" y="575"/>
      <point x="472" y="575" type="curve"/>
      <point x="271" y="575"/>
      <point x="127" y="429"/>
      <point x="127" y="238" type="curve"/>
      <point x="127" y="17"/>
      <point x="281" y="-99"/>
      <point x="472" y="-99" type="curve"/>
      <point x="490" y="-99"/>
      <point x="509" y="-98"/>
      <point x="526" y="-95" type="curve"/>
      <point x="526" y="-68" type="line"/>
      <point x="508" y="-71"/>
      <point x="490" y="-73"/>
      <point x="471" y="-73" type="curve" smooth="yes"/>
      <point x="295" y="-73"/>
      <point x="153" y="31"/>
      <point x="153" y="238" type="curve"/>
      <point x="153" y="415"/>
      <point x="285" y="550"/>
      <point x="471" y="550" type="curve"/>
      <point x="688" y="550"/>
      <point x="792" y="425"/>
      <point x="792" y="248" type="curve"/>
      <point x="792" y="170"/>
      <point x="750" y="70"/>
      <point x="701" y="70" type="curve" smooth="yes"/>
      <point x="665" y="70"/>
      <point x="654" y="90"/>
    </contour>
  </outline>
</glyph>
<glyph name="A" format="1">
  <advance width="643"/>
  <unicode hex="0041"/>
  <outline>
    <contour>
      <point x="390" y="180" type="line"/>
      <point x="160" y="180" type="line"/>
      <point x="157" y="159" type="line"/>
      <point x="390" y="159" type="line"/>
    </contour>
    <contour>
      <point x="633" y="20" type="line"/>
      <point x="370" y="20" type="line"/>
      <point x="370" y="0" type="line"/>
      <point x="633" y="0" type="line"/>
    </contour>
    <contour>
      <point x="181" y="20" type="line"/>
      <point x="10" y="20" type="line"/>
      <point x="10" y="0" type="line"/>
      <point x="181" y="0" type="line"/>
    </contour>
    <contour>
      <point x="331" y="570" type="line"/>
      <point x="310" y="570" type="line"/>
      <point x="250" y="392" type="line"/>
      <point x="438" y="1" type="line"/>
      <point x="594" y="1" type="line"/>
    </contour>
    <contour>
      <point x="94" y="0" type="line"/>
      <point x="331" y="570" type="line"/>
      <point x="306" y="570" type="line"/>
      <point x="69" y="0" type="line"/>
    </contour>
  </outline>
</glyph>
<glyph name="B" format="1">
  <advance width="596"/>
  <unicode hex="0042"/>
  <outline>
    <contour>
      <point x="392" y="421" type="curve" smooth="yes"/>
      <point x="392" y="333"/>
      <point x="338" y="306"/>
      <point x="271" y="306" type="curve"/>
      <point x="240" y="306" type="line"/>
      <point x="240" y="540" type="line"/>
      <point x="271" y="540" type="line"/>
      <point x="339" y="540"/>
      <point x="392" y="509"/>
    </contour>
    <contour>
      <point x="240" y="20" type="line"/>
      <point x="240" y="286" type="line"/>
      <point x="272" y="286" type="line"/>
      <point x="355" y="286"/>
      <point x="426" y="261"/>
      <point x="426" y="141" type="curve"/>
      <point x="426" y="61"/>
      <point x="374" y="20"/>
      <point x="296" y="20" type="curve"/>
    </contour>
    <contour>
      <point x="40" y="0" type="line"/>
      <point x="239" y="0" type="line"/>
      <point x="356" y="0" type="line"/>
      <point x="497" y="0"/>
      <point x="576" y="51"/>
      <point x="576" y="141" type="curve"/>
      <point x="576" y="246"/>
      <point x="494" y="292"/>
      <point x="406" y="292" type="curve"/>
      <point x="406" y="298" type="line"/>
      <point x="484" y="298"/>
      <point x="533" y="349"/>
      <point x="533" y="418" type="curve" smooth="yes"/>
      <point x="533" y="502"/>
      <point x="464" y="560"/>
      <point x="292" y="560" type="curve" smooth="yes"/>
      <point x="40" y="560" type="line"/>
      <point x="40" y="540" type="line"/>
      <point x="90" y="540" type="line"/>
      <point x="90" y="20" type="line"/>
      <point x="40" y="20" type="line"/>
    </contour>
  </outline>
</glyph>
<glyph name="C" format="1">
  <advance width="560"/>
  <unicode hex="0043"/>
  <outline>
    <contour>
      <point x="186" y="286" type="curve"/>
      <point x="186" y="493"/>
      <point x="246" y="553"/>
      <point x="308" y="553" type="curve" smooth="yes"/>
      <point x="447" y="553"/>
      <point x="505" y="428"/>
      <point x="505" y="337" type="curve"/>
      <point x="505" y="337"/>
      <point x="525" y="337"/>
      <point x="525" y="337" type="curve"/>
      <point x="525" y="560" type="line"/>
      <point x="525" y="560"/>
      <point x="506" y="560"/>
      <point x="506" y="560" type="curve"/>
      <point x="506" y="548"/>
      <point x="497" y="523"/>
      <point x="475" y="523" type="curve" smooth="yes"/>
      <point x="443" y="523"/>
      <point x="406" y="573"/>
      <point x="308" y="573" type="curve" smooth="yes"/>
      <point x="150" y="573"/>
      <point x="25" y="493"/>
      <point x="25" y="286" type="curve"/>
      <point x="25" y="67"/>
      <point x="143" y="-15"/>
      <point x="333" y="-15" type="curve"/>
      <point x="429" y="-15"/>
      <point x="516" y="42"/>
      <point x="535" y="181" type="curve"/>
      <point x="515" y="181" type="line"/>
      <point x="499" y="64"/>
      <point x="420" y="5"/>
      <point x="333" y="5" type="curve"/>
      <point x="232" y="5"/>
      <point x="186" y="71"/>
    </contour>
  </outline>
</glyph>
<glyph name="E" format="1">
  <advance width="545"/>
  <unicode hex="0045"/>
  <outline>
    <contour>
      <point x="340" y="20" type="curve"/>
      <point x="240" y="20" type="line"/>
      <point x="240" y="280" type="line"/>
      <point x="280" y="280" type="line"/>
      <point x="380" y="280"/>
      <point x="390" y="262"/>
      <point x="390" y="190" type="curve"/>
      <point x="410" y="190" type="line"/>
      <point x="410" y="390" type="line"/>
      <point x="390" y="390" type="line"/>
      <point x="390" y="322"/>
      <point x="380" y="300"/>
      <point x="280" y="300" type="curve"/>
      <point x="240" y="300" type="line"/>
      <point x="240" y="540" type="line"/>
      <point x="330" y="540" type="line"/>
      <point x="427" y="540"/>
      <point x="480" y="516"/>
      <point x="480" y="390" type="curve"/>
      <point x="500" y="390" type="line"/>
      <point x="500" y="560" type="line"/>
      <point x="40" y="560" type="line"/>
      <point x="40" y="540" type="line"/>
      <point x="90" y="540" type="line"/>
      <point x="90" y="20" type="line"/>
      <point x="40" y="20" type="line"/>
      <point x="40" y="0" type="line"/>
      <point x="510" y="0" type="line"/>
      <point x="510" y="190" type="line"/>
      <point x="490" y="190" type="line"/>
      <point x="490" y="54"/>
      <point x="417" y="20"/>
    </contour>
  </outline>
</glyph>
<glyph name="H" format="1">
  <advance width="657"/>
  <unicode hex="0048"/>
  <outline>
    <contour>
      <point x="464" y="308" type="line"/>
      <point x="184" y="308" type="line"/>
      <point x="184" y="288" type="line"/>
      <point x="464" y="288" type="line"/>
    </contour>
    <contour>
      <point x="627" y="20" type="line"/>
      <point x="377" y="20" type="line"/>
      <point x="377" y="0" type="line"/>
      <point x="627" y="0" type="line"/>
    </contour>
    <contour>
      <point x="577" y="560" type="line"/>
      <point x="427" y="560" type="line"/>
      <point x="427" y="1" type="line"/>
      <point x="577" y="1" type="line"/>
    </contour>
    <contour>
      <point x="627" y="560" type="line"/>
      <point x="377" y="560" type="line"/>
      <point x="377" y="540" type="line"/>
      <point x="627" y="540" type="line"/>
    </contour>
    <contour>
      <point x="280" y="20" type="line"/>
      <point x="30" y="20" type="line"/>
      <point x="30" y="0" type="line"/>
      <point x="280" y="0" type="line"/>
    </contour>
    <contour>
      <point x="280" y="560" type="line"/>
      <point x="30" y="560" type="line"/>
      <point x="30" y="540" type="line"/>
      <point x="280" y="540" type="line"/>
    </contour>
    <contour>
      <point x="230" y="560" type="line"/>
      <point x="80" y="560" type="line"/>
      <point x="80" y="1" type="line"/>
      <point x="230" y="1" type="line"/>
    </contour>
  </outline>
</glyph>
<glyph name="L" format="1">
  <advance width="520"/>
  <unicode hex="004C"/>
  <outline>
    <contour>
      <point x="300" y="560" type="line"/>
      <point x="40" y="560" type="line"/>
      <point x="40" y="540" type="line"/>
      <point x="300" y="540" type="line"/>
    </contour>
    <contour>
      <point x="510" y="20" type="line"/>
      <point x="40" y="20" type="line"/>
      <point x="40" y="0" type="line"/>
      <point x="510" y="0" type="line"/>
    </contour>
    <contour>
      <point x="240" y="560" type="line"/>
      <point x="90" y="560" type="line"/>
      <point x="90" y="1" type="line"/>
      <point x="240" y="1" type="line"/>
    </contour>
    <contour>
      <point x="510" y="190" type="line"/>
      <point x="510" y="20" type="line"/>
      <point x="340" y="20" type="line"/>
      <point x="417" y="20"/>
      <point x="490" y="34"/>
      <point x="490" y="190" type="curve"/>
    </contour>
  </outline>
</glyph>
<glyph name="N" format="1">
  <advance width="598"/>
  <unicode hex="004E"/>
  <outline>
    <contour>
      <point x="488" y="-10" type="line"/>
      <point x="508" y="-10" type="line"/>
      <point x="508" y="540" type="line"/>
      <point x="578" y="540" type="line"/>
      <point x="578" y="560" type="line"/>
      <point x="408" y="560" type="line"/>
      <point x="408" y="540" type="line"/>
      <point x="488" y="540" type="line"/>
      <point x="488" y="227" type="line"/>
      <point x="207" y="560" type="line"/>
      <point x="20" y="560" type="line"/>
      <point x="20" y="540" type="line"/>
      <point x="36" y="540"/>
      <point x="57" y="528"/>
      <point x="80" y="496" type="curve"/>
      <point x="80" y="20" type="line"/>
      <point x="20" y="20" type="line"/>
      <point x="20" y="0" type="line"/>
      <point x="180" y="0" type="line"/>
      <point x="180" y="20" type="line"/>
      <point x="100" y="20" type="line"/>
      <point x="100" y="471" type="line"/>
    </contour>
  </outline>
</glyph>
<glyph name="O" format="1">
  <advance width="622"/>
  <unicode hex="004F"/>
  <outline>
    <contour>
      <point x="311" y="-10" type="curve" smooth="yes"/>
      <point x="473" y="-10"/>
      <point x="602" y="82"/>
      <point x="602" y="281" type="curve"/>
      <point x="602" y="456"/>
      <point x="491" y="572"/>
      <point x="311" y="572" type="curve" smooth="yes"/>
      <point x="137" y="572"/>
      <point x="20" y="456"/>
      <point x="20" y="281" type="curve"/>
      <point x="20" y="82"/>
      <point x="144" y="-10"/>
    </contour>
    <contour>
      <point x="311" y="552" type="curve" smooth="yes"/>
      <point x="393" y="552"/>
      <point x="441" y="451"/>
      <point x="441" y="281" type="curve"/>
      <point x="441" y="105"/>
      <point x="397" y="10"/>
      <point x="311" y="10" type="curve" smooth="yes"/>
      <point x="228" y="10"/>
      <point x="181" y="105"/>
      <point x="181" y="281" type="curve"/>
      <point x="181" y="451"/>
      <point x="231" y="552"/>
    </contour>
  </outline>
</glyph>
<glyph name="P" format="1">
  <advance width="563"/>
  <unicode hex="0050"/>
  <outline>
    <contour>
      <point x="290" y="20" type="line"/>
      <point x="240" y="20" type="line"/>
      <point x="240" y="194" type="line"/>
      <point x="438" y="184"/>
      <point x="533" y="254"/>
      <point x="533" y="371" type="curve"/>
      <point x="533" y="499"/>
      <point x="447" y="570"/>
      <point x="239" y="560" type="curve"/>
      <point x="40" y="560" type="line"/>
      <point x="40" y="540" type="line"/>
      <point x="90" y="540" type="line"/>
      <point x="90" y="20" type="line"/>
      <point x="40" y="20" type="line"/>
      <point x="40" y="0" type="line"/>
      <point x="290" y="0" type="line"/>
    </contour>
    <contour>
      <point x="240" y="540" type="line"/>
      <point x="352" y="540"/>
      <point x="382" y="490"/>
      <point x="382" y="372" type="curve"/>
      <point x="382" y="260"/>
      <point x="352" y="214"/>
      <point x="240" y="214" type="curve"/>
    </contour>
  </outline>
</glyph>
<glyph name="Q" format="1">
  <advance width="684"/>
  <unicode hex="0051"/>
  <outline>
    <contour>
      <point x="250" y="-69" type="line"/>
      <point x="465" y="-32"/>
      <point x="642" y="71"/>
      <point x="642" y="275" type="curve"/>
      <point x="642" y="443"/>
      <point x="515" y="570"/>
      <point x="331" y="570" type="curve"/>
      <point x="147" y="570"/>
      <point x="30" y="440"/>
      <point x="30" y="276" type="curve"/>
      <point x="30" y="92"/>
      <point x="147" y="8"/>
      <point x="321" y="8" type="curve"/>
      <point x="321" y="28" type="line"/>
      <point x="232" y="28"/>
      <point x="192" y="132"/>
      <point x="192" y="276" type="curve"/>
      <point x="192" y="458"/>
      <point x="250" y="550"/>
      <point x="331" y="550" type="curve"/>
      <point x="411" y="550"/>
      <point x="480" y="464"/>
      <point x="480" y="276" type="curve"/>
      <point x="480" y="86"/>
      <point x="409" y="-3"/>
      <point x="309" y="-33" type="curve" smooth="yes"/>
      <point x="258" y="-48"/>
      <point x="196" y="-57"/>
      <point x="135" y="-109" type="curve"/>
      <point x="146" y="-127" type="line"/>
      <point x="173" y="-106"/>
      <point x="202" y="-92"/>
      <point x="233" y="-92" type="curve" smooth="yes"/>
      <point x="365" y="-92"/>
      <point x="421" y="-262"/>
      <point x="558" y="-262" type="curve" smooth="yes"/>
      <point x="673" y="-262"/>
      <point x="702" y="-174"/>
      <point x="702" y="-32" type="curve"/>
      <point x="682" y="-32" type="line"/>
      <point x="682" y="-77"/>
      <point x="645" y="-113"/>
      <point x="586" y="-113" type="curve" smooth="yes"/>
      <point x="443" y="-113"/>
      <point x="403" y="-63"/>
      <point x="250" y="-73" type="curve"/>
    </contour>
  </outline>
</glyph>
<glyph name="T" format="1">
  <advance width="569"/>
  <unicode hex="0054"/>
  <outline>
    <contour>
      <point x="529" y="390" type="curve"/>
      <point x="549" y="390" type="line"/>
      <point x="549" y="560" type="line"/>
      <point x="20" y="560" type="line"/>
      <point x="20" y="390" type="line"/>
      <point x="40" y="390" type="line"/>
      <point x="40" y="510"/>
      <point x="74" y="540"/>
      <point x="179" y="540" type="curve"/>
      <point x="209" y="540" type="line"/>
      <point x="209" y="20" type="line"/>
      <point x="139" y="20" type="line"/>
      <point x="139" y="0" type="line"/>
      <point x="429" y="0" type="line"/>
      <point x="429" y="20" type="line"/>
      <point x="359" y="20" type="line"/>
      <point x="359" y="540" type="line"/>
      <point x="389" y="540" type="line" smooth="yes"/>
      <point x="495" y="540"/>
      <point x="529" y="510"/>
    </contour>
  </outline>
</glyph>
<glyph name="U" format="1">
  <advance width="605"/>
  <unicode hex="0055"/>
  <outline>
    <contour>
      <point x="545" y="244" type="curve" smooth="yes"/>
      <point x="545" y="540" type="line"/>
      <point x="595" y="540" type="line"/>
      <point x="595" y="560" type="line"/>
      <point x="441" y="560" type="line"/>
      <point x="441" y="540" type="line"/>
      <point x="520" y="540" type="line"/>
      <point x="520" y="224" type="line" smooth="yes"/>
      <point x="520" y="85"/>
      <point x="439" y="14"/>
      <point x="370" y="14" type="curve" smooth="yes"/>
      <point x="277" y="14"/>
      <point x="230" y="87"/>
      <point x="230" y="223" type="curve" smooth="yes"/>
      <point x="230" y="540" type="line"/>
      <point x="280" y="540" type="line"/>
      <point x="280" y="560" type="line"/>
      <point x="20" y="560" type="line"/>
      <point x="20" y="540" type="line"/>
      <point x="70" y="540" type="line"/>
      <point x="70" y="234" type="line" smooth="yes"/>
      <point x="70" y="63"/>
      <point x="171" y="-15"/>
      <point x="327" y="-15" type="curve" smooth="yes"/>
      <point x="471" y="-15"/>
      <point x="545" y="71"/>
    </contour>
  </outline>
</glyph>
<glyph name="V" format="1">
  <advance width="626"/>
  <unicode hex="0056"/>
  <outline>
    <contour>
      <point x="293" y="560" type="line"/>
      <point x="10" y="560" type="line"/>
      <point x="10" y="540" type="line"/>
      <point x="293" y="540" type="line"/>
    </contour>
    <contour>
      <point x="616" y="560" type="line"/>
      <point x="442" y="560" type="line"/>
      <point x="442" y="540" type="line"/>
      <point x="616" y="540" type="line"/>
    </contour>
    <contour>
      <point x="235" y="560" type="line"/>
      <point x="49" y="560" type="line"/>
      <point x="309" y="0" type="line"/>
      <point x="401" y="180" type="line"/>
    </contour>
    <contour>
      <point x="335" y="0" type="line"/>
      <point x="556" y="560" type="line"/>
      <point x="530" y="560" type="line"/>
      <point x="309" y="0" type="line"/>
    </contour>
  </outline>
</glyph>
<glyph name="W" format="1">
  <advance width="919"/>
  <unicode hex="0057"/>
  <outline>
    <contour>
      <point x="629" y="0" type="line"/>
      <point x="634" y="11" type="line"/>
      <point x="630" y="0" type="line"/>
      <point x="654" y="0" type="line"/>
      <point x="841" y="540" type="line"/>
      <point x="909" y="540" type="line"/>
      <point x="909" y="560" type="line"/>
      <point x="737" y="560" type="line"/>
      <point x="737" y="540" type="line"/>
      <point x="817" y="540" type="line"/>
      <point x="711" y="235" type="line"/>
      <point x="577" y="540" type="line"/>
      <point x="624" y="540" type="line"/>
      <point x="624" y="560" type="line"/>
      <point x="350" y="560" type="line"/>
      <point x="350" y="540" type="line"/>
      <point x="388" y="540" type="line"/>
      <point x="455" y="390" type="line"/>
      <point x="391" y="231" type="line"/>
      <point x="254" y="540" type="line"/>
      <point x="303" y="540" type="line"/>
      <point x="303" y="560" type="line"/>
      <point x="10" y="560" type="line"/>
      <point x="10" y="540" type="line"/>
      <point x="58" y="540" type="line"/>
      <point x="299" y="0" type="line"/>
      <point x="323" y="0" type="line"/>
      <point x="468" y="362" type="line"/>
    </contour>
  </outline>
</glyph>
<glyph name="X" format="1">
  <advance width="625"/>
  <unicode hex="0058"/>
  <outline>
    <contour>
      <point x="340" y="292" type="line"/>
      <point x="520" y="560" type="line"/>
      <point x="493" y="560" type="line"/>
      <point x="313" y="292" type="line"/>
    </contour>
    <contour>
      <point x="400" y="540" type="line"/>
      <point x="580" y="540" type="line"/>
      <point x="580" y="560" type="line"/>
      <point x="400" y="560" type="line"/>
    </contour>
    <contour>
      <point x="190" y="20" type="line"/>
      <point x="10" y="20" type="line"/>
      <point x="10" y="0" type="line"/>
      <point x="190" y="0" type="line"/>
    </contour>
    <contour>
      <point x="250" y="290" type="line"/>
      <point x="70" y="0" type="line"/>
      <point x="97" y="0" type="line"/>
      <point x="277" y="290" type="line"/>
    </contour>
    <contour>
      <point x="615" y="20" type="line"/>
      <point x="340" y="20" type="line"/>
      <point x="340" y="0" type="line"/>
      <point x="615" y="0" type="line"/>
    </contour>
    <contour>
      <point x="242" y="560" type="line"/>
      <point x="62" y="560" type="line"/>
      <point x="402" y="0" type="line"/>
      <point x="579" y="0" type="line"/>
    </contour>
    <contour>
      <point x="300" y="560" type="line"/>
      <point x="21" y="560" type="line"/>
      <point x="21" y="540" type="line"/>
      <point x="300" y="540" type="line"/>
    </contour>
  </outline>
</glyph>
<glyph name="Y" format="1">
  <advance width="616"/>
  <unicode hex="0059"/>
  <outline>
    <contour>
      <point x="431" y="0" type="line"/>
      <point x="431" y="20" type="line"/>
      <point x="391" y="20" type="line"/>
      <point x="391" y="258" type="line"/>
      <point x="536" y="540" type="line"/>
      <point x="606" y="540" type="line"/>
      <point x="606" y="560" type="line"/>
      <point x="431" y="560" type="line"/>
      <point x="431" y="540" type="line"/>
      <point x="511" y="540" type="line"/>
      <point x="381" y="288" type="line"/>
      <point x="241" y="540" type="line"/>
      <point x="290" y="540" type="line"/>
      <point x="290" y="560" type="line"/>
      <point x="10" y="560" type="line"/>
      <point x="10" y="540" type="line"/>
      <point x="62" y="540" type="line"/>
      <point x="241" y="231" type="line"/>
      <point x="241" y="20" type="line"/>
      <point x="201" y="20" type="line"/>
      <point x="201" y="0" type="line"/>
    </contour>
  </outline>
</glyph>
<glyph name="Z" format="1">
  <advance width="529"/>
  <unicode hex="005A"/>
  <outline>
    <contour>
      <point x="324" y="560" type="line"/>
      <point x="30" y="20" type="line"/>
      <point x="35" y="0" type="line"/>
      <point x="184" y="0" type="line"/>
      <point x="482" y="540" type="line"/>
      <point x="478" y="560" type="line"/>
    </contour>
    <contour>
      <point x="30" y="0" type="line"/>
      <point x="489" y="0" type="line"/>
      <point x="489" y="210" type="line"/>
      <point x="469" y="210" type="line"/>
      <point x="469" y="44"/>
      <point x="416" y="20"/>
      <point x="300" y="20" type="curve"/>
      <point x="30" y="20" type="line"/>
    </contour>
    <contour>
      <point x="482" y="560" type="line"/>
      <point x="60" y="560" type="line"/>
      <point x="60" y="370" type="line"/>
      <point x="80" y="370" type="line"/>
      <point x="80" y="516"/>
      <point x="133" y="540"/>
      <point x="249" y="540" type="curve"/>
      <point x="482" y="540" type="line"/>
    </contour>
  </outline>
</glyph>
<glyph name="bracketleft" format="1">
  <advance width="270"/>
  <unicode hex="005B"/>
  <outline>
    <contour>
      <point x="50" y="-57" type="line"/>
      <point x="260" y="-57" type="line"/>
      <point x="260" y="-37" type="line"/>
      <point x="174" y="-37" type="line"/>
      <point x="174" y="597" type="line"/>
      <point x="260" y="597" type="line"/>
      <point x="260" y="617" type="line"/>
      <point x="50" y="617" type="line"/>
    </contour>
  </outline>
</glyph>
<glyph name="asciicircum" format="1">
  <advance width="342"/>
  <unicode hex="005E"/>
  <outline>
    <contour>
      <point x="171" y="455" type="line"/>
      <point x="294" y="198" type="line"/>
      <point x="312" y="206" type="line"/>
      <point x="177" y="489" type="line"/>
      <point x="165" y="489" type="line"/>
      <point x="30" y="206" type="line"/>
      <point x="47" y="198" type="line"/>
    </contour>
  </outline>
</glyph>
<glyph name="underscore" format="1">
  <advance width="522"/>
  <unicode hex="005F"/>
  <outline>
    <contour>
      <point x="30" y="-64" type="line"/>
      <point x="492" y="-64" type="line"/>
      <point x="492" y="-44" type="line"/>
      <point x="30" y="-44" type="line"/>
    </contour>
  </outline>
</glyph>
<glyph name="grave" format="1">
  <advance width="539"/>
  <unicode hex="0060"/>
  <outline>
    <contour>
      <point x="339" y="511" type="line"/>
      <point x="305" y="560"/>
      <point x="330" y="587"/>
      <point x="297" y="632" type="curve" smooth="yes"/>
      <point x="281" y="654"/>
      <point x="248" y="663"/>
      <point x="227" y="650" type="curve" smooth="yes"/>
      <point x="200" y="638"/>
      <point x="190" y="600"/>
      <point x="213" y="568" type="curve" smooth="yes"/>
      <point x="241" y="529"/>
      <point x="290" y="552"/>
      <point x="325" y="501" type="curve"/>
    </contour>
  </outline>
</glyph>
<glyph name="a" format="1">
  <advance width="545"/>
  <unicode hex="0061"/>
  <outline>
    <contour>
      <point x="254" y="34" type="curve" smooth="yes"/>
      <point x="226" y="34"/>
      <point x="186" y="58"/>
      <point x="179" y="113" type="curve"/>
      <point x="173" y="187"/>
      <point x="223" y="222"/>
      <point x="278" y="229" type="curve" smooth="yes"/>
      <point x="314" y="234" type="line"/>
      <point x="314" y="64" type="line"/>
      <point x="301" y="47"/>
      <point x="281" y="34"/>
    </contour>
    <contour>
      <point x="433" y="-5" type="curve" smooth="yes"/>
      <point x="466" y="-5"/>
      <point x="511" y="6"/>
      <point x="525" y="20" type="curve" smooth="yes"/>
      <point x="525" y="30" type="line"/>
      <point x="480" y="20"/>
      <point x="464" y="29"/>
      <point x="464" y="102" type="curve" smooth="yes"/>
      <point x="464" y="282" type="line"/>
      <point x="464" y="423"/>
      <point x="408" y="468"/>
      <point x="269" y="468" type="curve"/>
      <point x="122" y="468"/>
      <point x="61" y="406"/>
      <point x="61" y="344" type="curve"/>
      <point x="61" y="303"/>
      <point x="95" y="270"/>
      <point x="135" y="270" type="curve"/>
      <point x="176" y="270"/>
      <point x="209" y="303"/>
      <point x="209" y="344" type="curve"/>
      <point x="209" y="390"/>
      <point x="153" y="449"/>
      <point x="243" y="449" type="curve"/>
      <point x="306" y="449"/>
      <point x="314" y="411"/>
      <point x="314" y="302" type="curve"/>
      <point x="314" y="253" type="line"/>
      <point x="274" y="248" type="line" smooth="yes"/>
      <point x="95" y="227"/>
      <point x="40" y="179"/>
      <point x="40" y="93" type="curve"/>
      <point x="40" y="23"/>
      <point x="98" y="-8"/>
      <point x="166" y="-8" type="curve" smooth="yes"/>
      <point x="234" y="-8"/>
      <point x="286" y="10"/>
      <point x="319" y="44" type="curve"/>
      <point x="336" y="5"/>
      <point x="373" y="-5"/>
    </contour>
  </outline>
</glyph>
<glyph name="b" format="1">
  <advance width="558"/>
  <unicode hex="0062"/>
  <outline>
    <contour>
      <point x="303" y="-9" type="curve"/>
      <point x="384" y="-9"/>
      <point x="528" y="32"/>
      <point x="528" y="230" type="curve" smooth="yes"/>
      <point x="528" y="398"/>
      <point x="432" y="482"/>
      <point x="339" y="482" type="curve" smooth="yes"/>
      <point x="289" y="482"/>
      <point x="232" y="462"/>
      <point x="210" y="424" type="curve"/>
      <point x="210" y="670" type="line"/>
      <point x="10" y="670" type="line"/>
      <point x="10" y="650" type="line"/>
      <point x="60" y="650" type="line"/>
      <point x="60" y="0" type="line"/>
      <point x="79" y="0" type="line"/>
      <point x="79" y="41"/>
      <point x="100" y="70"/>
      <point x="124" y="70" type="curve" smooth="yes"/>
      <point x="178" y="70"/>
      <point x="209" y="-9"/>
    </contour>
    <contour>
      <point x="210" y="394" type="line"/>
      <point x="227" y="428"/>
      <point x="251" y="441"/>
      <point x="277" y="441" type="curve" smooth="yes"/>
      <point x="324" y="441"/>
      <point x="377" y="374"/>
      <point x="377" y="231" type="curve" smooth="yes"/>
      <point x="377" y="81"/>
      <point x="327" y="13"/>
      <point x="280" y="13" type="curve" smooth="yes"/>
      <point x="233" y="13"/>
      <point x="210" y="52"/>
      <point x="210" y="156" type="curve"/>
    </contour>
  </outline>
</glyph>
<glyph name="c" format="1">
  <advance width="503"/>
  <unicode hex="0063"/>
  <outline>
    <contour>
      <point x="30" y="230" type="curve"/>
      <point x="30" y="68"/>
      <point x="121" y="-9"/>
      <point x="291" y="-9" type="curve" smooth="yes"/>
      <point x="369" y="-9"/>
      <point x="433" y="25"/>
      <point x="463" y="75" type="curve"/>
      <point x="449" y="85" type="line"/>
      <point x="427" y="52"/>
      <point x="374" y="24"/>
      <point x="328" y="24" type="curve" smooth="yes"/>
      <point x="229" y="24"/>
      <point x="181" y="98"/>
      <point x="181" y="230" type="curve" smooth="yes"/>
      <point x="181" y="352"/>
      <point x="206" y="441"/>
      <point x="271" y="451" type="curve"/>
      <point x="350" y="461"/>
      <point x="318" y="389"/>
      <point x="318" y="326" type="curve"/>
      <point x="318" y="287"/>
      <point x="339" y="263"/>
      <point x="381" y="253" type="curve" smooth="yes"/>
      <point x="420" y="244"/>
      <point x="459" y="264"/>
      <point x="470" y="306" type="curve" smooth="yes"/>
      <point x="487" y="371"/>
      <point x="430" y="470"/>
      <point x="274" y="470" type="curve"/>
      <point x="141" y="470"/>
      <point x="30" y="395"/>
    </contour>
  </outline>
</glyph>
<glyph name="d" format="1">
  <advance width="588"/>
  <unicode hex="0064"/>
  <outline>
    <contour>
      <point x="358" y="219" type="line"/>
      <point x="358" y="55"/>
      <point x="336" y="35"/>
      <point x="291" y="28" type="curve" smooth="yes"/>
      <point x="238" y="20"/>
      <point x="182" y="74"/>
      <point x="182" y="229" type="curve"/>
      <point x="182" y="384"/>
      <point x="234" y="438"/>
      <point x="291" y="438" type="curve" smooth="yes"/>
      <point x="314" y="438"/>
      <point x="339" y="422"/>
      <point x="358" y="384" type="curve"/>
    </contour>
    <contour>
      <point x="358" y="46" type="curve"/>
      <point x="358" y="0" type="line"/>
      <point x="558" y="0" type="line"/>
      <point x="558" y="20" type="line"/>
      <point x="508" y="20" type="line"/>
      <point x="508" y="670" type="line"/>
      <point x="308" y="670" type="line"/>
      <point x="308" y="650" type="line"/>
      <point x="358" y="650" type="line"/>
      <point x="358" y="414" type="line"/>
      <point x="335" y="462"/>
      <point x="279" y="482"/>
      <point x="229" y="482" type="curve" smooth="yes"/>
      <point x="126" y="482"/>
      <point x="30" y="398"/>
      <point x="30" y="230" type="curve"/>
      <point x="30" y="70"/>
      <point x="128" y="-12"/>
      <point x="229" y="-12" type="curve" smooth="yes"/>
      <point x="279" y="-12"/>
      <point x="335" y="-4"/>
    </contour>
  </outline>
</glyph>
<glyph name="e" format="1">
  <advance width="515"/>
  <unicode hex="0065"/>
  <outline>
    <contour>
      <point x="317" y="24" type="curve"/>
      <point x="244" y="24"/>
      <point x="179" y="69"/>
      <point x="179" y="231" type="curve" smooth="yes"/>
      <point x="179" y="323"/>
      <point x="196" y="450"/>
      <point x="260" y="450" type="curve"/>
      <point x="323" y="450"/>
      <point x="342" y="322"/>
      <point x="342" y="220" type="curve"/>
      <point x="135" y="220" type="line"/>
      <point x="135" y="200" type="line"/>
      <point x="482" y="200" type="line"/>
      <point x="482" y="405"/>
      <point x="371" y="470"/>
      <point x="261" y="470" type="curve"/>
      <point x="146" y="470"/>
      <point x="30" y="406"/>
      <point x="30" y="232" type="curve" smooth="yes"/>
      <point x="30" y="33"/>
      <point x="168" y="-10"/>
      <point x="290" y="-10" type="curve"/>
      <point x="361" y="-10"/>
      <point x="442" y="25"/>
      <point x="472" y="75" type="curve"/>
      <point x="458" y="85" type="line"/>
      <point x="429" y="42"/>
      <point x="353" y="24"/>
    </contour>
  </outline>
</glyph>
<glyph name="f" format="1">
  <advance width="432"/>
  <unicode hex="0066"/>
  <outline>
    <contour>
      <point x="290" y="0" type="line"/>
      <point x="290" y="20" type="line"/>
      <point x="240" y="20" type="line"/>
      <point x="240" y="440" type="line"/>
      <point x="370" y="440" type="line"/>
      <point x="370" y="460" type="line"/>
      <point x="240" y="460" type="line"/>
      <point x="240" y="588"/>
      <point x="249" y="660"/>
      <point x="288" y="660" type="curve"/>
      <point x="315" y="660"/>
      <point x="326" y="636"/>
      <point x="326" y="591" type="curve"/>
      <point x="326" y="548"/>
      <point x="349" y="531"/>
      <point x="380" y="531" type="curve" smooth="yes"/>
      <point x="407" y="531"/>
      <point x="432" y="549"/>
      <point x="432" y="582" type="curve" smooth="yes"/>
      <point x="432" y="629"/>
      <point x="388" y="680"/>
      <point x="288" y="680" type="curve" smooth="yes"/>
      <point x="149" y="680"/>
      <point x="90" y="602"/>
      <point x="90" y="460" type="curve"/>
      <point x="30" y="460" type="line"/>
      <point x="30" y="440" type="line"/>
      <point x="90" y="440" type="line"/>
      <point x="90" y="20" type="line"/>
      <point x="40" y="20" type="line"/>
      <point x="40" y="0" type="line"/>
    </contour>
  </outline>
</glyph>
<glyph name="g" format="1">
  <advance width="553"/>
  <unicode hex="0067"/>
  <outline>
    <contour>
      <point x="416" y="431" type="line"/>
      <point x="378" y="452"/>
      <point x="360" y="491"/>
      <point x="360" y="523" type="curve" smooth="yes"/>
      <point x="360" y="565"/>
      <point x="384" y="594"/>
      <point x="397" y="599" type="curve" smooth="yes"/>
      <point x="412" y="605"/>
      <point x="420" y="601"/>
      <point x="422" y="592" type="curve" smooth="yes"/>
      <point x="423" y="586"/>
      <point x="418" y="581"/>
      <point x="415" y="575" type="curve" smooth="yes"/>
      <point x="411" y="568"/>
      <point x="407" y="558"/>
      <point x="407" y="548" type="curve" smooth="yes"/>
      <point x="407" y="515"/>
      <point x="430" y="484"/>
      <point x="470" y="484" type="curve" smooth="yes"/>
      <point x="509" y="484"/>
      <point x="533" y="516"/>
      <point x="533" y="551" type="curve"/>
      <point x="533" y="590"/>
      <point x="504" y="629"/>
      <point x="449" y="629" type="curve" smooth="yes"/>
      <point x="382" y="629"/>
      <point x="340" y="589"/>
      <point x="340" y="522" type="curve" smooth="yes"/>
      <point x="340" y="482"/>
      <point x="363" y="440"/>
      <point x="411" y="418" type="curve"/>
    </contour>
    <contour>
      <point x="261" y="449" type="curve" smooth="yes"/>
      <point x="315" y="449"/>
      <point x="345" y="423"/>
      <point x="345" y="298" type="curve" smooth="yes"/>
      <point x="345" y="184"/>
      <point x="315" y="150"/>
      <point x="264" y="150" type="curve" smooth="yes"/>
      <point x="219" y="150"/>
      <point x="190" y="185"/>
      <point x="190" y="299" type="curve" smooth="yes"/>
      <point x="190" y="424"/>
      <point x="220" y="449"/>
    </contour>
    <contour>
      <point x="495" y="297" type="curve" smooth="yes"/>
      <point x="495" y="414"/>
      <point x="376" y="469"/>
      <point x="273" y="469" type="curve" smooth="yes"/>
      <point x="162" y="469"/>
      <point x="30" y="416"/>
      <point x="30" y="299" type="curve" smooth="yes"/>
      <point x="30" y="187"/>
      <point x="133" y="130"/>
      <point x="256" y="130" type="curve" smooth="yes"/>
      <point x="374" y="130"/>
      <point x="495" y="184"/>
    </contour>
    <contour>
      <point x="368" y="61" type="curve"/>
      <point x="196" y="61" type="line"/>
      <point x="196" y="61"/>
      <point x="160" y="61"/>
      <point x="160" y="93" type="curve" smooth="yes"/>
      <point x="160" y="134"/>
      <point x="187" y="159"/>
      <point x="187" y="159" type="curve"/>
      <point x="187" y="159"/>
      <point x="179" y="162"/>
      <point x="172" y="160" type="curve" smooth="yes"/>
      <point x="141" y="152"/>
      <point x="64" y="98"/>
      <point x="64" y="30" type="curve" smooth="yes"/>
      <point x="64" y="-42"/>
      <point x="127" y="-69"/>
      <point x="194" y="-69" type="curve"/>
      <point x="362" y="-69" type="line" smooth="yes"/>
      <point x="473" y="-69"/>
      <point x="487" y="-117"/>
      <point x="434" y="-157" type="curve" smooth="yes"/>
      <point x="405" y="-179"/>
      <point x="360" y="-201"/>
      <point x="288" y="-201" type="curve" smooth="yes"/>
      <point x="172" y="-201"/>
      <point x="86" y="-147"/>
      <point x="116" y="-38" type="curve"/>
      <point x="85" y="-39"/>
      <point x="36" y="-61"/>
      <point x="31" y="-115" type="curve" smooth="yes"/>
      <point x="23" y="-197"/>
      <point x="157" y="-221"/>
      <point x="288" y="-221" type="curve"/>
      <point x="440" y="-221"/>
      <point x="506" y="-129"/>
      <point x="516" y="-75" type="curve" smooth="yes"/>
      <point x="530" y="-1"/>
      <point x="493" y="61"/>
    </contour>
  </outline>
</glyph>
<glyph name="h" format="1">
  <advance width="645"/>
  <unicode hex="0068"/>
  <outline>
    <contour>
      <point x="240" y="670" type="line"/>
      <point x="40" y="670" type="line"/>
      <point x="40" y="650" type="line"/>
      <point x="240" y="650" type="line"/>
    </contour>
    <contour>
      <point x="240" y="661" type="line"/>
      <point x="90" y="661" type="line"/>
      <point x="90" y="1" type="line"/>
      <point x="240" y="1" type="line"/>
    </contour>
    <contour>
      <point x="290" y="20" type="line"/>
      <point x="40" y="20" type="line"/>
      <point x="40" y="0" type="line"/>
      <point x="290" y="0" type="line"/>
    </contour>
    <contour>
      <point x="230" y="351" type="line"/>
      <point x="252" y="404"/>
      <point x="290" y="431"/>
      <point x="331" y="431" type="curve" smooth="yes"/>
      <point x="385" y="431"/>
      <point x="415" y="398"/>
      <point x="415" y="300" type="curve" smooth="yes"/>
      <point x="415" y="14" type="line"/>
      <point x="565" y="14" type="line"/>
      <point x="565" y="278" type="line" smooth="yes"/>
      <point x="565" y="405"/>
      <point x="504" y="471"/>
      <point x="387" y="471" type="curve" smooth="yes"/>
      <point x="308" y="471"/>
      <point x="241" y="429"/>
      <point x="230" y="387" type="curve"/>
    </contour>
    <contour>
      <point x="615" y="20" type="line"/>
      <point x="365" y="20" type="line"/>
      <point x="365" y="0" type="line"/>
      <point x="615" y="0" type="line"/>
    </contour>
  </outline>
</glyph>
<glyph name="j" format="1">
  <advance width="332"/>
  <unicode hex="006A"/>
  <outline>
    <contour>
      <point x="100" y="0" type="line"/>
      <point x="100" y="-128"/>
      <point x="91" y="-200"/>
      <point x="52" y="-200" type="curve"/>
      <point x="25" y="-200"/>
      <point x="14" y="-176"/>
      <point x="14" y="-131" type="curve"/>
      <point x="14" y="-88"/>
      <point x="-9" y="-71"/>
      <point x="-40" y="-71" type="curve" smooth="yes"/>
      <point x="-67" y="-71"/>
      <point x="-92" y="-89"/>
      <point x="-92" y="-122" type="curve" smooth="yes"/>
      <point x="-92" y="-169"/>
      <point x="-58" y="-220"/>
      <point x="52" y="-220" type="curve" smooth="yes"/>
      <point x="191" y="-220"/>
      <point x="250" y="-142"/>
      <point x="250" y="0" type="curve"/>
      <point x="250" y="460" type="line"/>
      <point x="50" y="460" type="line"/>
      <point x="50" y="440" type="line"/>
      <point x="100" y="440" type="line"/>
    </contour>
    <contour>
      <point x="262" y="592" type="curve" smooth="yes"/>
      <point x="262" y="641"/>
      <point x="223" y="681"/>
      <point x="175" y="681" type="curve" smooth="yes"/>
      <point x="126" y="681"/>
      <point x="86" y="641"/>
      <point x="86" y="592" type="curve" smooth="yes"/>
      <point x="86" y="544"/>
      <point x="126" y="505"/>
      <point x="175" y="505" type="curve" smooth="yes"/>
      <point x="223" y="505"/>
      <point x="262" y="544"/>
    </contour>
  </outline>
</glyph>
<glyph name="k" format="1">
  <advance width="618"/>
  <unicode hex="006B"/>
  <outline>
    <contour>
      <point x="608" y="0" type="curve"/>
      <point x="608" y="20" type="line"/>
      <point x="580" y="20"/>
      <point x="536" y="56"/>
      <point x="479" y="141" type="curve" smooth="yes"/>
      <point x="357" y="324" type="line"/>
      <point x="245" y="226" type="line"/>
      <point x="316" y="117" type="line" smooth="yes"/>
      <point x="386" y="9"/>
      <point x="434" y="0"/>
    </contour>
    <contour>
      <point x="558" y="460" type="line"/>
      <point x="368" y="460" type="line"/>
      <point x="368" y="440" type="line"/>
      <point x="558" y="440" type="line"/>
    </contour>
    <contour>
      <point x="226" y="188" type="line"/>
      <point x="498" y="459" type="line"/>
      <point x="468" y="459" type="line"/>
      <point x="196" y="188" type="line"/>
    </contour>
    <contour>
      <point x="290" y="20" type="line"/>
      <point x="40" y="20" type="line"/>
      <point x="40" y="0" type="line"/>
      <point x="290" y="0" type="line"/>
    </contour>
    <contour>
      <point x="240" y="670" type="line"/>
      <point x="90" y="670" type="line"/>
      <point x="90" y="0" type="line"/>
      <point x="240" y="0" type="line"/>
    </contour>
    <contour>
      <point x="230" y="670" type="line"/>
      <point x="40" y="670" type="line"/>
      <point x="40" y="650" type="line"/>
      <point x="230" y="650" type="line"/>
    </contour>
  </outline>
</glyph>
<glyph name="l" format="1">
  <advance width="320"/>
  <unicode hex="006C"/>
  <outline>
    <contour>
      <point x="230" y="670" type="line"/>
      <point x="40" y="670" type="line"/>
      <point x="40" y="650" type="line"/>
      <point x="230" y="650" type="line"/>
    </contour>
    <contour>
      <point x="290" y="20" type="line"/>
      <point x="40" y="20" type="line"/>
      <point x="40" y="0" type="line"/>
      <point x="290" y="0" type="line"/>
    </contour>
    <contour>
      <point x="240" y="670" type="line"/>
      <point x="90" y="670" type="line"/>
      <point x="90" y="1" type="line"/>
      <point x="240" y="1" type="line"/>
    </contour>
  </outline>
</glyph>
<glyph name="n" format="1">
  <advance width="645"/>
  <unicode hex="006E"/>
  <outline>
    <contour>
      <point x="240" y="460" type="line"/>
      <point x="40" y="460" type="line"/>
      <point x="40" y="440" type="line"/>
      <point x="240" y="440" type="line"/>
    </contour>
    <contour>
      <point x="230" y="351" type="line"/>
      <point x="252" y="404"/>
      <point x="290" y="431"/>
      <point x="331" y="431" type="curve" smooth="yes"/>
      <point x="385" y="431"/>
      <point x="415" y="398"/>
      <point x="415" y="300" type="curve" smooth="yes"/>
      <point x="415" y="14" type="line"/>
      <point x="565" y="14" type="line"/>
      <point x="565" y="278" type="line" smooth="yes"/>
      <point x="565" y="405"/>
      <point x="504" y="471"/>
      <point x="387" y="471" type="curve" smooth="yes"/>
      <point x="308" y="471"/>
      <point x="241" y="428"/>
      <point x="230" y="387" type="curve"/>
    </contour>
    <contour>
      <point x="615" y="20" type="line"/>
      <point x="365" y="20" type="line"/>
      <point x="365" y="0" type="line"/>
      <point x="615" y="0" type="line"/>
    </contour>
    <contour>
      <point x="290" y="20" type="line"/>
      <point x="40" y="20" type="line"/>
      <point x="40" y="0" type="line"/>
      <point x="290" y="0" type="line"/>
    </contour>
    <contour>
      <point x="240" y="451" type="line"/>
      <point x="90" y="451" type="line"/>
      <point x="90" y="1" type="line"/>
      <point x="240" y="1" type="line"/>
    </contour>
  </outline>
</glyph>
<glyph name="o" format="1">
  <advance width="564"/>
  <unicode hex="006F"/>
  <outline>
    <contour>
      <point x="281" y="-10" type="curve"/>
      <point x="396" y="-10"/>
      <point x="534" y="64"/>
      <point x="534" y="228" type="curve" smooth="yes"/>
      <point x="534" y="398"/>
      <point x="396" y="470"/>
      <point x="281" y="470" type="curve"/>
      <point x="166" y="470"/>
      <point x="30" y="398"/>
      <point x="30" y="228" type="curve" smooth="yes"/>
      <point x="30" y="64"/>
      <point x="166" y="-10"/>
    </contour>
    <contour>
      <point x="281" y="10" type="curve"/>
      <point x="208" y="10"/>
      <point x="183" y="75"/>
      <point x="183" y="228" type="curve" smooth="yes"/>
      <point x="183" y="385"/>
      <point x="208" y="450"/>
      <point x="281" y="450" type="curve"/>
      <point x="354" y="450"/>
      <point x="381" y="385"/>
      <point x="381" y="228" type="curve"/>
      <point x="381" y="75"/>
      <point x="354" y="10"/>
    </contour>
  </outline>
</glyph>
<glyph name="p" format="1">
  <advance width="578"/>
  <unicode hex="0070"/>
  <outline>
    <contour>
      <point x="220" y="414" type="curve"/>
      <point x="220" y="460" type="line"/>
      <point x="20" y="460" type="line"/>
      <point x="20" y="440" type="line"/>
      <point x="70" y="440" type="line"/>
      <point x="70" y="-210" type="line"/>
      <point x="270" y="-210" type="line"/>
      <point x="270" y="-190" type="line"/>
      <point x="220" y="-190" type="line"/>
      <point x="220" y="46" type="line"/>
      <point x="243" y="-2"/>
      <point x="299" y="-22"/>
      <point x="349" y="-22" type="curve" smooth="yes"/>
      <point x="452" y="-22"/>
      <point x="548" y="62"/>
      <point x="548" y="230" type="curve"/>
      <point x="548" y="390"/>
      <point x="450" y="472"/>
      <point x="349" y="472" type="curve" smooth="yes"/>
      <point x="299" y="472"/>
      <point x="249" y="464"/>
    </contour>
    <contour>
      <point x="220" y="241" type="line"/>
      <point x="220" y="385"/>
      <point x="233" y="432"/>
      <point x="297" y="432" type="curve"/>
      <point x="362" y="432"/>
      <point x="396" y="386"/>
      <point x="396" y="231" type="curve"/>
      <point x="396" y="76"/>
      <point x="344" y="22"/>
      <point x="287" y="22" type="curve" smooth="yes"/>
      <point x="264" y="22"/>
      <point x="239" y="38"/>
      <point x="220" y="76" type="curve"/>
    </contour>
  </outline>
</glyph>
<glyph name="q" format="1">
  <advance width="578"/>
  <unicode hex="0071"/>
  <outline>
    <contour>
      <point x="358" y="241" type="curve"/>
      <point x="358" y="76" type="line"/>
      <point x="339" y="38"/>
      <point x="314" y="22"/>
      <point x="291" y="22" type="curve" smooth="yes"/>
      <point x="234" y="22"/>
      <point x="182" y="76"/>
      <point x="182" y="231" type="curve"/>
      <point x="182" y="386"/>
      <point x="216" y="432"/>
      <point x="281" y="432" type="curve"/>
      <point x="345" y="432"/>
      <point x="358" y="385"/>
    </contour>
    <contour>
      <point x="358" y="414" type="line"/>
      <point x="329" y="464"/>
      <point x="279" y="472"/>
      <point x="229" y="472" type="curve" smooth="yes"/>
      <point x="128" y="472"/>
      <point x="30" y="390"/>
      <point x="30" y="230" type="curve"/>
      <point x="30" y="62"/>
      <point x="126" y="-22"/>
      <point x="229" y="-22" type="curve" smooth="yes"/>
      <point x="279" y="-22"/>
      <point x="335" y="-2"/>
      <point x="358" y="46" type="curve"/>
      <point x="358" y="-190" type="line"/>
      <point x="308" y="-190" type="line"/>
      <point x="308" y="-210" type="line"/>
      <point x="558" y="-210" type="line"/>
      <point x="558" y="-190" type="line"/>
      <point x="508" y="-190" type="line"/>
      <point x="508" y="440" type="line"/>
      <point x="558" y="440" type="line"/>
      <point x="558" y="460" type="line"/>
      <point x="358" y="460" type="line"/>
    </contour>
  </outline>
</glyph>
<glyph name="r" format="1">
  <advance width="483"/>
  <unicode hex="0072"/>
  <outline>
    <contour>
      <point x="290" y="0" type="line"/>
      <point x="290" y="20" type="line"/>
      <point x="240" y="20" type="line"/>
      <point x="240" y="211" type="line"/>
      <point x="240" y="314"/>
      <point x="281" y="415"/>
      <point x="305" y="415" type="curve" smooth="yes"/>
      <point x="334" y="415"/>
      <point x="325" y="346"/>
      <point x="372" y="327" type="curve" smooth="yes"/>
      <point x="412" y="311"/>
      <point x="453" y="330"/>
      <point x="468" y="368" type="curve"/>
      <point x="483" y="405"/>
      <point x="465" y="449"/>
      <point x="427" y="464" type="curve"/>
      <point x="377" y="484"/>
      <point x="265" y="479"/>
      <point x="240" y="341" type="curve"/>
      <point x="240" y="460" type="line"/>
      <point x="40" y="460" type="line"/>
      <point x="40" y="440" type="line"/>
      <point x="90" y="440" type="line"/>
      <point x="90" y="20" type="line"/>
      <point x="40" y="20" type="line"/>
      <point x="40" y="0" type="line"/>
    </contour>
  </outline>
</glyph>
<glyph name="s" format="1">
  <advance width="475"/>
  <unicode hex="0073"/>
  <outline>
    <contour>
      <point x="239" y="8" type="curve" smooth="yes"/>
      <point x="181" y="8"/>
      <point x="108" y="19"/>
      <point x="108" y="48" type="curve" smooth="yes"/>
      <point x="108" y="67"/>
      <point x="128" y="66"/>
      <point x="128" y="97" type="curve" smooth="yes"/>
      <point x="128" y="121"/>
      <point x="109" y="140"/>
      <point x="79" y="140" type="curve" smooth="yes"/>
      <point x="45" y="140"/>
      <point x="29" y="118"/>
      <point x="29" y="91" type="curve" smooth="yes"/>
      <point x="29" y="19"/>
      <point x="118" y="-12"/>
      <point x="239" y="-12" type="curve" smooth="yes"/>
      <point x="381" y="-12"/>
      <point x="456" y="53"/>
      <point x="456" y="140" type="curve" smooth="yes"/>
      <point x="456" y="327"/>
      <point x="131" y="273"/>
      <point x="131" y="387" type="curve" smooth="yes"/>
      <point x="131" y="420"/>
      <point x="163" y="450"/>
      <point x="241" y="450" type="curve" smooth="yes"/>
      <point x="286" y="450"/>
      <point x="340" y="439"/>
      <point x="340" y="419" type="curve" smooth="yes"/>
      <point x="340" y="404"/>
      <point x="323" y="398"/>
      <point x="323" y="374" type="curve" smooth="yes"/>
      <point x="323" y="347"/>
      <point x="344" y="331"/>
      <point x="374" y="331" type="curve" smooth="yes"/>
      <point x="404" y="331"/>
      <point x="420" y="350"/>
      <point x="420" y="378" type="curve" smooth="yes"/>
      <point x="420" y="436"/>
      <point x="337" y="470"/>
      <point x="241" y="470" type="curve" smooth="yes"/>
      <point x="109" y="470"/>
      <point x="31" y="408"/>
      <point x="31" y="312" type="curve" smooth="yes"/>
      <point x="31" y="127"/>
      <point x="364" y="181"/>
      <point x="364" y="70" type="curve" smooth="yes"/>
      <point x="364" y="26"/>
      <point x="303" y="8"/>
    </contour>
  </outline>
</glyph>
<glyph name="t" format="1">
  <advance width="361"/>
  <unicode hex="0074"/>
  <outline>
    <contour>
      <point x="351" y="44" type="line"/>
      <point x="339" y="36"/>
      <point x="319" y="34"/>
      <point x="298" y="34" type="curve" smooth="yes"/>
      <point x="224" y="34"/>
      <point x="224" y="118"/>
      <point x="224" y="196" type="curve"/>
      <point x="224" y="613" type="line"/>
      <point x="210" y="613" type="line"/>
      <point x="190" y="518"/>
      <point x="134" y="470"/>
      <point x="74" y="460" type="curve"/>
      <point x="74" y="173" type="line" smooth="yes"/>
      <point x="74" y="27"/>
      <point x="144" y="-10"/>
      <point x="246" y="-10" type="curve" smooth="yes"/>
      <point x="293" y="-10"/>
      <point x="324" y="5"/>
      <point x="351" y="24" type="curve"/>
    </contour>
    <contour>
      <point x="0" y="440" type="line"/>
      <point x="340" y="440" type="line"/>
      <point x="340" y="460" type="line"/>
      <point x="0" y="460" type="line"/>
    </contour>
  </outline>
</glyph>
<glyph name="v" format="1">
  <advance width="536"/>
  <unicode hex="0076"/>
  <outline>
    <contour>
      <point x="526" y="460" type="line"/>
      <point x="376" y="460" type="line"/>
      <point x="376" y="440" type="line"/>
      <point x="526" y="440" type="line"/>
    </contour>
    <contour>
      <point x="270" y="460" type="line"/>
      <point x="10" y="460" type="line"/>
      <point x="10" y="440" type="line"/>
      <point x="270" y="440" type="line"/>
    </contour>
    <contour>
      <point x="290" y="0" type="line"/>
      <point x="486" y="460" type="line"/>
      <point x="464" y="460" type="line"/>
      <point x="275" y="19" type="line"/>
      <point x="272" y="0" type="line"/>
    </contour>
    <contour>
      <point x="44" y="452" type="line"/>
      <point x="272" y="0" type="line"/>
      <point x="349" y="169" type="line"/>
      <point x="214" y="452" type="line"/>
    </contour>
  </outline>
</glyph>
<glyph name="w" format="1">
  <advance width="830"/>
  <unicode hex="0077"/>
  <outline>
    <contour>
      <point x="570" y="0" type="line"/>
      <point x="591" y="0" type="line"/>
      <point x="760" y="440" type="line"/>
      <point x="820" y="440" type="line"/>
      <point x="820" y="460" type="line"/>
      <point x="657" y="460" type="line"/>
      <point x="657" y="440" type="line"/>
      <point x="737" y="440" type="line"/>
      <point x="644" y="198" type="line"/>
      <point x="536" y="440" type="line"/>
      <point x="580" y="440" type="line"/>
      <point x="580" y="460" type="line"/>
      <point x="330" y="460" type="line"/>
      <point x="330" y="440" type="line"/>
      <point x="367" y="440" type="line"/>
      <point x="400" y="361" type="line"/>
      <point x="335" y="198" type="line"/>
      <point x="227" y="440" type="line"/>
      <point x="280" y="440" type="line"/>
      <point x="280" y="460" type="line"/>
      <point x="10" y="460" type="line"/>
      <point x="10" y="440" type="line"/>
      <point x="57" y="440" type="line"/>
      <point x="260" y="0" type="line"/>
      <point x="281" y="0" type="line"/>
      <point x="412" y="331" type="line"/>
    </contour>
  </outline>
</glyph>
<glyph name="y" format="1">
  <advance width="562"/>
  <unicode hex="0079"/>
  <outline>
    <contour>
      <point x="114" y="-220" type="curve"/>
      <point x="184" y="-220"/>
      <point x="218" y="-185"/>
      <point x="252" y="-111" type="curve" smooth="yes"/>
      <point x="492" y="440" type="line"/>
      <point x="552" y="440" type="line"/>
      <point x="552" y="460" type="line"/>
      <point x="388" y="460" type="line"/>
      <point x="388" y="440" type="line"/>
      <point x="468" y="440" type="line"/>
      <point x="353" y="176" type="line"/>
      <point x="219" y="440" type="line"/>
      <point x="269" y="440" type="line"/>
      <point x="269" y="460" type="line"/>
      <point x="0" y="460" type="line"/>
      <point x="0" y="440" type="line"/>
      <point x="40" y="440" type="line"/>
      <point x="274" y="-1" type="line"/>
      <point x="232" y="-100" type="line" smooth="yes"/>
      <point x="222" y="-123"/>
      <point x="213" y="-134"/>
      <point x="199" y="-134" type="curve" smooth="yes"/>
      <point x="160" y="-134"/>
      <point x="162" y="-64"/>
      <point x="81" y="-64" type="curve" smooth="yes"/>
      <point x="41" y="-64"/>
      <point x="9" y="-94"/>
      <point x="9" y="-140" type="curve"/>
      <point x="9" y="-189"/>
      <point x="48" y="-220"/>
    </contour>
  </outline>
</glyph>
<glyph name="z" format="1">
  <advance width="502"/>
  <unicode hex="007A"/>
  <outline>
    <contour>
      <point x="10" y="0" type="line"/>
      <point x="456" y="0" type="line"/>
      <point x="456" y="199" type="line"/>
      <point x="442" y="199" type="line"/>
      <point x="442" y="42"/>
      <point x="373" y="20"/>
      <point x="243" y="20" type="curve" smooth="yes"/>
      <point x="182" y="20" type="line"/>
      <point x="462" y="448" type="line"/>
      <point x="462" y="460" type="line"/>
      <point x="41" y="460" type="line"/>
      <point x="41" y="275" type="line"/>
      <point x="57" y="275" type="line"/>
      <point x="57" y="402"/>
      <point x="132" y="440"/>
      <point x="234" y="440" type="curve"/>
      <point x="293" y="440" type="line"/>
      <point x="10" y="15" type="line"/>
    </contour>
  </outline>
</glyph>
<glyph name="bar" format="1">
  <advance width="140"/>
  <unicode hex="007C"/>
  <outline>
    <contour>
      <point x="60" y="-99" type="line"/>
      <point x="80" y="-99" type="line"/>
      <point x="80" y="585" type="line"/>
      <point x="60" y="585" type="line"/>
    </contour>
  </outline>
</glyph>
<glyph name="asciitilde" format="1">
  <advance width="484"/>
  <unicode hex="007E"/>
  <outline>
    <contour>
      <point x="37" y="148" type="curve"/>
      <point x="41" y="148"/>
      <point x="53" y="148"/>
      <point x="53" y="148" type="curve"/>
      <point x="53" y="148"/>
      <point x="52" y="156"/>
      <point x="52" y="166" type="curve" smooth="yes"/>
      <point x="52" y="194"/>
      <point x="70" y="215"/>
      <point x="97" y="215" type="curve" smooth="yes"/>
      <point x="176" y="215"/>
      <point x="230" y="157"/>
      <point x="321" y="157" type="curve" smooth="yes"/>
      <point x="393" y="157"/>
      <point x="454" y="212"/>
      <point x="454" y="279" type="curve" smooth="yes"/>
      <point x="454" y="293"/>
      <point x="453" y="308"/>
      <point x="447" y="324" type="curve"/>
      <point x="447" y="324"/>
      <point x="433" y="324"/>
      <point x="431" y="324" type="curve"/>
      <point x="431" y="324"/>
      <point x="432" y="315"/>
      <point x="432" y="306" type="curve" smooth="yes"/>
      <point x="432" y="279"/>
      <point x="416" y="257"/>
      <point x="386" y="257" type="curve" smooth="yes"/>
      <point x="306" y="257"/>
      <point x="252" y="315"/>
      <point x="162" y="315" type="curve" smooth="yes"/>
      <point x="91" y="315"/>
      <point x="30" y="262"/>
      <point x="30" y="193" type="curve" smooth="yes"/>
      <point x="30" y="178"/>
      <point x="32" y="164"/>
    </contour>
  </outline>
</glyph>
<glyph name="exclamdown" format="1">
  <advance width="252"/>
  <unicode hex="00A1"/>
  <outline>
    <contour>
      <point x="125" y="465" type="curve" smooth="yes"/>
      <point x="85" y="465"/>
      <point x="50" y="430"/>
      <point x="50" y="390" type="curve" smooth="yes"/>
      <point x="50" y="348"/>
      <point x="85" y="314"/>
      <point x="125" y="314" type="curve" smooth="yes"/>
      <point x="167" y="314"/>
      <point x="201" y="348"/>
      <point x="201" y="390" type="curve" smooth="yes"/>
      <point x="201" y="430"/>
      <point x="167" y="465"/>
    </contour>
    <contour>
      <point x="134" y="280" type="curve"/>
      <point x="118" y="280" type="line"/>
      <point x="100" y="151"/>
      <point x="35" y="68"/>
      <point x="35" y="-11" type="curve" smooth="yes"/>
      <point x="35" y="-67"/>
      <point x="64" y="-112"/>
      <point x="127" y="-112" type="curve" smooth="yes"/>
      <point x="187" y="-112"/>
      <point x="217" y="-67"/>
      <point x="217" y="-12" type="curve" smooth="yes"/>
      <point x="217" y="65"/>
      <point x="155" y="151"/>
    </contour>
  </outline>
</glyph>
<glyph name="cent" format="1">
  <advance width="415"/>
  <unicode hex="00A2"/>
  <outline>
    <contour>
      <point x="126" y="36" type="line"/>
      <point x="144" y="27" type="line"/>
      <point x="375" y="468" type="line"/>
      <point x="358" y="476" type="line"/>
      <point x="324" y="411" type="line"/>
      <point x="322" y="376" type="line"/>
      <point x="295" y="355" type="line"/>
    </contour>
    <contour>
      <point x="363" y="223" type="line"/>
      <point x="357" y="183"/>
      <point x="331" y="142"/>
      <point x="281" y="142" type="curve" smooth="yes"/>
      <point x="214" y="142"/>
      <point x="170" y="196"/>
      <point x="170" y="274" type="curve" smooth="yes"/>
      <point x="170" y="359"/>
      <point x="203" y="425"/>
      <point x="260" y="425" type="curve" smooth="yes"/>
      <point x="298" y="425"/>
      <point x="320" y="407"/>
      <point x="320" y="388" type="curve" smooth="yes"/>
      <point x="320" y="360"/>
      <point x="257" y="377"/>
      <point x="257" y="322" type="curve" smooth="yes"/>
      <point x="257" y="299"/>
      <point x="275" y="277"/>
      <point x="306" y="277" type="curve" smooth="yes"/>
      <point x="340" y="277"/>
      <point x="363" y="301"/>
      <point x="363" y="341" type="curve" smooth="yes"/>
      <point x="363" y="396"/>
      <point x="315" y="443"/>
      <point x="232" y="443" type="curve" smooth="yes"/>
      <point x="104" y="443"/>
      <point x="40" y="354"/>
      <point x="40" y="270" type="curve" smooth="yes"/>
      <point x="40" y="151"/>
      <point x="113" y="89"/>
      <point x="225" y="89" type="curve" smooth="yes"/>
      <point x="319" y="89"/>
      <point x="375" y="147"/>
      <point x="375" y="223" type="curve"/>
    </contour>
  </outline>
</glyph>
<glyph name="currency" format="1">
  <advance width="448"/>
  <unicode hex="00A4"/>
  <outline>
    <contour>
      <point x="351" y="239" type="curve" smooth="yes"/>
      <point x="351" y="270"/>
      <point x="339" y="299"/>
      <point x="321" y="321" type="curve"/>
      <point x="408" y="408" type="line"/>
      <point x="394" y="422" type="line"/>
      <point x="306" y="335" type="line"/>
      <point x="284" y="354"/>
      <point x="255" y="365"/>
      <point x="224" y="365" type="curve" smooth="yes"/>
      <point x="192" y="365"/>
      <point x="163" y="354"/>
      <point x="141" y="335" type="curve"/>
      <point x="54" y="422" type="line"/>
      <point x="40" y="408" type="line"/>
      <point x="127" y="320" type="line"/>
      <point x="108" y="298"/>
      <point x="97" y="270"/>
      <point x="97" y="239" type="curve" smooth="yes"/>
      <point x="97" y="206"/>
      <point x="110" y="176"/>
      <point x="130" y="154" type="curve"/>
      <point x="40" y="64" type="line"/>
      <point x="54" y="50" type="line"/>
      <point x="144" y="140" type="line"/>
      <point x="166" y="123"/>
      <point x="194" y="112"/>
      <point x="224" y="112" type="curve" smooth="yes"/>
      <point x="254" y="112"/>
      <point x="282" y="123"/>
      <point x="303" y="140" type="curve"/>
      <point x="394" y="50" type="line"/>
      <point x="408" y="64" type="line"/>
      <point x="318" y="154" type="line"/>
      <point x="338" y="176"/>
      <point x="351" y="206"/>
    </contour>
    <contour>
      <point x="224" y="132" type="curve" smooth="yes"/>
      <point x="165" y="132"/>
      <point x="117" y="180"/>
      <point x="117" y="239" type="curve" smooth="yes"/>
      <point x="117" y="298"/>
      <point x="165" y="345"/>
      <point x="224" y="345" type="curve" smooth="yes"/>
      <point x="283" y="345"/>
      <point x="331" y="298"/>
      <point x="331" y="239" type="curve" smooth="yes"/>
      <point x="331" y="180"/>
      <point x="283" y="132"/>
    </contour>
  </outline>
</glyph>
<glyph name="yen" format="1">
  <advance width="616"/>
  <unicode hex="00A5"/>
  <outline>
    <contour>
      <point x="456" y="0" type="line"/>
      <point x="456" y="20" type="line"/>
      <point x="391" y="20" type="line"/>
      <point x="391" y="171" type="line"/>
      <point x="546" y="171" type="line"/>
      <point x="546" y="191" type="line"/>
      <point x="391" y="191" type="line"/>
      <point x="391" y="258" type="line"/>
      <point x="412" y="300" type="line"/>
      <point x="546" y="300" type="line"/>
      <point x="546" y="320" type="line"/>
      <point x="423" y="320" type="line"/>
      <point x="536" y="540" type="line"/>
      <point x="606" y="540" type="line"/>
      <point x="606" y="560" type="line"/>
      <point x="431" y="560" type="line"/>
      <point x="431" y="540" type="line"/>
      <point x="511" y="540" type="line"/>
      <point x="381" y="288" type="line"/>
      <point x="241" y="540" type="line"/>
      <point x="290" y="540" type="line"/>
      <point x="290" y="560" type="line"/>
      <point x="10" y="560" type="line"/>
      <point x="10" y="540" type="line"/>
      <point x="62" y="540" type="line"/>
      <point x="190" y="320" type="line"/>
      <point x="91" y="320" type="line"/>
      <point x="91" y="300" type="line"/>
      <point x="201" y="300" type="line"/>
      <point x="241" y="231" type="line"/>
      <point x="241" y="191" type="line"/>
      <point x="91" y="191" type="line"/>
      <point x="91" y="171" type="line"/>
      <point x="241" y="171" type="line"/>
      <point x="241" y="20" type="line"/>
      <point x="175" y="20" type="line"/>
      <point x="175" y="0" type="line"/>
    </contour>
  </outline>
</glyph>
<glyph name="brokenbar" format="1">
  <advance width="140"/>
  <unicode hex="00A6"/>
  <outline>
    <contour>
      <point x="60" y="0" type="line"/>
      <point x="80" y="0" type="line"/>
      <point x="80" y="227" type="line"/>
      <point x="60" y="227" type="line"/>
    </contour>
    <contour>
      <point x="60" y="333" type="line"/>
      <point x="80" y="333" type="line"/>
      <point x="80" y="560" type="line"/>
      <point x="60" y="560" type="line"/>
    </contour>
  </outline>
</glyph>
<glyph name="logicalnot" format="1">
  <advance width="505"/>
  <unicode hex="00AC"/>
  <outline>
    <contour>
      <point x="465" y="245" type="line"/>
      <point x="40" y="245" type="line"/>
      <point x="40" y="225" type="line"/>
      <point x="465" y="225" type="line"/>
    </contour>
    <contour>
      <point x="445" y="245" type="line"/>
      <point x="445" y="-1" type="line"/>
      <point x="465" y="-1" type="line"/>
      <point x="465" y="245" type="line"/>
    </contour>
  </outline>
</glyph>
<glyph name="registered" format="1">
  <advance width="336"/>
  <unicode hex="00AE"/>
  <outline>
    <contour>
      <point x="150" y="432" type="curve"/>
      <point x="190" y="432"/>
      <point x="167" y="360"/>
      <point x="217" y="360" type="curve" smooth="yes"/>
      <point x="224" y="360"/>
      <point x="243" y="362"/>
      <point x="250" y="366" type="curve"/>
      <point x="249" y="369" type="line"/>
      <point x="217" y="369"/>
      <point x="238" y="438"/>
      <point x="181" y="438" type="curve"/>
      <point x="214" y="440"/>
      <point x="228" y="454"/>
      <point x="228" y="473" type="curve" smooth="yes"/>
      <point x="228" y="502"/>
      <point x="197" y="512"/>
      <point x="155" y="512" type="curve" smooth="yes"/>
      <point x="92" y="512" type="line"/>
      <point x="92" y="502" type="line"/>
      <point x="106" y="502" type="line"/>
      <point x="106" y="374" type="line"/>
      <point x="92" y="374" type="line"/>
      <point x="92" y="364" type="line"/>
      <point x="92" y="364"/>
      <point x="136" y="364"/>
      <point x="166" y="364" type="curve"/>
      <point x="166" y="374" type="line"/>
      <point x="150" y="374" type="line"/>
      <point x="150" y="396"/>
      <point x="150" y="432"/>
    </contour>
    <contour>
      <point x="150" y="503" type="line"/>
      <point x="176" y="503"/>
      <point x="188" y="494"/>
      <point x="188" y="472" type="curve" smooth="yes"/>
      <point x="188" y="454"/>
      <point x="176" y="442"/>
      <point x="150" y="442" type="curve"/>
    </contour>
    <contour>
      <point x="304" y="436" type="curve" smooth="yes"/>
      <point x="304" y="511"/>
      <point x="249" y="573"/>
      <point x="167" y="573" type="curve" smooth="yes"/>
      <point x="86" y="573"/>
      <point x="30" y="511"/>
      <point x="30" y="436" type="curve" smooth="yes"/>
      <point x="30" y="360"/>
      <point x="86" y="298"/>
      <point x="167" y="298" type="curve" smooth="yes"/>
      <point x="248" y="298"/>
      <point x="304" y="360"/>
    </contour>
    <contour>
      <point x="167" y="556" type="curve" smooth="yes"/>
      <point x="237" y="556"/>
      <point x="287" y="501"/>
      <point x="287" y="436" type="curve" smooth="yes"/>
      <point x="287" y="370"/>
      <point x="237" y="316"/>
      <point x="167" y="316" type="curve" smooth="yes"/>
      <point x="97" y="316"/>
      <point x="47" y="370"/>
      <point x="47" y="436" type="curve" smooth="yes"/>
      <point x="47" y="501"/>
      <point x="97" y="556"/>
    </contour>
  </outline>
</glyph>
<glyph name="macron" format="1">
  <advance width="600"/>
  <unicode hex="00AF"/>
  <outline>
    <contour>
      <point x="400" y="607" type="line"/>
      <point x="200" y="607" type="line"/>
      <point x="200" y="557" type="line"/>
      <point x="400" y="557" type="line"/>
    </contour>
  </outline>
</glyph>
<glyph name="degree" format="1">
  <advance width="415"/>
  <unicode hex="00B0"/>
  <outline>
    <contour>
      <point x="207" y="590" type="curve"/>
      <point x="281" y="590"/>
      <point x="315" y="619"/>
      <point x="315" y="693" type="curve" smooth="yes"/>
      <point x="315" y="768"/>
      <point x="281" y="796"/>
      <point x="207" y="796" type="curve"/>
      <point x="132" y="796"/>
      <point x="100" y="768"/>
      <point x="100" y="693" type="curve" smooth="yes"/>
      <point x="100" y="619"/>
      <point x="132" y="590"/>
    </contour>
    <contour>
      <point x="207" y="610" type="curve"/>
      <point x="179" y="610"/>
      <point x="169" y="623"/>
      <point x="169" y="693" type="curve" smooth="yes"/>
      <point x="169" y="763"/>
      <point x="179" y="776"/>
      <point x="207" y="776" type="curve"/>
      <point x="235" y="776"/>
      <point x="246" y="763"/>
      <point x="246" y="693" type="curve"/>
      <point x="246" y="623"/>
      <point x="235" y="610"/>
    </contour>
  </outline>
</glyph>
<glyph name="plusminus" format="1">
  <advance width="505"/>
  <unicode hex="00B1"/>
  <outline>
    <contour>
      <point x="262" y="302" type="line"/>
      <point x="262" y="494" type="line"/>
      <point x="242" y="494" type="line"/>
      <point x="242" y="302" type="line"/>
      <point x="40" y="302" type="line"/>
      <point x="40" y="282" type="line"/>
      <point x="242" y="282" type="line"/>
      <point x="242" y="89" type="line"/>
      <point x="262" y="89" type="line"/>
      <point x="262" y="282" type="line"/>
      <point x="465" y="282" type="line"/>
      <point x="465" y="302" type="line"/>
    </contour>
    <contour>
      <point x="465" y="39" type="line"/>
      <point x="40" y="39" type="line"/>
      <point x="40" y="19" type="line"/>
      <point x="465" y="19" type="line"/>
    </contour>
  </outline>
</glyph>
<glyph name="threesuperior" format="1">
  <advance width="258"/>
  <unicode hex="00B3"/>
  <outline>
    <contour>
      <point x="113" y="567" type="curve" smooth="yes"/>
      <point x="70" y="567"/>
      <point x="46" y="543"/>
      <point x="46" y="514" type="curve" smooth="yes"/>
      <point x="46" y="494"/>
      <point x="57" y="482"/>
      <point x="75" y="482" type="curve" smooth="yes"/>
      <point x="91" y="482"/>
      <point x="100" y="493"/>
      <point x="100" y="505" type="curve" smooth="yes"/>
      <point x="100" y="530"/>
      <point x="68" y="521"/>
      <point x="68" y="535" type="curve" smooth="yes"/>
      <point x="68" y="545"/>
      <point x="80" y="555"/>
      <point x="100" y="555" type="curve" smooth="yes"/>
      <point x="127" y="555"/>
      <point x="142" y="537"/>
      <point x="142" y="511" type="curve" smooth="yes"/>
      <point x="142" y="492"/>
      <point x="132" y="464"/>
      <point x="94" y="464" type="curve" smooth="yes"/>
      <point x="88" y="464" type="line"/>
      <point x="88" y="450" type="line"/>
      <point x="94" y="450" type="line" smooth="yes"/>
      <point x="140" y="450"/>
      <point x="152" y="434"/>
      <point x="152" y="397" type="curve" smooth="yes"/>
      <point x="152" y="359"/>
      <point x="131" y="340"/>
      <point x="100" y="340" type="curve" smooth="yes"/>
      <point x="82" y="340"/>
      <point x="63" y="347"/>
      <point x="63" y="359" type="curve" smooth="yes"/>
      <point x="63" y="375"/>
      <point x="101" y="364"/>
      <point x="101" y="392" type="curve" smooth="yes"/>
      <point x="101" y="406"/>
      <point x="90" y="418"/>
      <point x="72" y="418" type="curve" smooth="yes"/>
      <point x="52" y="418"/>
      <point x="40" y="403"/>
      <point x="40" y="382" type="curve" smooth="yes"/>
      <point x="40" y="349"/>
      <point x="66" y="326"/>
      <point x="114" y="326" type="curve" smooth="yes"/>
      <point x="180" y="326"/>
      <point x="218" y="352"/>
      <point x="218" y="398" type="curve" smooth="yes"/>
      <point x="218" y="435"/>
      <point x="184" y="457"/>
      <point x="137" y="458" type="curve"/>
      <point x="182" y="460"/>
      <point x="204" y="484"/>
      <point x="204" y="512" type="curve" smooth="yes"/>
      <point x="204" y="548"/>
      <point x="176" y="567"/>
    </contour>
  </outline>
</glyph>
<glyph name="acute" format="1">
  <advance width="538"/>
  <unicode hex="00B4"/>
  <outline>
    <contour>
      <point x="200" y="511" type="curve"/>
      <point x="214" y="501" type="line"/>
      <point x="249" y="552"/>
      <point x="298" y="529"/>
      <point x="326" y="568" type="curve" smooth="yes"/>
      <point x="349" y="600"/>
      <point x="339" y="638"/>
      <point x="312" y="650" type="curve" smooth="yes"/>
      <point x="291" y="663"/>
      <point x="258" y="654"/>
      <point x="242" y="632" type="curve" smooth="yes"/>
      <point x="209" y="587"/>
      <point x="234" y="560"/>
    </contour>
  </outline>
</glyph>
<glyph name="mu.math" format="1">
  <advance width="595"/>
  <unicode hex="00B5"/>
  <outline>
    <contour>
      <point x="535" y="20" type="line"/>
      <point x="535" y="460" type="line"/>
      <point x="335" y="460" type="line"/>
      <point x="335" y="440" type="line"/>
      <point x="385" y="440" type="line"/>
      <point x="385" y="89" type="line"/>
      <point x="362" y="49"/>
      <point x="329" y="29"/>
      <point x="294" y="29" type="curve" smooth="yes"/>
      <point x="240" y="29"/>
      <point x="210" y="62"/>
      <point x="210" y="160" type="curve" smooth="yes"/>
      <point x="210" y="460" type="line"/>
      <point x="10" y="460" type="line"/>
      <point x="10" y="440" type="line"/>
      <point x="60" y="440" type="line"/>
      <point x="60" y="-210" type="line"/>
      <point x="210" y="-210" type="line"/>
      <point x="210" y="-10" type="line"/>
      <point x="219" y="-11"/>
      <point x="228" y="-11"/>
      <point x="238" y="-11" type="curve" smooth="yes"/>
      <point x="304" y="-11"/>
      <point x="361" y="19"/>
      <point x="385" y="53" type="curve"/>
      <point x="385" y="0" type="line"/>
      <point x="585" y="0" type="line"/>
      <point x="585" y="20" type="line"/>
    </contour>
  </outline>
</glyph>
<glyph name="paragraph" format="1">
  <advance width="467"/>
  <unicode hex="00B6"/>
  <outline>
    <contour>
      <point x="192" y="560" type="line"/>
      <point x="80" y="560"/>
      <point x="20" y="520"/>
      <point x="20" y="402" type="curve"/>
      <point x="20" y="290"/>
      <point x="80" y="234"/>
      <point x="192" y="234" type="curve"/>
    </contour>
    <contour>
      <point x="447" y="560" type="line"/>
      <point x="197" y="560" type="line"/>
      <point x="197" y="540" type="line"/>
      <point x="447" y="540" type="line"/>
    </contour>
    <contour>
      <point x="387" y="12" type="line"/>
      <point x="387" y="560" type="line"/>
      <point x="367" y="560" type="line"/>
      <point x="367" y="12" type="line"/>
    </contour>
    <contour>
      <point x="447" y="20" type="line"/>
      <point x="367" y="20" type="line"/>
      <point x="367" y="0" type="line"/>
      <point x="447" y="0" type="line"/>
    </contour>
    <contour>
      <point x="207" y="20" type="line"/>
      <point x="127" y="20" type="line"/>
      <point x="127" y="0" type="line"/>
      <point x="207" y="0" type="line"/>
    </contour>
    <contour>
      <point x="207" y="12" type="line"/>
      <point x="207" y="560" type="line"/>
      <point x="187" y="560" type="line"/>
      <point x="187" y="12" type="line"/>
    </contour>
  </outline>
</glyph>
<glyph name="periodcentered" format="1">
  <advance width="225"/>
  <unicode hex="00B7"/>
  <outline>
    <contour>
      <point x="113" y="145" type="curve" smooth="yes"/>
      <point x="168" y="145"/>
      <point x="213" y="191"/>
      <point x="213" y="244" type="curve" smooth="yes"/>
      <point x="213" y="299"/>
      <point x="168" y="344"/>
      <point x="113" y="344" type="curve" smooth="yes"/>
      <point x="60" y="344"/>
      <point x="14" y="299"/>
      <point x="14" y="244" type="curve" smooth="yes"/>
      <point x="14" y="191"/>
      <point x="60" y="145"/>
    </contour>
  </outline>
</glyph>
<glyph name="onequarter" format="1">
  <advance width="539"/>
  <unicode hex="00BC"/>
  <outline>
    <contour>
      <point x="487" y="115" type="line"/>
      <point x="487" y="38" type="line"/>
      <point x="499" y="38" type="line"/>
      <point x="499" y="115" type="line"/>
    </contour>
    <contour>
      <point x="497" y="82" type="line"/>
      <point x="258" y="82" type="line"/>
      <point x="258" y="72" type="line"/>
      <point x="497" y="72" type="line"/>
    </contour>
    <contour>
      <point x="375" y="4" type="line"/>
      <point x="450" y="4" type="line"/>
      <point x="450" y="291" type="line"/>
      <point x="400" y="291" type="line"/>
      <point x="258" y="82" type="line"/>
      <point x="271" y="82" type="line"/>
      <point x="375" y="236" type="line"/>
    </contour>
    <contour>
      <point x="483" y="10" type="line"/>
      <point x="343" y="10" type="line"/>
      <point x="343" y="0" type="line"/>
      <point x="483" y="0" type="line"/>
    </contour>
    <contour>
      <point x="194" y="279" type="line"/>
      <point x="44" y="279" type="line"/>
      <point x="44" y="269" type="line"/>
      <point x="194" y="269" type="line"/>
    </contour>
    <contour>
      <point x="159" y="269" type="line"/>
      <point x="159" y="560" type="line"/>
      <point x="141" y="560" type="line"/>
      <point x="40" y="514" type="line"/>
      <point x="43" y="504" type="line"/>
      <point x="84" y="520" type="line"/>
      <point x="84" y="269" type="line"/>
    </contour>
    <contour>
      <point x="100" y="0" type="line"/>
      <point x="121" y="0" type="line"/>
      <point x="421" y="561" type="line"/>
      <point x="400" y="561" type="line"/>
    </contour>
  </outline>
</glyph>
<glyph name="onehalf" format="1">
  <advance width="559"/>
  <unicode hex="00BD"/>
  <outline>
    <contour>
      <point x="510" y="103" type="line"/>
      <point x="507" y="75"/>
      <point x="485" y="73"/>
      <point x="459" y="73" type="curve" smooth="yes"/>
      <point x="433" y="73"/>
      <point x="413" y="86"/>
      <point x="382" y="86" type="curve" smooth="yes"/>
      <point x="370" y="86"/>
      <point x="357" y="83"/>
      <point x="348" y="76" type="curve"/>
      <point x="383" y="127"/>
      <point x="514" y="111"/>
      <point x="514" y="217" type="curve" smooth="yes"/>
      <point x="514" y="266"/>
      <point x="464" y="294"/>
      <point x="396" y="294" type="curve" smooth="yes"/>
      <point x="338" y="294"/>
      <point x="301" y="262"/>
      <point x="301" y="222" type="curve" smooth="yes"/>
      <point x="301" y="197"/>
      <point x="317" y="178"/>
      <point x="341" y="178" type="curve" smooth="yes"/>
      <point x="364" y="178"/>
      <point x="377" y="193"/>
      <point x="377" y="210" type="curve" smooth="yes"/>
      <point x="377" y="250"/>
      <point x="334" y="239"/>
      <point x="334" y="259" type="curve" smooth="yes"/>
      <point x="334" y="273"/>
      <point x="358" y="282"/>
      <point x="379" y="282" type="curve" smooth="yes"/>
      <point x="416" y="282"/>
      <point x="433" y="256"/>
      <point x="433" y="222" type="curve" smooth="yes"/>
      <point x="433" y="166"/>
      <point x="368" y="131"/>
      <point x="323" y="72" type="curve" smooth="yes"/>
      <point x="310" y="54"/>
      <point x="297" y="26"/>
      <point x="295" y="0" type="curve"/>
      <point x="305" y="0" type="line"/>
      <point x="310" y="21"/>
      <point x="322" y="33"/>
      <point x="342" y="33" type="curve" smooth="yes"/>
      <point x="378" y="33"/>
      <point x="410" y="-5"/>
      <point x="459" y="-5" type="curve" smooth="yes"/>
      <point x="503" y="-5"/>
      <point x="519" y="34"/>
      <point x="519" y="71" type="curve" smooth="yes"/>
      <point x="519" y="82"/>
      <point x="518" y="93"/>
      <point x="515" y="103" type="curve"/>
    </contour>
    <contour>
      <point x="194" y="279" type="line"/>
      <point x="44" y="279" type="line"/>
      <point x="44" y="269" type="line"/>
      <point x="194" y="269" type="line"/>
    </contour>
    <contour>
      <point x="159" y="269" type="line"/>
      <point x="159" y="560" type="line"/>
      <point x="141" y="560" type="line"/>
      <point x="40" y="514" type="line"/>
      <point x="43" y="504" type="line"/>
      <point x="84" y="520" type="line"/>
      <point x="84" y="269" type="line"/>
    </contour>
    <contour>
      <point x="100" y="0" type="line"/>
      <point x="121" y="0" type="line"/>
      <point x="421" y="561" type="line"/>
      <point x="400" y="561" type="line"/>
    </contour>
  </outline>
</glyph>
<glyph name="questiondown" format="1">
  <advance width="451"/>
  <unicode hex="00BF"/>
  <outline>
    <contour>
      <point x="250" y="464" type="curve" smooth="yes"/>
      <point x="208" y="464"/>
      <point x="173" y="429"/>
      <point x="173" y="389" type="curve" smooth="yes"/>
      <point x="173" y="347"/>
      <point x="208" y="313"/>
      <point x="250" y="313" type="curve" smooth="yes"/>
      <point x="290" y="313"/>
      <point x="325" y="347"/>
      <point x="325" y="389" type="curve" smooth="yes"/>
      <point x="325" y="429"/>
      <point x="290" y="464"/>
    </contour>
    <contour>
      <point x="249" y="-132" type="curve" smooth="yes"/>
      <point x="367" y="-132"/>
      <point x="442" y="-65"/>
      <point x="442" y="13" type="curve" smooth="yes"/>
      <point x="442" y="62"/>
      <point x="411" y="99"/>
      <point x="364" y="99" type="curve" smooth="yes"/>
      <point x="327" y="99"/>
      <point x="295" y="70"/>
      <point x="295" y="36" type="curve" smooth="yes"/>
      <point x="295" y="-41"/>
      <point x="369" y="-21"/>
      <point x="369" y="-59" type="curve" smooth="yes"/>
      <point x="369" y="-84"/>
      <point x="332" y="-108"/>
      <point x="289" y="-108" type="curve" smooth="yes"/>
      <point x="233" y="-108"/>
      <point x="185" y="-74"/>
      <point x="185" y="5" type="curve" smooth="yes"/>
      <point x="185" y="94"/>
      <point x="298" y="119"/>
      <point x="298" y="180" type="curve"/>
      <point x="298" y="215"/>
      <point x="291" y="236"/>
      <point x="262" y="279" type="curve"/>
      <point x="245" y="279" type="line"/>
      <point x="245" y="234"/>
      <point x="222" y="211"/>
      <point x="196" y="190" type="curve" smooth="yes"/>
      <point x="145" y="150"/>
      <point x="38" y="141"/>
      <point x="31" y="33" type="curve" smooth="yes"/>
      <point x="22" y="-91"/>
      <point x="132" y="-132"/>
    </contour>
  </outline>
</glyph>
<glyph name="AE" format="1">
  <advance width="820"/>
  <unicode hex="00C6"/>
  <outline>
    <contour>
      <point x="511" y="20" type="line"/>
      <point x="340" y="20" type="line"/>
      <point x="340" y="0" type="line"/>
      <point x="511" y="0" type="line"/>
    </contour>
    <contour>
      <point x="430" y="560" type="line"/>
      <point x="320" y="560" type="line"/>
      <point x="320" y="539" type="line"/>
      <point x="430" y="539" type="line"/>
    </contour>
    <contour>
      <point x="171" y="20" type="line"/>
      <point x="0" y="20" type="line"/>
      <point x="0" y="0" type="line"/>
      <point x="171" y="0" type="line"/>
    </contour>
    <contour>
      <point x="86" y="0" type="line"/>
      <point x="423" y="560" type="line"/>
      <point x="396" y="560" type="line"/>
      <point x="59" y="0" type="line"/>
    </contour>
    <contour>
      <point x="448" y="210" type="line"/>
      <point x="188" y="210" type="line"/>
      <point x="185" y="189" type="line"/>
      <point x="448" y="189" type="line"/>
    </contour>
    <contour>
      <point x="400" y="560" type="line"/>
      <point x="400" y="0" type="line"/>
      <point x="800" y="0" type="line"/>
      <point x="800" y="20" type="line"/>
      <point x="550" y="20" type="line"/>
      <point x="550" y="280" type="line"/>
      <point x="570" y="280" type="line"/>
      <point x="670" y="280"/>
      <point x="680" y="262"/>
      <point x="680" y="190" type="curve"/>
      <point x="700" y="190" type="line"/>
      <point x="700" y="390" type="line"/>
      <point x="680" y="390" type="line"/>
      <point x="680" y="322"/>
      <point x="670" y="300"/>
      <point x="570" y="300" type="curve"/>
      <point x="550" y="300" type="line"/>
      <point x="550" y="540" type="line"/>
      <point x="620" y="540" type="line"/>
      <point x="717" y="540"/>
      <point x="770" y="516"/>
      <point x="770" y="390" type="curve"/>
      <point x="790" y="390" type="line"/>
      <point x="790" y="560" type="line"/>
    </contour>
    <contour>
      <point x="780" y="190" type="line"/>
      <point x="780" y="54"/>
      <point x="707" y="20"/>
      <point x="630" y="20" type="curve"/>
      <point x="800" y="20" type="line"/>
      <point x="800" y="190" type="line"/>
    </contour>
  </outline>
</glyph>
<glyph name="multiply" format="1">
  <advance width="395"/>
  <unicode hex="00D7"/>
  <outline>
    <contour>
      <point x="212" y="230" type="line"/>
      <point x="355" y="373" type="line"/>
      <point x="340" y="387" type="line"/>
      <point x="198" y="244" type="line"/>
      <point x="55" y="387" type="line"/>
      <point x="41" y="373" type="line"/>
      <point x="183" y="230" type="line"/>
      <point x="40" y="87" type="line"/>
      <point x="54" y="73" type="line"/>
      <point x="198" y="216" type="line"/>
      <point x="341" y="73" type="line"/>
      <point x="355" y="87" type="line"/>
    </contour>
  </outline>
</glyph>
<glyph name="Oslash" format="1">
  <advance width="702"/>
  <unicode hex="00D8"/>
  <outline>
    <contour>
      <point x="74" y="-10" type="line"/>
      <point x="642" y="558" type="line"/>
      <point x="627" y="572" type="line"/>
      <point x="60" y="5" type="line"/>
    </contour>
    <contour>
      <point x="351" y="552" type="curve" smooth="yes"/>
      <point x="433" y="552"/>
      <point x="481" y="451"/>
      <point x="481" y="281" type="curve"/>
      <point x="481" y="105"/>
      <point x="437" y="10"/>
      <point x="351" y="10" type="curve" smooth="yes"/>
      <point x="268" y="10"/>
      <point x="221" y="105"/>
      <point x="221" y="281" type="curve"/>
      <point x="221" y="451"/>
      <point x="271" y="552"/>
    </contour>
    <contour>
      <point x="351" y="-10" type="curve" smooth="yes"/>
      <point x="513" y="-10"/>
      <point x="642" y="82"/>
      <point x="642" y="281" type="curve"/>
      <point x="642" y="456"/>
      <point x="531" y="572"/>
      <point x="351" y="572" type="curve" smooth="yes"/>
      <point x="177" y="572"/>
      <point x="60" y="456"/>
      <point x="60" y="281" type="curve"/>
      <point x="60" y="82"/>
      <point x="184" y="-10"/>
    </contour>
  </outline>
</glyph>
<glyph name="Oslash" format="1">
  <advance width="702"/>
  <unicode hex="00D8"/>
  <outline>
    <contour>
      <point x="74" y="-10" type="line"/>
      <point x="642" y="558" type="line"/>
      <point x="627" y="572" type="line"/>
      <point x="60" y="5" type="line"/>
    </contour>
    <contour>
      <point x="351" y="552" type="curve" smooth="yes"/>
      <point x="433" y="552"/>
      <point x="481" y="451"/>
      <point x="481" y="281" type="curve"/>
      <point x="481" y="105"/>
      <point x="437" y="10"/>
      <point x="351" y="10" type="curve" smooth="yes"/>
      <point x="268" y="10"/>
      <point x="221" y="105"/>
      <point x="221" y="281" type="curve"/>
      <point x="221" y="451"/>
      <point x="271" y="552"/>
    </contour>
    <contour>
      <point x="351" y="-10" type="curve" smooth="yes"/>
      <point x="513" y="-10"/>
      <point x="642" y="82"/>
      <point x="642" y="281" type="curve"/>
      <point x="642" y="456"/>
      <point x="531" y="572"/>
      <point x="351" y="572" type="curve" smooth="yes"/>
      <point x="177" y="572"/>
      <point x="60" y="456"/>
      <point x="60" y="281" type="curve"/>
      <point x="60" y="82"/>
      <point x="184" y="-10"/>
    </contour>
  </outline>
</glyph>
<glyph name="Thorn" format="1">
  <advance width="543"/>
  <unicode hex="00DE"/>
  <outline>
    <contour>
      <point x="240" y="463" type="curve"/>
      <point x="240" y="540" type="line"/>
      <point x="290" y="540" type="line"/>
      <point x="290" y="560" type="line"/>
      <point x="40" y="560" type="line"/>
      <point x="40" y="540" type="line"/>
      <point x="90" y="540" type="line"/>
      <point x="90" y="20" type="line"/>
      <point x="40" y="20" type="line"/>
      <point x="40" y="0" type="line"/>
      <point x="290" y="0" type="line"/>
      <point x="290" y="20" type="line"/>
      <point x="240" y="20" type="line"/>
      <point x="240" y="97" type="line"/>
      <point x="438" y="87"/>
      <point x="533" y="157"/>
      <point x="533" y="274" type="curve" smooth="yes"/>
      <point x="533" y="402"/>
      <point x="447" y="473"/>
    </contour>
    <contour>
      <point x="240" y="117" type="curve"/>
      <point x="240" y="443" type="line"/>
      <point x="352" y="443"/>
      <point x="382" y="393"/>
      <point x="382" y="275" type="curve" smooth="yes"/>
      <point x="382" y="163"/>
      <point x="352" y="117"/>
    </contour>
  </outline>
</glyph>
<glyph name="Thorn" format="1">
  <advance width="543"/>
  <unicode hex="00DE"/>
  <outline>
    <contour>
      <point x="240" y="463" type="curve"/>
      <point x="240" y="540" type="line"/>
      <point x="290" y="540" type="line"/>
      <point x="290" y="560" type="line"/>
      <point x="40" y="560" type="line"/>
      <point x="40" y="540" type="line"/>
      <point x="90" y="540" type="line"/>
      <point x="90" y="20" type="line"/>
      <point x="40" y="20" type="line"/>
      <point x="40" y="0" type="line"/>
      <point x="290" y="0" type="line"/>
      <point x="290" y="20" type="line"/>
      <point x="240" y="20" type="line"/>
      <point x="240" y="97" type="line"/>
      <point x="438" y="87"/>
      <point x="533" y="157"/>
      <point x="533" y="274" type="curve" smooth="yes"/>
      <point x="533" y="402"/>
      <point x="447" y="473"/>
    </contour>
    <contour>
      <point x="240" y="117" type="curve"/>
      <point x="240" y="443" type="line"/>
      <point x="352" y="443"/>
      <point x="382" y="393"/>
      <point x="382" y="275" type="curve" smooth="yes"/>
      <point x="382" y="163"/>
      <point x="352" y="117"/>
    </contour>
  </outline>
</glyph>
<glyph name="germandbls" format="1">
  <advance width="694"/>
  <unicode hex="00DF"/>
  <outline>
    <contour>
      <point x="359" y="659" type="curve" smooth="yes"/>
      <point x="430" y="659"/>
      <point x="471" y="626"/>
      <point x="481" y="574" type="curve" smooth="yes"/>
      <point x="491" y="521"/>
      <point x="470" y="479"/>
      <point x="432" y="458" type="curve" smooth="yes"/>
      <point x="340" y="407"/>
      <point x="280" y="370"/>
      <point x="300" y="287" type="curve" smooth="yes"/>
      <point x="329" y="168"/>
      <point x="558" y="216"/>
      <point x="558" y="76" type="curve" smooth="yes"/>
      <point x="558" y="27"/>
      <point x="517" y="9"/>
      <point x="479" y="9" type="curve" smooth="yes"/>
      <point x="443" y="9"/>
      <point x="391" y="20"/>
      <point x="391" y="50" type="curve" smooth="yes"/>
      <point x="391" y="75"/>
      <point x="434" y="74"/>
      <point x="434" y="118" type="curve" smooth="yes"/>
      <point x="434" y="150"/>
      <point x="408" y="175"/>
      <point x="369" y="175" type="curve" smooth="yes"/>
      <point x="324" y="175"/>
      <point x="301" y="142"/>
      <point x="301" y="105" type="curve" smooth="yes"/>
      <point x="301" y="33"/>
      <point x="386" y="-11"/>
      <point x="478" y="-11" type="curve" smooth="yes"/>
      <point x="586" y="-11"/>
      <point x="684" y="56"/>
      <point x="684" y="150" type="curve" smooth="yes"/>
      <point x="684" y="315"/>
      <point x="456" y="291"/>
      <point x="410" y="369" type="curve" smooth="yes"/>
      <point x="396" y="393"/>
      <point x="411" y="423"/>
      <point x="447" y="442" type="curve" smooth="yes"/>
      <point x="542" y="493"/>
      <point x="614" y="527"/>
      <point x="594" y="591" type="curve" smooth="yes"/>
      <point x="573" y="658"/>
      <point x="455" y="680"/>
      <point x="358" y="680" type="curve"/>
      <point x="229" y="680"/>
      <point x="90" y="622"/>
      <point x="90" y="460" type="curve"/>
      <point x="40" y="460" type="line"/>
      <point x="40" y="440" type="line"/>
      <point x="90" y="440" type="line"/>
      <point x="90" y="20" type="line"/>
      <point x="40" y="20" type="line"/>
      <point x="40" y="0" type="line"/>
      <point x="290" y="0" type="line"/>
      <point x="290" y="20" type="line"/>
      <point x="240" y="20" type="line"/>
      <point x="240" y="460" type="line"/>
      <point x="240" y="595"/>
      <point x="282" y="659"/>
    </contour>
  </outline>
</glyph>
<glyph name="ae" format="1">
  <advance width="792"/>
  <unicode hex="00E6"/>
  <outline>
    <contour>
      <point x="535" y="450" type="curve"/>
      <point x="598" y="450"/>
      <point x="617" y="322"/>
      <point x="617" y="220" type="curve"/>
      <point x="455" y="220" type="line"/>
      <point x="455" y="270" type="line"/>
      <point x="459" y="355"/>
      <point x="480" y="450"/>
    </contour>
    <contour>
      <point x="245" y="34" type="curve" smooth="yes"/>
      <point x="217" y="34"/>
      <point x="177" y="58"/>
      <point x="170" y="113" type="curve"/>
      <point x="164" y="187"/>
      <point x="214" y="222"/>
      <point x="269" y="229" type="curve" smooth="yes"/>
      <point x="305" y="234" type="line"/>
      <point x="305" y="162"/>
      <point x="314" y="107"/>
      <point x="344" y="61" type="curve"/>
      <point x="342" y="59"/>
      <point x="339" y="58"/>
      <point x="336" y="56" type="curve" smooth="yes"/>
      <point x="313" y="43"/>
      <point x="281" y="34"/>
    </contour>
    <contour>
      <point x="747" y="75" type="curve"/>
      <point x="733" y="85" type="line"/>
      <point x="704" y="42"/>
      <point x="628" y="24"/>
      <point x="592" y="24" type="curve"/>
      <point x="499" y="24"/>
      <point x="461" y="61"/>
      <point x="455" y="188" type="curve"/>
      <point x="455" y="200" type="line"/>
      <point x="760" y="200" type="line"/>
      <point x="760" y="405"/>
      <point x="648" y="470"/>
      <point x="543" y="470" type="curve"/>
      <point x="494" y="470"/>
      <point x="433" y="453"/>
      <point x="401" y="421" type="curve"/>
      <point x="367" y="455"/>
      <point x="311" y="468"/>
      <point x="260" y="468" type="curve"/>
      <point x="220" y="468"/>
      <point x="189" y="464"/>
      <point x="163" y="456" type="curve" smooth="yes"/>
      <point x="87" y="432"/>
      <point x="52" y="389"/>
      <point x="52" y="346" type="curve"/>
      <point x="52" y="298"/>
      <point x="86" y="270"/>
      <point x="126" y="270" type="curve"/>
      <point x="167" y="270"/>
      <point x="200" y="303"/>
      <point x="200" y="344" type="curve"/>
      <point x="200" y="363"/>
      <point x="193" y="390"/>
      <point x="181" y="403" type="curve"/>
      <point x="167" y="420"/>
      <point x="183" y="449"/>
      <point x="234" y="449" type="curve"/>
      <point x="297" y="449"/>
      <point x="305" y="411"/>
      <point x="305" y="302" type="curve"/>
      <point x="305" y="253" type="line"/>
      <point x="265" y="248" type="line" smooth="yes"/>
      <point x="86" y="227"/>
      <point x="21" y="179"/>
      <point x="31" y="93" type="curve"/>
      <point x="41" y="13"/>
      <point x="109" y="-8"/>
      <point x="187" y="-8" type="curve"/>
      <point x="247" y="-8"/>
      <point x="317" y="6"/>
      <point x="356" y="46" type="curve"/>
      <point x="389" y="10"/>
      <point x="469" y="-10"/>
      <point x="565" y="-10" type="curve"/>
      <point x="636" y="-10"/>
      <point x="717" y="25"/>
    </contour>
  </outline>
</glyph>
<glyph name="idieresis" format="1">
  <advance width="320"/>
  <unicode hex="00EF"/>
  <outline>
    <contour>
      <point x="290" y="20" type="line"/>
      <point x="40" y="20" type="line"/>
      <point x="40" y="0" type="line"/>
      <point x="290" y="0" type="line"/>
    </contour>
    <contour>
      <point x="230" y="460" type="line"/>
      <point x="50" y="460" type="line"/>
      <point x="50" y="440" type="line"/>
      <point x="230" y="440" type="line"/>
    </contour>
    <contour>
      <point x="240" y="460" type="line"/>
      <point x="90" y="460" type="line"/>
      <point x="90" y="1" type="line"/>
      <point x="240" y="1" type="line"/>
    </contour>
    <component base="dieresis" xOffset="-193"/>
  </outline>
</glyph>
<glyph name="divide" format="1">
  <advance width="485"/>
  <unicode hex="00F7"/>
  <outline>
    <contour>
      <point x="184" y="102" type="curve" smooth="yes"/>
      <point x="184" y="70"/>
      <point x="209" y="45"/>
      <point x="241" y="45" type="curve" smooth="yes"/>
      <point x="272" y="45"/>
      <point x="298" y="70"/>
      <point x="298" y="102" type="curve" smooth="yes"/>
      <point x="298" y="133"/>
      <point x="272" y="159"/>
      <point x="241" y="159" type="curve" smooth="yes"/>
      <point x="209" y="159"/>
      <point x="184" y="133"/>
    </contour>
    <contour>
      <point x="184" y="362" type="curve" smooth="yes"/>
      <point x="184" y="331"/>
      <point x="209" y="305"/>
      <point x="241" y="305" type="curve" smooth="yes"/>
      <point x="272" y="305"/>
      <point x="298" y="331"/>
      <point x="298" y="362" type="curve" smooth="yes"/>
      <point x="298" y="393"/>
      <point x="272" y="419"/>
      <point x="241" y="419" type="curve" smooth="yes"/>
      <point x="209" y="419"/>
      <point x="184" y="393"/>
    </contour>
    <contour>
      <point x="445" y="222" type="line"/>
      <point x="40" y="222" type="line"/>
      <point x="40" y="242" type="line"/>
      <point x="445" y="242" type="line"/>
    </contour>
  </outline>
</glyph>
<glyph name="oslash" format="1">
  <advance width="564"/>
  <unicode hex="00F8"/>
  <outline>
    <contour>
      <point x="44" y="-10" type="line"/>
      <point x="534" y="456" type="line"/>
      <point x="520" y="470" type="line"/>
      <point x="30" y="4" type="line"/>
    </contour>
    <contour>
      <point x="281" y="10" type="curve"/>
      <point x="208" y="10"/>
      <point x="183" y="75"/>
      <point x="183" y="228" type="curve" smooth="yes"/>
      <point x="183" y="385"/>
      <point x="208" y="450"/>
      <point x="281" y="450" type="curve"/>
      <point x="354" y="450"/>
      <point x="381" y="385"/>
      <point x="381" y="228" type="curve"/>
      <point x="381" y="75"/>
      <point x="354" y="10"/>
    </contour>
    <contour>
      <point x="281" y="-10" type="curve"/>
      <point x="396" y="-10"/>
      <point x="534" y="64"/>
      <point x="534" y="228" type="curve" smooth="yes"/>
      <point x="534" y="398"/>
      <point x="396" y="470"/>
      <point x="281" y="470" type="curve"/>
      <point x="166" y="470"/>
      <point x="30" y="398"/>
      <point x="30" y="228" type="curve" smooth="yes"/>
      <point x="30" y="64"/>
      <point x="166" y="-10"/>
    </contour>
  </outline>
</glyph>
<glyph name="thorn" format="1">
  <advance width="598"/>
  <unicode hex="00FE"/>
  <outline>
    <contour>
      <point x="240" y="46" type="line"/>
      <point x="263" y="-4"/>
      <point x="319" y="-12"/>
      <point x="369" y="-12" type="curve" smooth="yes"/>
      <point x="470" y="-12"/>
      <point x="568" y="70"/>
      <point x="568" y="230" type="curve"/>
      <point x="568" y="398"/>
      <point x="472" y="482"/>
      <point x="369" y="482" type="curve" smooth="yes"/>
      <point x="319" y="482"/>
      <point x="263" y="462"/>
      <point x="240" y="414" type="curve"/>
      <point x="240" y="670" type="line"/>
      <point x="90" y="670" type="line"/>
      <point x="90" y="-209" type="line"/>
      <point x="240" y="-209" type="line"/>
    </contour>
    <contour>
      <point x="240" y="387" type="line"/>
      <point x="259" y="426"/>
      <point x="284" y="445"/>
      <point x="307" y="445" type="curve" smooth="yes"/>
      <point x="364" y="445"/>
      <point x="416" y="384"/>
      <point x="416" y="229" type="curve"/>
      <point x="416" y="74"/>
      <point x="361" y="18"/>
      <point x="307" y="18" type="curve" smooth="yes"/>
      <point x="284" y="18"/>
      <point x="258" y="32"/>
      <point x="240" y="68" type="curve"/>
    </contour>
    <contour>
      <point x="290" y="-190" type="line"/>
      <point x="40" y="-190" type="line"/>
      <point x="40" y="-210" type="line"/>
      <point x="290" y="-210" type="line"/>
    </contour>
    <contour>
      <point x="230" y="670" type="line"/>
      <point x="40" y="670" type="line"/>
      <point x="40" y="650" type="line"/>
      <point x="230" y="650" type="line"/>
    </contour>
  </outline>
</glyph>
<glyph name="Dcroat" format="1">
  <advance width="625"/>
  <unicode hex="0110"/>
  <outline>
    <contour>
      <point x="357" y="298" type="line"/>
      <point x="40" y="298" type="line"/>
      <point x="40" y="278" type="line"/>
      <point x="357" y="278" type="line"/>
    </contour>
    <contour>
      <point x="240" y="20" type="curve"/>
      <point x="240" y="540" type="line"/>
      <point x="377" y="540"/>
      <point x="444" y="439"/>
      <point x="444" y="281" type="curve" smooth="yes"/>
      <point x="444" y="85"/>
      <point x="381" y="20"/>
    </contour>
    <contour>
      <point x="290" y="0" type="line"/>
      <point x="497" y="0"/>
      <point x="595" y="94"/>
      <point x="595" y="283" type="curve" smooth="yes"/>
      <point x="595" y="416"/>
      <point x="495" y="560"/>
      <point x="290" y="560" type="curve" smooth="yes"/>
      <point x="40" y="560" type="line"/>
      <point x="40" y="540" type="line"/>
      <point x="90" y="540" type="line"/>
      <point x="90" y="20" type="line"/>
      <point x="40" y="20" type="line"/>
      <point x="40" y="0" type="line"/>
    </contour>
  </outline>
</glyph>
<glyph name="dcroat" format="1">
  <advance width="598"/>
  <unicode hex="0111"/>
  <outline>
    <contour>
      <point x="558" y="582" type="line"/>
      <point x="198" y="582" type="line"/>
      <point x="198" y="562" type="line"/>
      <point x="558" y="562" type="line"/>
    </contour>
    <contour>
      <point x="498" y="670" type="line"/>
      <point x="308" y="670" type="line"/>
      <point x="308" y="650" type="line"/>
      <point x="498" y="650" type="line"/>
    </contour>
    <contour>
      <point x="388" y="230" type="curve"/>
      <point x="388" y="73"/>
      <point x="335" y="18"/>
      <point x="291" y="18" type="curve" smooth="yes"/>
      <point x="237" y="18"/>
      <point x="182" y="74"/>
      <point x="182" y="229" type="curve"/>
      <point x="182" y="384"/>
      <point x="234" y="445"/>
      <point x="291" y="445" type="curve" smooth="yes"/>
      <point x="335" y="445"/>
      <point x="388" y="375"/>
    </contour>
    <contour>
      <point x="358" y="46" type="curve"/>
      <point x="358" y="1" type="line"/>
      <point x="508" y="1" type="line"/>
      <point x="508" y="670" type="line"/>
      <point x="358" y="670" type="line"/>
      <point x="358" y="414" type="line"/>
      <point x="335" y="462"/>
      <point x="279" y="482"/>
      <point x="229" y="482" type="curve" smooth="yes"/>
      <point x="126" y="482"/>
      <point x="30" y="398"/>
      <point x="30" y="230" type="curve"/>
      <point x="30" y="70"/>
      <point x="128" y="-12"/>
      <point x="229" y="-12" type="curve" smooth="yes"/>
      <point x="279" y="-12"/>
      <point x="335" y="-4"/>
    </contour>
    <contour>
      <point x="558" y="20" type="line"/>
      <point x="358" y="20" type="line"/>
      <point x="358" y="0" type="line"/>
      <point x="558" y="0" type="line"/>
    </contour>
  </outline>
</glyph>
<glyph name="gbreve" format="1">
  <advance width="538"/>
  <unicode hex="011F"/>
  <outline>
    <contour>
      <point x="368" y="61" type="curve"/>
      <point x="196" y="61" type="line"/>
      <point x="196" y="61"/>
      <point x="160" y="61"/>
      <point x="160" y="93" type="curve" smooth="yes"/>
      <point x="160" y="134"/>
      <point x="187" y="159"/>
      <point x="187" y="159" type="curve"/>
      <point x="187" y="159"/>
      <point x="179" y="162"/>
      <point x="172" y="160" type="curve" smooth="yes"/>
      <point x="141" y="152"/>
      <point x="64" y="98"/>
      <point x="64" y="30" type="curve" smooth="yes"/>
      <point x="64" y="-42"/>
      <point x="127" y="-69"/>
      <point x="194" y="-69" type="curve"/>
      <point x="362" y="-69" type="line" smooth="yes"/>
      <point x="473" y="-69"/>
      <point x="487" y="-117"/>
      <point x="434" y="-157" type="curve" smooth="yes"/>
      <point x="405" y="-179"/>
      <point x="360" y="-201"/>
      <point x="288" y="-201" type="curve" smooth="yes"/>
      <point x="172" y="-201"/>
      <point x="86" y="-147"/>
      <point x="116" y="-38" type="curve"/>
      <point x="85" y="-39"/>
      <point x="36" y="-61"/>
      <point x="31" y="-115" type="curve" smooth="yes"/>
      <point x="23" y="-197"/>
      <point x="157" y="-221"/>
      <point x="288" y="-221" type="curve"/>
      <point x="440" y="-221"/>
      <point x="506" y="-129"/>
      <point x="516" y="-75" type="curve" smooth="yes"/>
      <point x="530" y="-1"/>
      <point x="493" y="61"/>
    </contour>
    <contour>
      <point x="261" y="449" type="curve" smooth="yes"/>
      <point x="315" y="449"/>
      <point x="345" y="423"/>
      <point x="345" y="298" type="curve" smooth="yes"/>
      <point x="345" y="184"/>
      <point x="315" y="150"/>
      <point x="264" y="150" type="curve" smooth="yes"/>
      <point x="219" y="150"/>
      <point x="190" y="185"/>
      <point x="190" y="299" type="curve" smooth="yes"/>
      <point x="190" y="424"/>
      <point x="220" y="449"/>
    </contour>
    <contour>
      <point x="495" y="297" type="curve" smooth="yes"/>
      <point x="495" y="414"/>
      <point x="376" y="469"/>
      <point x="273" y="469" type="curve" smooth="yes"/>
      <point x="162" y="469"/>
      <point x="30" y="416"/>
      <point x="30" y="299" type="curve" smooth="yes"/>
      <point x="30" y="187"/>
      <point x="133" y="130"/>
      <point x="256" y="130" type="curve" smooth="yes"/>
      <point x="374" y="130"/>
      <point x="495" y="184"/>
    </contour>
    <component base="breve" xOffset="-25" yOffset="-1"/>
  </outline>
</glyph>
<glyph name="iogonek" format="1">
  <advance width="320"/>
  <unicode hex="012F"/>
  <outline>
    <contour>
      <point x="249" y="592" type="curve" smooth="yes"/>
      <point x="249" y="641"/>
      <point x="210" y="681"/>
      <point x="162" y="681" type="curve" smooth="yes"/>
      <point x="113" y="681"/>
      <point x="73" y="641"/>
      <point x="73" y="592" type="curve" smooth="yes"/>
      <point x="73" y="544"/>
      <point x="113" y="505"/>
      <point x="162" y="505" type="curve" smooth="yes"/>
      <point x="210" y="505"/>
      <point x="249" y="544"/>
    </contour>
    <contour>
      <point x="290" y="20" type="line"/>
      <point x="40" y="20" type="line"/>
      <point x="40" y="0" type="line"/>
      <point x="290" y="0" type="line"/>
    </contour>
    <contour>
      <point x="240" y="460" type="line"/>
      <point x="240" y="460"/>
      <point x="90" y="460"/>
      <point x="90" y="460" type="curve"/>
      <point x="90" y="1" type="line"/>
      <point x="240" y="1" type="line"/>
    </contour>
    <contour>
      <point x="230" y="460" type="line"/>
      <point x="50" y="460" type="line"/>
      <point x="50" y="440" type="line"/>
      <point x="230" y="440" type="line"/>
    </contour>
    <component base="ogonek" xOffset="-110"/>
  </outline>
</glyph>
<glyph name="lcaron" format="1">
  <advance width="408"/>
  <unicode hex="013E"/>
  <outline>
    <contour>
      <point x="240" y="670" type="line"/>
      <point x="90" y="670" type="line"/>
      <point x="90" y="1" type="line"/>
      <point x="240" y="1" type="line"/>
    </contour>
    <contour>
      <point x="290" y="20" type="line"/>
      <point x="40" y="20" type="line"/>
      <point x="40" y="0" type="line"/>
      <point x="290" y="0" type="line"/>
    </contour>
    <contour>
      <point x="230" y="670" type="line"/>
      <point x="40" y="670" type="line"/>
      <point x="40" y="650" type="line"/>
      <point x="230" y="650" type="line"/>
    </contour>
    <component base="quoteright" xScale="0.740000009537" yScale="0.740000009537" xOffset="273" yOffset="173"/>
  </outline>
</glyph>
<glyph name="Lslash" format="1">
  <advance width="530"/>
  <unicode hex="0141"/>
  <outline>
    <contour>
      <point x="380" y="470" type="line"/>
      <point x="20" y="280" type="line"/>
      <point x="20" y="255" type="line"/>
      <point x="380" y="445" type="line"/>
    </contour>
    <contour>
      <point x="510" y="190" type="line"/>
      <point x="510" y="20" type="line"/>
      <point x="340" y="20" type="line"/>
      <point x="417" y="20"/>
      <point x="490" y="34"/>
      <point x="490" y="190" type="curve"/>
    </contour>
    <contour>
      <point x="300" y="560" type="line"/>
      <point x="40" y="560" type="line"/>
      <point x="40" y="540" type="line"/>
      <point x="300" y="540" type="line"/>
    </contour>
    <contour>
      <point x="510" y="20" type="line"/>
      <point x="40" y="20" type="line"/>
      <point x="40" y="0" type="line"/>
      <point x="510" y="0" type="line"/>
    </contour>
    <contour>
      <point x="240" y="560" type="line"/>
      <point x="90" y="560" type="line"/>
      <point x="90" y="1" type="line"/>
      <point x="240" y="1" type="line"/>
    </contour>
  </outline>
</glyph>
<glyph name="Lslash" format="1">
  <advance width="530"/>
  <unicode hex="0141"/>
  <outline>
    <contour>
      <point x="380" y="470" type="line"/>
      <point x="20" y="280" type="line"/>
      <point x="20" y="255" type="line"/>
      <point x="380" y="445" type="line"/>
    </contour>
    <contour>
      <point x="510" y="190" type="line"/>
      <point x="510" y="20" type="line"/>
      <point x="340" y="20" type="line"/>
      <point x="417" y="20"/>
      <point x="490" y="34"/>
      <point x="490" y="190" type="curve"/>
    </contour>
    <contour>
      <point x="300" y="560" type="line"/>
      <point x="40" y="560" type="line"/>
      <point x="40" y="540" type="line"/>
      <point x="300" y="540" type="line"/>
    </contour>
    <contour>
      <point x="510" y="20" type="line"/>
      <point x="40" y="20" type="line"/>
      <point x="40" y="0" type="line"/>
      <point x="510" y="0" type="line"/>
    </contour>
    <contour>
      <point x="240" y="560" type="line"/>
      <point x="90" y="560" type="line"/>
      <point x="90" y="1" type="line"/>
      <point x="240" y="1" type="line"/>
    </contour>
  </outline>
</glyph>
<glyph name="lslash" format="1">
  <advance width="360"/>
  <unicode hex="0142"/>
  <outline>
    <contour>
      <point x="330" y="470" type="line"/>
      <point x="40" y="280" type="line"/>
      <point x="40" y="255" type="line"/>
      <point x="330" y="445" type="line"/>
    </contour>
    <contour>
      <point x="260" y="670" type="line"/>
      <point x="110" y="670" type="line"/>
      <point x="110" y="1" type="line"/>
      <point x="260" y="1" type="line"/>
    </contour>
    <contour>
      <point x="250" y="670" type="line"/>
      <point x="60" y="670" type="line"/>
      <point x="60" y="650" type="line"/>
      <point x="250" y="650" type="line"/>
    </contour>
    <contour>
      <point x="310" y="20" type="line"/>
      <point x="60" y="20" type="line"/>
      <point x="60" y="0" type="line"/>
      <point x="310" y="0" type="line"/>
    </contour>
  </outline>
</glyph>
<glyph name="OE" format="1">
  <advance width="820"/>
  <unicode hex="0152"/>
  <outline>
    <contour>
      <point x="321" y="20" type="line"/>
      <point x="238" y="20"/>
      <point x="191" y="105"/>
      <point x="191" y="271" type="curve"/>
      <point x="190" y="449"/>
      <point x="241" y="540"/>
      <point x="321" y="540" type="curve"/>
      <point x="370" y="540" type="line"/>
      <point x="370" y="20" type="line"/>
    </contour>
    <contour>
      <point x="750" y="190" type="line"/>
      <point x="750" y="54"/>
      <point x="677" y="20"/>
      <point x="600" y="20" type="curve"/>
      <point x="770" y="20" type="line"/>
      <point x="770" y="190" type="line"/>
    </contour>
    <contour>
      <point x="321" y="0" type="curve" smooth="yes"/>
      <point x="770" y="0" type="line"/>
      <point x="770" y="20" type="line"/>
      <point x="520" y="20" type="line"/>
      <point x="520" y="280" type="line"/>
      <point x="540" y="280" type="line"/>
      <point x="640" y="280"/>
      <point x="650" y="262"/>
      <point x="650" y="190" type="curve"/>
      <point x="670" y="190" type="line"/>
      <point x="670" y="390" type="line"/>
      <point x="650" y="390" type="line"/>
      <point x="650" y="322"/>
      <point x="640" y="300"/>
      <point x="540" y="300" type="curve"/>
      <point x="520" y="300" type="line"/>
      <point x="520" y="540" type="line"/>
      <point x="590" y="540" type="line"/>
      <point x="687" y="540"/>
      <point x="740" y="516"/>
      <point x="740" y="390" type="curve"/>
      <point x="760" y="390" type="line"/>
      <point x="760" y="560" type="line"/>
      <point x="321" y="560" type="line"/>
      <point x="147" y="560"/>
      <point x="29" y="454"/>
      <point x="30" y="271" type="curve"/>
      <point x="30" y="82"/>
      <point x="154" y="0"/>
    </contour>
  </outline>
</glyph>
<glyph name="oe" format="1">
  <advance width="874"/>
  <unicode hex="0153"/>
  <outline>
    <contour>
      <point x="673" y="24" type="curve"/>
      <point x="600" y="24"/>
      <point x="535" y="69"/>
      <point x="535" y="231" type="curve" smooth="yes"/>
      <point x="535" y="323"/>
      <point x="552" y="450"/>
      <point x="616" y="450" type="curve"/>
      <point x="679" y="450"/>
      <point x="698" y="322"/>
      <point x="698" y="220" type="curve"/>
      <point x="698" y="220"/>
      <point x="491" y="220"/>
      <point x="491" y="220" type="curve"/>
      <point x="491" y="200" type="line"/>
      <point x="841" y="200" type="line"/>
      <point x="841" y="405"/>
      <point x="729" y="470"/>
      <point x="624" y="470" type="curve"/>
      <point x="509" y="470"/>
      <point x="386" y="406"/>
      <point x="386" y="232" type="curve" smooth="yes"/>
      <point x="386" y="33"/>
      <point x="524" y="-10"/>
      <point x="646" y="-10" type="curve"/>
      <point x="717" y="-10"/>
      <point x="798" y="25"/>
      <point x="828" y="75" type="curve"/>
      <point x="814" y="85" type="line"/>
      <point x="785" y="42"/>
      <point x="709" y="24"/>
    </contour>
    <contour>
      <point x="281" y="-10" type="curve"/>
      <point x="396" y="-10"/>
      <point x="534" y="64"/>
      <point x="534" y="228" type="curve" smooth="yes"/>
      <point x="534" y="398"/>
      <point x="396" y="470"/>
      <point x="281" y="470" type="curve"/>
      <point x="166" y="470"/>
      <point x="30" y="398"/>
      <point x="30" y="228" type="curve" smooth="yes"/>
      <point x="30" y="64"/>
      <point x="166" y="-10"/>
    </contour>
    <contour>
      <point x="281" y="10" type="curve"/>
      <point x="208" y="10"/>
      <point x="183" y="75"/>
      <point x="183" y="228" type="curve" smooth="yes"/>
      <point x="183" y="385"/>
      <point x="208" y="450"/>
      <point x="281" y="450" type="curve"/>
      <point x="354" y="450"/>
      <point x="381" y="385"/>
      <point x="381" y="228" type="curve"/>
      <point x="381" y="75"/>
      <point x="354" y="10"/>
    </contour>
  </outline>
</glyph>
<glyph name="florin" format="1">
  <advance width="580"/>
  <unicode hex="0192"/>
  <outline>
    <contour>
      <point x="88" y="290" type="line"/>
      <point x="498" y="290" type="line"/>
      <point x="498" y="310" type="line"/>
      <point x="88" y="310" type="line"/>
    </contour>
    <contour>
      <point x="310" y="0" type="curve" smooth="yes"/>
      <point x="391" y="460" type="line" smooth="yes"/>
      <point x="414" y="588"/>
      <point x="440" y="649"/>
      <point x="480" y="660" type="curve"/>
      <point x="509" y="667"/>
      <point x="503" y="622"/>
      <point x="503" y="577" type="curve"/>
      <point x="503" y="519"/>
      <point x="544" y="500"/>
      <point x="580" y="500" type="curve" smooth="yes"/>
      <point x="618" y="500"/>
      <point x="653" y="525"/>
      <point x="643" y="580" type="curve" smooth="yes"/>
      <point x="632" y="638"/>
      <point x="573" y="680"/>
      <point x="488" y="680" type="curve" smooth="yes"/>
      <point x="349" y="680"/>
      <point x="266" y="602"/>
      <point x="241" y="460" type="curve" smooth="yes"/>
      <point x="160" y="0" type="line" smooth="yes"/>
      <point x="137" y="-128"/>
      <point x="111" y="-189"/>
      <point x="71" y="-200" type="curve"/>
      <point x="42" y="-207"/>
      <point x="48" y="-162"/>
      <point x="48" y="-117" type="curve"/>
      <point x="48" y="-63"/>
      <point x="22" y="-40"/>
      <point x="-17" y="-40" type="curve" smooth="yes"/>
      <point x="-55" y="-40"/>
      <point x="-97" y="-69"/>
      <point x="-88" y="-120" type="curve" smooth="yes"/>
      <point x="-78" y="-179"/>
      <point x="-22" y="-220"/>
      <point x="63" y="-220" type="curve" smooth="yes"/>
      <point x="202" y="-220"/>
      <point x="285" y="-142"/>
    </contour>
  </outline>
</glyph>
<glyph name="circumflex" format="1">
  <advance width="594"/>
  <unicode hex="02C6"/>
  <outline>
    <contour>
      <point x="209" y="514" type="line"/>
      <point x="297" y="554" type="line"/>
      <point x="385" y="514" type="line"/>
      <point x="394" y="523" type="line"/>
      <point x="306" y="651" type="line"/>
      <point x="287" y="651" type="line"/>
      <point x="200" y="523" type="line"/>
    </contour>
  </outline>
</glyph>
<glyph name="caron" format="1">
  <advance width="594"/>
  <unicode hex="02C7"/>
  <outline>
    <contour>
      <point x="209" y="651" type="line"/>
      <point x="200" y="642" type="line"/>
      <point x="287" y="514" type="line"/>
      <point x="306" y="514" type="line"/>
      <point x="394" y="642" type="line"/>
      <point x="385" y="651" type="line"/>
      <point x="297" y="611" type="line"/>
    </contour>
  </outline>
</glyph>
<glyph name="breve" format="1">
  <advance width="584"/>
  <unicode hex="02D8"/>
  <outline>
    <contour>
      <point x="293" y="596" type="curve"/>
      <point x="236" y="596"/>
      <point x="220" y="618"/>
      <point x="220" y="645" type="curve"/>
      <point x="200" y="645" type="line"/>
      <point x="200" y="571"/>
      <point x="224" y="520"/>
      <point x="293" y="520" type="curve"/>
      <point x="364" y="520"/>
      <point x="384" y="571"/>
      <point x="384" y="645" type="curve"/>
      <point x="364" y="645" type="line"/>
      <point x="364" y="618"/>
      <point x="350" y="596"/>
    </contour>
  </outline>
</glyph>
<glyph name="dotaccent" format="1">
  <advance width="525"/>
  <unicode hex="02D9"/>
  <outline>
    <contour>
      <point x="325" y="582" type="curve" smooth="yes"/>
      <point x="325" y="617"/>
      <point x="297" y="645"/>
      <point x="264" y="645" type="curve" smooth="yes"/>
      <point x="229" y="645"/>
      <point x="200" y="617"/>
      <point x="200" y="582" type="curve" smooth="yes"/>
      <point x="200" y="548"/>
      <point x="229" y="521"/>
      <point x="264" y="521" type="curve" smooth="yes"/>
      <point x="297" y="521"/>
      <point x="325" y="548"/>
    </contour>
  </outline>
</glyph>
<glyph name="ring" format="1">
  <advance width="568"/>
  <unicode hex="02DA"/>
  <outline>
    <contour>
      <point x="283" y="535" type="curve"/>
      <point x="259" y="535"/>
      <point x="240" y="558"/>
      <point x="240" y="582" type="curve"/>
      <point x="240" y="607"/>
      <point x="257" y="627"/>
      <point x="283" y="627" type="curve"/>
      <point x="309" y="627"/>
      <point x="327" y="607"/>
      <point x="327" y="582" type="curve"/>
      <point x="327" y="558"/>
      <point x="307" y="535"/>
    </contour>
    <contour>
      <point x="283" y="498" type="curve"/>
      <point x="329" y="498"/>
      <point x="368" y="536"/>
      <point x="368" y="582" type="curve"/>
      <point x="368" y="628"/>
      <point x="329" y="667"/>
      <point x="283" y="667" type="curve"/>
      <point x="237" y="667"/>
      <point x="200" y="628"/>
      <point x="200" y="582" type="curve"/>
      <point x="200" y="536"/>
      <point x="237" y="498"/>
    </contour>
  </outline>
</glyph>
<glyph name="ogonek" format="1">
  <advance width="548"/>
  <unicode hex="02DB"/>
  <outline>
    <contour>
      <point x="288" y="11" type="curve"/>
      <point x="149" y="-114"/>
      <point x="202" y="-177"/>
      <point x="266" y="-177" type="curve" smooth="yes"/>
      <point x="298" y="-177"/>
      <point x="330" y="-154"/>
      <point x="348" y="-131" type="curve"/>
      <point x="338" y="-119" type="line"/>
      <point x="325" y="-131"/>
      <point x="302" y="-135"/>
      <point x="282" y="-121" type="curve" smooth="yes"/>
      <point x="259" y="-104"/>
      <point x="252" y="-69"/>
      <point x="303" y="1" type="curve" smooth="yes"/>
      <point x="303" y="1"/>
      <point x="288" y="11"/>
    </contour>
  </outline>
</glyph>
<glyph name="tilde" format="1">
  <advance width="598"/>
  <unicode hex="02DC"/>
  <outline>
    <contour>
      <point x="220" y="537" type="line"/>
      <point x="220" y="551"/>
      <point x="226" y="564"/>
      <point x="244" y="564" type="curve" smooth="yes"/>
      <point x="274" y="564"/>
      <point x="292" y="532"/>
      <point x="330" y="532" type="curve" smooth="yes"/>
      <point x="368" y="532"/>
      <point x="398" y="556"/>
      <point x="398" y="628" type="curve"/>
      <point x="378" y="628" type="line"/>
      <point x="378" y="614"/>
      <point x="372" y="602"/>
      <point x="352" y="602" type="curve" smooth="yes"/>
      <point x="322" y="602"/>
      <point x="304" y="633"/>
      <point x="267" y="633" type="curve" smooth="yes"/>
      <point x="230" y="633"/>
      <point x="200" y="611"/>
      <point x="200" y="537" type="curve"/>
    </contour>
  </outline>
</glyph>
<glyph name="hungarumlaut" format="1">
  <advance width="661"/>
  <unicode hex="02DD"/>
  <outline>
    <contour>
      <point x="350" y="500" type="curve"/>
      <point x="366" y="494" type="line"/>
      <point x="387" y="552"/>
      <point x="440" y="543"/>
      <point x="457" y="588" type="curve" smooth="yes"/>
      <point x="471" y="625"/>
      <point x="451" y="659"/>
      <point x="422" y="664" type="curve" smooth="yes"/>
      <point x="398" y="671"/>
      <point x="369" y="653"/>
      <point x="359" y="628" type="curve" smooth="yes"/>
      <point x="339" y="576"/>
      <point x="370" y="556"/>
    </contour>
    <contour>
      <point x="200" y="500" type="curve"/>
      <point x="216" y="494" type="line"/>
      <point x="237" y="552"/>
      <point x="290" y="543"/>
      <point x="307" y="588" type="curve" smooth="yes"/>
      <point x="321" y="625"/>
      <point x="301" y="659"/>
      <point x="272" y="664" type="curve" smooth="yes"/>
      <point x="248" y="671"/>
      <point x="219" y="653"/>
      <point x="209" y="628" type="curve" smooth="yes"/>
      <point x="189" y="576"/>
      <point x="220" y="556"/>
    </contour>
  </outline>
</glyph>
<glyph name="dvVisarga" format="1">
  <advance width="217"/>
  <unicode hex="0903"/>
  <outline>
    <contour>
      <point x="177" y="446" type="curve" smooth="yes"/>
      <point x="177" y="408"/>
      <point x="146" y="378"/>
      <point x="108" y="378" type="curve" smooth="yes"/>
      <point x="70" y="378"/>
      <point x="40" y="408"/>
      <point x="40" y="446" type="curve" smooth="yes"/>
      <point x="40" y="484"/>
      <point x="70" y="515"/>
      <point x="108" y="515" type="curve" smooth="yes"/>
      <point x="146" y="515"/>
      <point x="177" y="484"/>
    </contour>
    <contour>
      <point x="177" y="146" type="curve" smooth="yes"/>
      <point x="177" y="108"/>
      <point x="146" y="78"/>
      <point x="108" y="78" type="curve" smooth="yes"/>
      <point x="70" y="78"/>
      <point x="40" y="108"/>
      <point x="40" y="146" type="curve" smooth="yes"/>
      <point x="40" y="184"/>
      <point x="70" y="215"/>
      <point x="108" y="215" type="curve" smooth="yes"/>
      <point x="146" y="215"/>
      <point x="177" y="184"/>
    </contour>
  </outline>
</glyph>
<glyph name="dvA" format="1">
  <advance width="709"/>
  <unicode hex="0905"/>
  <outline>
    <contour>
      <point x="263" y="353" type="line"/>
      <point x="354" y="348"/>
      <point x="415" y="300"/>
      <point x="415" y="213" type="curve" smooth="yes"/>
      <point x="415" y="99"/>
      <point x="317" y="47"/>
      <point x="186" y="47" type="curve" smooth="yes"/>
      <point x="64" y="47"/>
      <point x="9" y="100"/>
      <point x="9" y="189" type="curve" smooth="yes"/>
      <point x="9" y="240"/>
      <point x="41" y="278"/>
      <point x="89" y="278" type="curve" smooth="yes"/>
      <point x="134" y="278"/>
      <point x="160" y="247"/>
      <point x="160" y="213" type="curve" smooth="yes"/>
      <point x="160" y="134"/>
      <point x="65" y="155"/>
      <point x="65" y="116" type="curve" smooth="yes"/>
      <point x="65" y="86"/>
      <point x="110" y="71"/>
      <point x="147" y="71" type="curve" smooth="yes"/>
      <point x="228" y="71"/>
      <point x="270" y="119"/>
      <point x="270" y="213" type="curve" smooth="yes"/>
      <point x="270" y="287"/>
      <point x="242" y="340"/>
      <point x="140" y="340" type="curve" smooth="yes"/>
      <point x="125" y="340" type="line"/>
      <point x="125" y="360" type="line"/>
      <point x="140" y="360" type="line" smooth="yes"/>
      <point x="210" y="360"/>
      <point x="245" y="397"/>
      <point x="245" y="463" type="curve" smooth="yes"/>
      <point x="245" y="513"/>
      <point x="219" y="540"/>
      <point x="172" y="540" type="curve" smooth="yes"/>
      <point x="148" y="540"/>
      <point x="121" y="528"/>
      <point x="107" y="517" type="curve"/>
      <point x="99" y="531" type="line"/>
      <point x="120" y="547"/>
      <point x="164" y="572"/>
      <point x="242" y="572" type="curve" smooth="yes"/>
      <point x="334" y="572"/>
      <point x="381" y="526"/>
      <point x="381" y="471" type="curve" smooth="yes"/>
      <point x="381" y="402"/>
      <point x="325" y="370"/>
      <point x="263" y="357" type="curve"/>
    </contour>
    <contour>
      <point x="432" y="560" type="line"/>
      <point x="729" y="560" type="line"/>
      <point x="729" y="540" type="line"/>
      <point x="432" y="540" type="line"/>
    </contour>
    <contour>
      <point x="286" y="237" type="line"/>
      <point x="561" y="237" type="line"/>
      <point x="561" y="217" type="line"/>
      <point x="286" y="217" type="line"/>
    </contour>
    <contour>
      <point x="489" y="550" type="line"/>
      <point x="629" y="550" type="line"/>
      <point x="629" y="0" type="line"/>
      <point x="489" y="0" type="line"/>
    </contour>
  </outline>
</glyph>
<glyph name="dvII" format="1">
  <advance width="467"/>
  <unicode hex="0908"/>
  <outline>
    <contour>
      <point x="259" y="560" type="line"/>
      <point x="259" y="564" type="line"/>
      <point x="202" y="581"/>
      <point x="157" y="628"/>
      <point x="157" y="685" type="curve" smooth="yes"/>
      <point x="157" y="754"/>
      <point x="211" y="801"/>
      <point x="280" y="801" type="curve" smooth="yes"/>
      <point x="356" y="801"/>
      <point x="412" y="757"/>
      <point x="412" y="686" type="curve" smooth="yes"/>
      <point x="412" y="676"/>
      <point x="410" y="668"/>
      <point x="410" y="668" type="curve"/>
      <point x="390" y="668" type="line"/>
      <point x="390" y="668"/>
      <point x="391" y="673"/>
      <point x="391" y="679" type="curve" smooth="yes"/>
      <point x="391" y="727"/>
      <point x="362" y="751"/>
      <point x="324" y="751" type="curve" smooth="yes"/>
      <point x="287" y="751"/>
      <point x="256" y="723"/>
      <point x="256" y="674" type="curve" smooth="yes"/>
      <point x="256" y="606"/>
      <point x="310" y="560"/>
      <point x="395" y="560" type="curve"/>
    </contour>
    <component base="dvI"/>
  </outline>
</glyph>
<glyph name="dvEcandra" format="1">
  <advance width="564"/>
  <unicode hex="090D"/>
  <outline>
    <contour>
      <point x="369" y="721" type="move" name="abvm.bindu"/>
    </contour>
    <contour>
      <point x="469" y="800" type="line"/>
      <point x="473" y="692"/>
      <point x="402" y="631"/>
      <point x="299" y="631" type="curve" smooth="yes"/>
      <point x="196" y="631"/>
      <point x="125" y="693"/>
      <point x="129" y="800" type="curve"/>
      <point x="142" y="803" type="line"/>
      <point x="152" y="754"/>
      <point x="210" y="720"/>
      <point x="299" y="720" type="curve" smooth="yes"/>
      <point x="395" y="720"/>
      <point x="446" y="758"/>
      <point x="456" y="803" type="curve"/>
    </contour>
    <component base="dvE"/>
  </outline>
</glyph>
<glyph name="dvOcandra" format="1">
  <advance width="1013"/>
  <unicode hex="0911"/>
  <outline>
    <contour>
      <point x="789" y="721" type="move" name="abvm.bindu"/>
    </contour>
    <component base="dvA"/>
    <component base="dvmAA" xOffset="709"/>
    <component base="dvmEcandra" xOffset="868"/>
  </outline>
</glyph>
<glyph name="dvGA" format="1">
  <advance width="664"/>
  <unicode hex="0917"/>
  <outline>
    <contour>
      <point x="181" y="293" type="curve"/>
      <point x="179" y="326"/>
      <point x="155" y="354"/>
      <point x="112" y="354" type="curve" smooth="yes"/>
      <point x="61" y="354"/>
      <point x="30" y="314"/>
      <point x="30" y="265" type="curve" smooth="yes"/>
      <point x="30" y="180"/>
      <point x="93" y="132"/>
      <point x="170" y="132" type="curve" smooth="yes"/>
      <point x="297" y="132"/>
      <point x="382" y="228"/>
      <point x="382" y="350" type="curve" smooth="yes"/>
      <point x="382" y="449"/>
      <point x="319" y="548"/>
      <point x="193" y="548" type="curve"/>
      <point x="105" y="548" type="line"/>
      <point x="105" y="540" type="line"/>
      <point x="196" y="540"/>
      <point x="237" y="454"/>
      <point x="237" y="350" type="curve" smooth="yes"/>
      <point x="237" y="253"/>
      <point x="211" y="159"/>
      <point x="141" y="159" type="curve" smooth="yes"/>
      <point x="112" y="159"/>
      <point x="96" y="175"/>
      <point x="96" y="195" type="curve" smooth="yes"/>
      <point x="96" y="253"/>
      <point x="181" y="208"/>
    </contour>
    <contour>
      <point x="-20" y="540" type="line"/>
      <point x="684" y="540" type="line"/>
      <point x="684" y="560" type="line"/>
      <point x="-20" y="560" type="line"/>
    </contour>
    <contour>
      <point x="444" y="0" type="line"/>
      <point x="584" y="0" type="line"/>
      <point x="584" y="550" type="line"/>
      <point x="444" y="550" type="line"/>
    </contour>
  </outline>
</glyph>
<glyph name="dvGHA" format="1">
  <advance width="623"/>
  <unicode hex="0918"/>
  <outline>
    <contour>
      <point x="168" y="329" type="line"/>
      <point x="102" y="338"/>
      <point x="59" y="374"/>
      <point x="59" y="438" type="curve" smooth="yes"/>
      <point x="59" y="493"/>
      <point x="97" y="548"/>
      <point x="179" y="548" type="curve" smooth="yes"/>
      <point x="216" y="548"/>
      <point x="262" y="548"/>
      <point x="302" y="544" type="curve"/>
      <point x="314" y="540" type="line"/>
      <point x="237" y="540"/>
      <point x="199" y="498"/>
      <point x="199" y="432" type="curve" smooth="yes"/>
      <point x="199" y="378"/>
      <point x="233" y="335"/>
      <point x="293" y="335" type="curve" smooth="yes"/>
      <point x="320" y="335" type="line"/>
      <point x="320" y="315" type="line"/>
      <point x="294" y="315" type="line" smooth="yes"/>
      <point x="223" y="315"/>
      <point x="191" y="262"/>
      <point x="191" y="199" type="curve" smooth="yes"/>
      <point x="191" y="128"/>
      <point x="237" y="87"/>
      <point x="304" y="87" type="curve" smooth="yes"/>
      <point x="348" y="87"/>
      <point x="394" y="115"/>
      <point x="403" y="169" type="curve"/>
      <point x="418" y="169" type="line"/>
      <point x="413" y="90"/>
      <point x="336" y="39"/>
      <point x="230" y="39" type="curve" smooth="yes"/>
      <point x="136" y="39"/>
      <point x="46" y="88"/>
      <point x="46" y="187" type="curve" smooth="yes"/>
      <point x="46" y="254"/>
      <point x="86" y="310"/>
      <point x="168" y="325" type="curve"/>
    </contour>
    <contour>
      <point x="-20" y="560" type="line"/>
      <point x="643" y="560" type="line"/>
      <point x="643" y="540" type="line"/>
      <point x="-20" y="540" type="line"/>
    </contour>
    <contour>
      <point x="403" y="550" type="line"/>
      <point x="543" y="550" type="line"/>
      <point x="543" y="0" type="line"/>
      <point x="403" y="0" type="line"/>
    </contour>
  </outline>
</glyph>
<glyph name="dvJA" format="1">
  <advance width="695"/>
  <unicode hex="091C"/>
  <outline>
    <contour>
      <point x="479" y="430" type="line"/>
      <point x="259" y="430" type="line"/>
      <point x="259" y="424" type="line"/>
      <point x="351" y="412"/>
      <point x="410" y="341"/>
      <point x="410" y="245" type="curve" smooth="yes"/>
      <point x="410" y="129"/>
      <point x="336" y="39"/>
      <point x="184" y="39" type="curve" smooth="yes"/>
      <point x="83" y="39"/>
      <point x="15" y="85"/>
      <point x="15" y="179" type="curve" smooth="yes"/>
      <point x="15" y="227"/>
      <point x="48" y="271"/>
      <point x="98" y="271" type="curve" smooth="yes"/>
      <point x="138" y="271"/>
      <point x="167" y="240"/>
      <point x="167" y="199" type="curve" smooth="yes"/>
      <point x="167" y="118"/>
      <point x="70" y="145"/>
      <point x="70" y="109" type="curve" smooth="yes"/>
      <point x="70" y="84"/>
      <point x="107" y="62"/>
      <point x="151" y="62" type="curve" smooth="yes"/>
      <point x="246" y="62"/>
      <point x="265" y="160"/>
      <point x="265" y="245" type="curve" smooth="yes"/>
      <point x="265" y="362"/>
      <point x="233" y="429"/>
      <point x="129" y="430" type="curve"/>
      <point x="129" y="450" type="line"/>
      <point x="479" y="450" type="line"/>
    </contour>
    <contour>
      <point x="-20" y="560" type="line"/>
      <point x="715" y="560" type="line"/>
      <point x="715" y="540" type="line"/>
      <point x="-20" y="540" type="line"/>
    </contour>
    <contour>
      <point x="475" y="560" type="line"/>
      <point x="615" y="560" type="line"/>
      <point x="615" y="0" type="line"/>
      <point x="475" y="0" type="line"/>
    </contour>
  </outline>
</glyph>
<glyph name="dvJHA" format="1">
  <advance width="735"/>
  <unicode hex="091D"/>
  <outline>
    <contour>
      <point x="515" y="560" type="line"/>
      <point x="655" y="560" type="line"/>
      <point x="655" y="0" type="line"/>
      <point x="515" y="0" type="line"/>
    </contour>
    <contour>
      <point x="590" y="199" type="line"/>
      <point x="368" y="199" type="line"/>
      <point x="368" y="219" type="line"/>
      <point x="590" y="219" type="line"/>
    </contour>
    <contour>
      <point x="44" y="115" type="curve"/>
      <point x="44" y="158"/>
      <point x="78" y="182"/>
      <point x="111" y="182" type="curve" smooth="yes"/>
      <point x="161" y="182"/>
      <point x="190" y="151"/>
      <point x="190" y="99" type="curve" smooth="yes"/>
      <point x="190" y="35"/>
      <point x="140" y="-45"/>
      <point x="91" y="-93" type="curve"/>
      <point x="75" y="-80" type="line"/>
      <point x="100" y="-60"/>
      <point x="134" y="-13"/>
      <point x="148" y="18" type="curve"/>
      <point x="153" y="13" type="line"/>
      <point x="81" y="28"/>
      <point x="44" y="65"/>
    </contour>
    <contour>
      <point x="161" y="31" type="line"/>
      <point x="176" y="28"/>
      <point x="194" y="27"/>
      <point x="213" y="27" type="curve" smooth="yes"/>
      <point x="272" y="27"/>
      <point x="317" y="58"/>
      <point x="317" y="109" type="curve" smooth="yes"/>
      <point x="317" y="226"/>
      <point x="44" y="186"/>
      <point x="44" y="335" type="curve" smooth="yes"/>
      <point x="44" y="403"/>
      <point x="108" y="450"/>
      <point x="222" y="453" type="curve"/>
      <point x="222" y="453"/>
      <point x="222" y="484"/>
      <point x="222" y="546" type="curve"/>
      <point x="362" y="546" type="line"/>
      <point x="362" y="414" type="line"/>
      <point x="339" y="420"/>
      <point x="281" y="430"/>
      <point x="232" y="430" type="curve" smooth="yes"/>
      <point x="161" y="430"/>
      <point x="137" y="409"/>
      <point x="137" y="388" type="curve" smooth="yes"/>
      <point x="137" y="307"/>
      <point x="425" y="334"/>
      <point x="425" y="162" type="curve" smooth="yes"/>
      <point x="425" y="61"/>
      <point x="327" y="7"/>
      <point x="217" y="7" type="curve" smooth="yes"/>
      <point x="195" y="7"/>
      <point x="176" y="9"/>
      <point x="159" y="12" type="curve" smooth="yes"/>
    </contour>
    <contour>
      <point x="-20" y="560" type="line"/>
      <point x="755" y="560" type="line"/>
      <point x="755" y="540" type="line"/>
      <point x="-20" y="540" type="line"/>
    </contour>
  </outline>
</glyph>
<glyph name="dvTTA" format="1">
  <advance width="469"/>
  <unicode hex="091F"/>
  <outline>
    <contour>
      <point x="389" y="560" type="move" name="abvm.bindu"/>
    </contour>
    <contour>
      <point x="368" y="20" type="move" name="blwm.virama"/>
    </contour>
    <contour>
      <point x="389" y="560" type="move" name="abvm.e"/>
    </contour>
    <contour>
      <point x="340" y="-41" type="move" name="blwm.u"/>
    </contour>
    <contour>
      <point x="280" y="24" type="curve" smooth="yes"/>
      <point x="358" y="24"/>
      <point x="412" y="58"/>
      <point x="442" y="108" type="curve"/>
      <point x="428" y="118" type="line"/>
      <point x="406" y="85"/>
      <point x="363" y="57"/>
      <point x="317" y="57" type="curve"/>
      <point x="258" y="57"/>
      <point x="189" y="95"/>
      <point x="189" y="233" type="curve" smooth="yes"/>
      <point x="189" y="325"/>
      <point x="224" y="409"/>
      <point x="329" y="409" type="curve" smooth="yes"/>
      <point x="350" y="409"/>
      <point x="373" y="405"/>
      <point x="389" y="400" type="curve"/>
      <point x="389" y="551" type="line"/>
      <point x="249" y="551" type="line"/>
      <point x="249" y="422" type="line"/>
      <point x="131" y="422"/>
      <point x="44" y="347"/>
      <point x="44" y="232" type="curve" smooth="yes"/>
      <point x="44" y="90"/>
      <point x="140" y="24"/>
    </contour>
    <contour>
      <point x="-20" y="540" type="line"/>
      <point x="489" y="540" type="line"/>
      <point x="489" y="560" type="line"/>
      <point x="-20" y="560" type="line"/>
    </contour>
  </outline>
</glyph>
<glyph name="dvDDA" format="1">
  <advance width="457"/>
  <unicode hex="0921"/>
  <outline>
    <contour>
      <point x="368" y="560" type="move" name="abvm.bindu"/>
    </contour>
    <contour>
      <point x="316" y="-3" type="move" name="blwm.virama"/>
    </contour>
    <contour>
      <point x="368" y="560" type="move" name="abvm.e"/>
    </contour>
    <contour>
      <point x="314" y="-61" type="move" name="blwm.u"/>
    </contour>
    <contour>
      <point x="-20" y="560" type="line"/>
      <point x="477" y="560" type="line"/>
      <point x="477" y="540" type="line"/>
      <point x="368" y="540" type="line"/>
      <point x="368" y="403" type="line"/>
      <point x="341" y="416"/>
      <point x="278" y="433"/>
      <point x="220" y="433" type="curve" smooth="yes"/>
      <point x="158" y="433"/>
      <point x="135" y="408"/>
      <point x="135" y="388" type="curve" smooth="yes"/>
      <point x="135" y="306"/>
      <point x="422" y="333"/>
      <point x="422" y="158" type="curve" smooth="yes"/>
      <point x="422" y="64"/>
      <point x="336" y="-3"/>
      <point x="208" y="-3" type="curve" smooth="yes"/>
      <point x="116" y="-3"/>
      <point x="31" y="41"/>
      <point x="31" y="113" type="curve" smooth="yes"/>
      <point x="31" y="150"/>
      <point x="54" y="183"/>
      <point x="99" y="183" type="curve" smooth="yes"/>
      <point x="138" y="183"/>
      <point x="164" y="158"/>
      <point x="164" y="126" type="curve" smooth="yes"/>
      <point x="164" y="82"/>
      <point x="121" y="83"/>
      <point x="121" y="58" type="curve" smooth="yes"/>
      <point x="121" y="28"/>
      <point x="173" y="18"/>
      <point x="209" y="18" type="curve" smooth="yes"/>
      <point x="277" y="18"/>
      <point x="316" y="55"/>
      <point x="316" y="104" type="curve" smooth="yes"/>
      <point x="316" y="241"/>
      <point x="42" y="183"/>
      <point x="42" y="335" type="curve" smooth="yes"/>
      <point x="42" y="404"/>
      <point x="108" y="453"/>
      <point x="228" y="453" type="curve"/>
      <point x="228" y="540" type="line"/>
      <point x="-20" y="540" type="line"/>
    </contour>
  </outline>
</glyph>
<glyph name="dvNNA" format="1">
  <advance width="823"/>
  <unicode hex="0923"/>
  <outline>
    <contour>
      <point x="336" y="560" type="line"/>
      <point x="336" y="328" type="line" smooth="yes"/>
      <point x="336" y="237"/>
      <point x="336" y="157"/>
      <point x="267" y="157" type="curve" smooth="yes"/>
      <point x="199" y="157"/>
      <point x="198" y="237"/>
      <point x="198" y="328" type="curve" smooth="yes"/>
      <point x="198" y="560" type="line"/>
      <point x="53" y="560" type="line"/>
      <point x="53" y="560"/>
      <point x="53" y="369"/>
      <point x="53" y="342" type="curve" smooth="yes"/>
      <point x="53" y="197"/>
      <point x="120" y="137"/>
      <point x="267" y="137" type="curve" smooth="yes"/>
      <point x="415" y="137"/>
      <point x="481" y="197"/>
      <point x="481" y="342" type="curve" smooth="yes"/>
      <point x="481" y="369"/>
      <point x="481" y="560"/>
      <point x="481" y="560" type="curve"/>
    </contour>
    <contour>
      <point x="603" y="0" type="line"/>
      <point x="743" y="0" type="line"/>
      <point x="743" y="560" type="line"/>
      <point x="603" y="560" type="line"/>
    </contour>
    <contour>
      <point x="-20" y="540" type="line"/>
      <point x="841" y="540" type="line"/>
      <point x="841" y="560" type="line"/>
      <point x="-20" y="560" type="line"/>
    </contour>
  </outline>
</glyph>
<glyph name="dvTA" format="1">
  <advance width="563"/>
  <unicode hex="0924"/>
  <outline>
    <contour>
      <point x="363" y="392" type="line"/>
      <point x="356" y="394"/>
      <point x="333" y="396"/>
      <point x="323" y="396" type="curve" smooth="yes"/>
      <point x="197" y="396"/>
      <point x="190" y="297"/>
      <point x="190" y="198" type="curve" smooth="yes"/>
      <point x="190" y="66"/>
      <point x="210" y="25"/>
      <point x="264" y="25" type="curve" smooth="yes"/>
      <point x="271" y="25"/>
      <point x="283" y="26"/>
      <point x="288" y="27" type="curve"/>
      <point x="292" y="9" type="line"/>
      <point x="277" y="3"/>
      <point x="258" y="1"/>
      <point x="240" y="1" type="curve" smooth="yes"/>
      <point x="132" y="1"/>
      <point x="45" y="50"/>
      <point x="45" y="198" type="curve" smooth="yes"/>
      <point x="45" y="375"/>
      <point x="171" y="415"/>
      <point x="310" y="415" type="curve"/>
      <point x="339" y="415"/>
      <point x="363" y="411"/>
      <point x="363" y="411" type="curve"/>
    </contour>
    <contour>
      <point x="343" y="560" type="line"/>
      <point x="483" y="560" type="line"/>
      <point x="483" y="0" type="line"/>
      <point x="343" y="0" type="line"/>
    </contour>
    <contour>
      <point x="-20" y="560" type="line"/>
      <point x="581" y="560" type="line"/>
      <point x="581" y="540" type="line"/>
      <point x="-20" y="540" type="line"/>
    </contour>
  </outline>
</glyph>
<glyph name="dvPA" format="1">
  <advance width="562"/>
  <unicode hex="092A"/>
  <outline>
    <contour>
      <point x="342" y="238" type="line"/>
      <point x="335" y="212"/>
      <point x="306" y="184"/>
      <point x="271" y="184" type="curve" smooth="yes"/>
      <point x="197" y="184"/>
      <point x="197" y="270"/>
      <point x="197" y="338" type="curve" smooth="yes"/>
      <point x="197" y="546" type="line"/>
      <point x="51" y="546" type="line"/>
      <point x="51" y="345" type="line"/>
      <point x="51" y="241"/>
      <point x="74" y="132"/>
      <point x="213" y="132" type="curve" smooth="yes"/>
      <point x="271" y="132"/>
      <point x="329" y="172"/>
      <point x="344" y="205" type="curve"/>
    </contour>
    <contour>
      <point x="342" y="0" type="line"/>
      <point x="482" y="0" type="line"/>
      <point x="482" y="559" type="line"/>
      <point x="342" y="559" type="line"/>
    </contour>
    <contour>
      <point x="-20" y="540" type="line"/>
      <point x="582" y="540" type="line"/>
      <point x="582" y="560" type="line"/>
      <point x="-20" y="560" type="line"/>
    </contour>
  </outline>
</glyph>
<glyph name="dvPHA" format="1">
  <advance width="818"/>
  <unicode hex="092B"/>
  <outline>
    <contour>
      <point x="482" y="560" type="move" name="abvm.bindu"/>
    </contour>
    <contour>
      <point x="482" y="0" type="move" name="blwm.virama"/>
    </contour>
    <contour>
      <point x="482" y="560" type="move" name="abvm.e"/>
    </contour>
    <contour>
      <point x="482" y="0" type="move" name="blwm.u"/>
    </contour>
    <contour>
      <point x="342" y="0" type="line"/>
      <point x="482" y="0" type="line"/>
      <point x="482" y="559" type="line"/>
      <point x="342" y="559" type="line"/>
    </contour>
    <contour>
      <point x="-20" y="540" type="line"/>
      <point x="838" y="540" type="line"/>
      <point x="838" y="560" type="line"/>
      <point x="-20" y="560" type="line"/>
    </contour>
    <contour>
      <point x="552" y="410" type="curve"/>
      <point x="607" y="410"/>
      <point x="637" y="348"/>
      <point x="637" y="270" type="curve" smooth="yes"/>
      <point x="637" y="196"/>
      <point x="615" y="121"/>
      <point x="546" y="120" type="curve" smooth="yes"/>
      <point x="538" y="120"/>
      <point x="528" y="121"/>
      <point x="522" y="124" type="curve"/>
      <point x="517" y="109" type="line"/>
      <point x="538" y="90"/>
      <point x="573" y="80"/>
      <point x="615" y="80" type="curve" smooth="yes"/>
      <point x="724" y="80"/>
      <point x="782" y="160"/>
      <point x="782" y="268" type="curve" smooth="yes"/>
      <point x="782" y="376"/>
      <point x="720" y="465"/>
      <point x="611" y="465" type="curve" smooth="yes"/>
      <point x="515" y="465"/>
      <point x="468" y="403"/>
      <point x="468" y="330" type="curve"/>
      <point x="481" y="331" type="line"/>
      <point x="487" y="377"/>
      <point x="513" y="409"/>
    </contour>
    <contour>
      <point x="342" y="238" type="line"/>
      <point x="335" y="212"/>
      <point x="306" y="184"/>
      <point x="271" y="184" type="curve" smooth="yes"/>
      <point x="197" y="184"/>
      <point x="197" y="270"/>
      <point x="197" y="338" type="curve" smooth="yes"/>
      <point x="197" y="546" type="line"/>
      <point x="51" y="546" type="line"/>
      <point x="51" y="345" type="line" smooth="yes"/>
      <point x="51" y="241"/>
      <point x="74" y="132"/>
      <point x="213" y="132" type="curve" smooth="yes"/>
      <point x="271" y="132"/>
      <point x="329" y="172"/>
      <point x="344" y="205" type="curve"/>
    </contour>
  </outline>
</glyph>
<glyph name="dvYA" format="1">
  <advance width="640"/>
  <unicode hex="092F"/>
  <outline>
    <contour>
      <point x="420" y="559" type="line"/>
      <point x="560" y="559" type="line"/>
      <point x="560" y="0" type="line"/>
      <point x="420" y="0" type="line"/>
    </contour>
    <contour>
      <point x="-20" y="560" type="line"/>
      <point x="660" y="560" type="line"/>
      <point x="660" y="540" type="line"/>
      <point x="-20" y="540" type="line"/>
    </contour>
    <contour>
      <point x="178" y="295" type="curve"/>
      <point x="178" y="294"/>
      <point x="177" y="285"/>
      <point x="177" y="277" type="curve" smooth="yes"/>
      <point x="177" y="209"/>
      <point x="209" y="132"/>
      <point x="297" y="132" type="curve" smooth="yes"/>
      <point x="368" y="132"/>
      <point x="425" y="176"/>
      <point x="425" y="242" type="curve"/>
      <point x="442" y="218" type="line"/>
      <point x="426" y="133"/>
      <point x="334" y="96"/>
      <point x="260" y="96" type="curve" smooth="yes"/>
      <point x="130" y="96"/>
      <point x="31" y="166"/>
      <point x="31" y="289" type="curve" smooth="yes"/>
      <point x="31" y="304"/>
      <point x="32" y="314"/>
      <point x="33" y="321" type="curve"/>
      <point x="33" y="321"/>
      <point x="43" y="320"/>
      <point x="50" y="320" type="curve" smooth="yes"/>
      <point x="124" y="320"/>
      <point x="179" y="349"/>
      <point x="179" y="431" type="curve" smooth="yes"/>
      <point x="179" y="519"/>
      <point x="131" y="540"/>
      <point x="59" y="540" type="curve"/>
      <point x="59" y="546" type="line"/>
      <point x="174" y="546" type="line" smooth="yes"/>
      <point x="266" y="546"/>
      <point x="324" y="495"/>
      <point x="324" y="419" type="curve" smooth="yes"/>
      <point x="324" y="345"/>
      <point x="269" y="304"/>
    </contour>
  </outline>
</glyph>
<glyph name="dvRA" format="1">
  <advance width="373"/>
  <unicode hex="0930"/>
  <outline>
    <contour>
      <point x="211" y="560" type="move" name="abvm.bindu"/>
    </contour>
    <contour>
      <point x="276" y="-3" type="move" name="blwm.virama"/>
    </contour>
    <contour>
      <point x="211" y="560" type="move" name="abvm.e"/>
    </contour>
    <contour>
      <point x="-20" y="560" type="line"/>
      <point x="393" y="560" type="line"/>
      <point x="393" y="540" type="line"/>
      <point x="-20" y="540" type="line"/>
    </contour>
    <contour>
      <point x="112" y="258" type="line"/>
      <point x="297" y="232"/>
      <point x="227" y="25"/>
      <point x="328" y="25" type="curve" smooth="yes"/>
      <point x="346" y="25"/>
      <point x="360" y="31"/>
      <point x="365" y="34" type="curve"/>
      <point x="371" y="20" type="line"/>
      <point x="348" y="3"/>
      <point x="317" y="-4"/>
      <point x="276" y="-4" type="curve" smooth="yes"/>
      <point x="52" y="-4"/>
      <point x="117" y="231"/>
      <point x="11" y="260" type="curve"/>
      <point x="11" y="280" type="line"/>
      <point x="42" y="280" type="line" smooth="yes"/>
      <point x="131" y="280"/>
      <point x="180" y="321"/>
      <point x="180" y="407" type="curve" smooth="yes"/>
      <point x="180" y="494"/>
      <point x="142" y="540"/>
      <point x="57" y="540" type="curve"/>
      <point x="57" y="545" type="line"/>
      <point x="162" y="545" type="line" smooth="yes"/>
      <point x="266" y="545"/>
      <point x="318" y="486"/>
      <point x="318" y="407" type="curve" smooth="yes"/>
      <point x="318" y="314"/>
      <point x="230" y="269"/>
      <point x="112" y="262" type="curve"/>
    </contour>
  </outline>
</glyph>
<glyph name="dvSSA" format="1">
  <advance width="562"/>
  <unicode hex="0937"/>
  <outline>
    <contour>
      <point x="342" y="238" type="line"/>
      <point x="335" y="210"/>
      <point x="306" y="184"/>
      <point x="271" y="184" type="curve" smooth="yes"/>
      <point x="197" y="184"/>
      <point x="197" y="270"/>
      <point x="197" y="338" type="curve" smooth="yes"/>
      <point x="197" y="546" type="line"/>
      <point x="51" y="546" type="line"/>
      <point x="51" y="345" type="line"/>
      <point x="51" y="241"/>
      <point x="74" y="132"/>
      <point x="213" y="132" type="curve" smooth="yes"/>
      <point x="271" y="132"/>
      <point x="329" y="172"/>
      <point x="344" y="205" type="curve"/>
    </contour>
    <contour>
      <point x="342" y="0" type="line"/>
      <point x="482" y="0" type="line"/>
      <point x="482" y="559" type="line"/>
      <point x="342" y="559" type="line"/>
    </contour>
    <contour>
      <point x="-20" y="540" type="line"/>
      <point x="580" y="540" type="line"/>
      <point x="580" y="560" type="line"/>
      <point x="-20" y="560" type="line"/>
    </contour>
    <contour>
      <point x="171" y="465" type="line"/>
      <point x="386" y="263" type="line"/>
      <point x="401" y="276" type="line"/>
      <point x="183" y="481" type="line"/>
    </contour>
  </outline>
</glyph>
<glyph name="dvNukta" format="1">
  <advance width="0"/>
  <unicode hex="093C"/>
  <outline>
    <contour>
      <point x="-200" y="-79" type="curve" smooth="yes"/>
      <point x="-200" y="-117"/>
      <point x="-231" y="-148"/>
      <point x="-269" y="-148" type="curve" smooth="yes"/>
      <point x="-307" y="-148"/>
      <point x="-338" y="-117"/>
      <point x="-338" y="-79" type="curve" smooth="yes"/>
      <point x="-338" y="-41"/>
      <point x="-307" y="-10"/>
      <point x="-269" y="-10" type="curve" smooth="yes"/>
      <point x="-231" y="-10"/>
      <point x="-200" y="-41"/>
    </contour>
  </outline>
</glyph>
<glyph name="dvAvagraha" format="1">
  <advance width="483"/>
  <unicode hex="093D"/>
  <outline>
    <contour>
      <point x="37" y="108" type="line"/>
      <point x="85" y="62"/>
      <point x="144" y="27"/>
      <point x="217" y="27" type="curve" smooth="yes"/>
      <point x="277" y="27"/>
      <point x="315" y="61"/>
      <point x="315" y="112" type="curve" smooth="yes"/>
      <point x="315" y="247"/>
      <point x="44" y="267"/>
      <point x="44" y="437" type="curve" smooth="yes"/>
      <point x="44" y="513"/>
      <point x="108" y="560"/>
      <point x="222" y="560" type="curve"/>
      <point x="442" y="560" type="line"/>
      <point x="442" y="540" type="line"/>
      <point x="242" y="540" type="line"/>
      <point x="192" y="540"/>
      <point x="161" y="527"/>
      <point x="161" y="492" type="curve" smooth="yes"/>
      <point x="161" y="386"/>
      <point x="425" y="355"/>
      <point x="425" y="162" type="curve" smooth="yes"/>
      <point x="425" y="61"/>
      <point x="331" y="7"/>
      <point x="221" y="7" type="curve" smooth="yes"/>
      <point x="142" y="7"/>
      <point x="76" y="45"/>
      <point x="25" y="92" type="curve"/>
    </contour>
  </outline>
</glyph>
<glyph name="dvmUU" format="1">
  <advance width="0"/>
  <unicode hex="0942"/>
  <outline>
    <contour>
      <point x="-83" y="0" type="move" name="_blwm.u"/>
    </contour>
    <contour>
      <point x="53" y="-225" type="line"/>
      <point x="52" y="-150"/>
      <point x="2" y="-32"/>
      <point x="-100" y="-32" type="curve" smooth="yes"/>
      <point x="-149" y="-32"/>
      <point x="-188" y="-64"/>
      <point x="-188" y="-117" type="curve" smooth="yes"/>
      <point x="-188" y="-168"/>
      <point x="-157" y="-194"/>
      <point x="-122" y="-194" type="curve" smooth="yes"/>
      <point x="-95" y="-194"/>
      <point x="-69" y="-180"/>
      <point x="-66" y="-147" type="curve"/>
      <point x="-46" y="-152" type="line"/>
      <point x="-52" y="-198"/>
      <point x="-88" y="-231"/>
      <point x="-165" y="-231" type="curve" smooth="yes"/>
      <point x="-242" y="-231"/>
      <point x="-307" y="-189"/>
      <point x="-307" y="-116" type="curve" smooth="yes"/>
      <point x="-307" y="-44"/>
      <point x="-252" y="13"/>
      <point x="-150" y="13" type="curve" smooth="yes"/>
      <point x="2" y="13"/>
      <point x="71" y="-112"/>
      <point x="73" y="-225" type="curve"/>
    </contour>
  </outline>
</glyph>
